<svg width="1736.16" height="1018.0" xmlns="http://www.w3.org/2000/svg" font-family='system-ui, -apple-system, "Segoe UI", Roboto, "Helvetica Neue", Arial, "PingFang SC", "Microsoft YaHei", sans-serif' font-size='13'>
<defs><marker id="arr" markerWidth="10" markerHeight="10" refX="9" refY="3.5" orient="auto" markerUnits="userSpaceOnUse"><path d="M0,0 L0,7 L10,3.5 z" fill="#444"/></marker></defs>
<rect width="1736.16" height="1018.0" fill="#fafafa"/>
<line x1="142.0" y1="46.0" x2="1716.16" y2="46.0" stroke="#ddd" stroke-width="1"/>
<line x1="142.0" y1="186.0" x2="1716.16" y2="186.0" stroke="#ddd" stroke-width="1"/>
<line x1="142.0" y1="326.0" x2="1716.16" y2="326.0" stroke="#ddd" stroke-width="1"/>
<line x1="142.0" y1="642.0" x2="1716.16" y2="642.0" stroke="#ddd" stroke-width="1"/>
<line x1="142.0" y1="958.0" x2="1716.16" y2="958.0" stroke="#ddd" stroke-width="1"/>
<line x1="142.0" y1="998.0" x2="1716.16" y2="998.0" stroke="#ddd" stroke-width="1"/>
<line x1="158.0" y1="46.0" x2="158.0" y2="998.0" stroke="#ddd" stroke-width="1"/>
<line x1="371.3" y1="46.0" x2="371.3" y2="998.0" stroke="#ddd" stroke-width="1"/>
<line x1="536.3" y1="46.0" x2="536.3" y2="998.0" stroke="#ddd" stroke-width="1"/>
<line x1="677.1" y1="46.0" x2="677.1" y2="998.0" stroke="#ddd" stroke-width="1"/>
<line x1="898.4" y1="46.0" x2="898.4" y2="998.0" stroke="#ddd" stroke-width="1"/>
<line x1="980.4" y1="46.0" x2="980.4" y2="998.0" stroke="#ddd" stroke-width="1"/>
<line x1="1153.5" y1="46.0" x2="1153.5" y2="998.0" stroke="#ddd" stroke-width="1"/>
<line x1="1552.2" y1="46.0" x2="1552.2" y2="998.0" stroke="#ddd" stroke-width="1"/>
<line x1="1634.2" y1="46.0" x2="1634.2" y2="998.0" stroke="#ddd" stroke-width="1"/>
<line x1="1716.2" y1="46.0" x2="1716.2" y2="998.0" stroke="#ddd" stroke-width="1"/>
<text x="137.0" y="121.0" text-anchor="end" fill="#111827" font-size="12" font-weight="600">userspace</text>
<text x="137.0" y="261.0" text-anchor="end" fill="#111827" font-size="12" font-weight="600">syscall_boundary</text>
<text x="137.0" y="489.0" text-anchor="end" fill="#111827" font-size="12" font-weight="600">kernel</text>
<text x="137.0" y="805.0" text-anchor="end" fill="#111827" font-size="12" font-weight="600">hardware</text>
<text x="137.0" y="983.0" text-anchor="end" fill="#111827" font-size="12" font-weight="600">unknown</text>
<text text-anchor="middle" font-size="13" font-weight="600" fill="#111827"><tspan x="264.7" y="19.0">arch</tspan><tspan x="264.7" dy="12.0">platform</tspan></text>
<text text-anchor="middle" font-size="13" font-weight="600" fill="#111827"><tspan x="453.8" y="19.0">trap</tspan><tspan x="453.8" dy="12.0">syscall</tspan></text>
<text text-anchor="middle" font-size="13" font-weight="600" fill="#111827"><tspan x="606.7" y="19.0">process</tspan><tspan x="606.7" dy="12.0">sched</tspan></text>
<text text-anchor="middle" font-size="13" font-weight="600" fill="#111827"><tspan x="787.8" y="19.0">memory</tspan><tspan x="787.8" dy="12.0">vm</tspan></text>
<text text-anchor="middle" font-size="12" font-weight="600" fill="#111827"><tspan x="939.4" y="19.0">fs</tspan><tspan x="939.4" dy="12.0">storage</tspan></text>
<text text-anchor="middle" font-size="13" font-weight="600" fill="#111827"><tspan x="1067.0" y="19.0">sync</tspan><tspan x="1067.0" dy="12.0">ipc</tspan></text>
<text text-anchor="middle" font-size="13" font-weight="600" fill="#111827"><tspan x="1352.8" y="19.0">runtime</tspan><tspan x="1352.8" dy="12.0">common</tspan></text>
<text text-anchor="middle" font-size="12" font-weight="600" fill="#111827"><tspan x="1593.2" y="19.0">user</tspan><tspan x="1593.2" dy="12.0">programs</tspan></text>
<text x="1675.2" y="30.0" text-anchor="middle" font-size="12" font-weight="600" fill="#111827">unknown</text>
<path d="M548.3,428.0 C548.3,517.9 323.0,574.7 323.0,664.6" stroke="#3498db" stroke-width="2" fill="none" marker-end="url(#arr)" opacity="0.88"/>
<path d="M548.3,428.0 C548.3,535.1 359.3,602.7 359.3,709.7" stroke="#3498db" stroke-width="2" fill="none" marker-end="url(#arr)" opacity="0.88"/>
<path d="M264.7,683.1 C264.7,686.2 264.7,688.1 264.7,691.1" stroke="#f4d03f" stroke-width="2" fill="none" marker-end="url(#arr)" opacity="0.88"/>
<path d="M548.3,484.0 C462.7,484.0 408.6,512.0 323.0,512.0" stroke="#3498db" stroke-width="2" fill="none" marker-end="url(#arr)" opacity="0.88"/>
<path d="M606.7,460.0 C606.7,457.0 606.7,455.0 606.7,452.0" stroke="#3498db" stroke-width="2" fill="none" marker-end="url(#arr)" opacity="0.88"/>
<path d="M548.3,484.0 C462.7,484.0 408.6,456.0 323.0,456.0" stroke="#3498db" stroke-width="2" fill="none" marker-end="url(#arr)" opacity="0.88"/>
<path d="M548.3,484.0 C462.7,484.0 408.6,664.6 323.0,664.6" stroke="#3498db" stroke-width="2" fill="none" marker-end="url(#arr)" opacity="0.88"/>
<path d="M548.3,484.0 C548.3,569.8 359.3,623.9 359.3,709.7" stroke="#3498db" stroke-width="2" fill="none" marker-end="url(#arr)" opacity="0.88"/>
<path d="M548.3,484.0 C548.3,586.9 359.3,651.9 359.3,754.9" stroke="#3498db" stroke-width="2" fill="none" marker-end="url(#arr)" opacity="0.88"/>
<path d="M548.3,484.0 C548.3,604.1 359.3,679.9 359.3,800.0" stroke="#3498db" stroke-width="2" fill="none" marker-end="url(#arr)" opacity="0.88"/>
<path d="M606.7,508.0 C606.7,646.2 264.7,733.5 264.7,871.7" stroke="#3498db" stroke-width="2" fill="none" marker-end="url(#arr)" opacity="0.88"/>
<path d="M606.7,508.0 C606.7,511.0 606.7,513.0 606.7,516.0" stroke="#3498db" stroke-width="2" fill="none" marker-end="url(#arr)" opacity="0.88"/>
<path d="M606.7,508.0 C606.7,663.4 264.7,761.5 264.7,916.9" stroke="#3498db" stroke-width="2" fill="none" marker-end="url(#arr)" opacity="0.88"/>
<path d="M1067.0,452.0 C1067.0,476.3 1067.0,491.7 1067.0,516.0" stroke="#e67e22" stroke-width="2" fill="none" marker-end="url(#arr)" opacity="0.88"/>
<path d="M992.4,428.0 C738.1,428.0 577.4,456.0 323.0,456.0" stroke="#e67e22" stroke-width="2" fill="none" marker-end="url(#arr)" opacity="0.88"/>
<path d="M992.4,428.0 C868.0,428.0 789.5,428.0 665.1,428.0" stroke="#e67e22" stroke-width="2" fill="none" marker-end="url(#arr)" opacity="0.88"/>
<path d="M992.4,428.0 C738.1,428.0 577.4,664.6 323.0,664.6" stroke="#e67e22" stroke-width="2" fill="none" marker-end="url(#arr)" opacity="0.88"/>
<path d="M992.4,428.0 C751.9,428.0 599.9,709.7 359.3,709.7" stroke="#e67e22" stroke-width="2" fill="none" marker-end="url(#arr)" opacity="0.88"/>
<path d="M992.4,428.0 C751.9,428.0 599.9,754.9 359.3,754.9" stroke="#e67e22" stroke-width="2" fill="none" marker-end="url(#arr)" opacity="0.88"/>
<path d="M992.4,428.0 C751.9,428.0 599.9,800.0 359.3,800.0" stroke="#e67e22" stroke-width="2" fill="none" marker-end="url(#arr)" opacity="0.88"/>
<path d="M1141.5,428.0 C1196.5,428.0 1231.3,512.0 1286.4,512.0" stroke="#e67e22" stroke-width="2" fill="none" marker-end="url(#arr)" opacity="0.88"/>
<path d="M992.4,428.0 C751.9,428.0 599.9,890.3 359.3,890.3" stroke="#e67e22" stroke-width="2" fill="none" marker-end="url(#arr)" opacity="0.88"/>
<path d="M992.4,428.0 C868.0,428.0 789.5,540.0 665.1,540.0" stroke="#e67e22" stroke-width="2" fill="none" marker-end="url(#arr)" opacity="0.88"/>
<path d="M992.4,428.0 C751.9,428.0 599.9,935.4 359.3,935.4" stroke="#e67e22" stroke-width="2" fill="none" marker-end="url(#arr)" opacity="0.88"/>
<path d="M992.4,484.0 C738.1,484.0 577.4,512.0 323.0,512.0" stroke="#e67e22" stroke-width="2" fill="none" marker-end="url(#arr)" opacity="0.88"/>
<path d="M1067.0,508.0 C1067.0,511.0 1067.0,513.0 1067.0,516.0" stroke="#e67e22" stroke-width="2" fill="none" marker-end="url(#arr)" opacity="0.88"/>
<path d="M992.4,484.0 C868.0,484.0 789.5,428.0 665.1,428.0" stroke="#e67e22" stroke-width="2" fill="none" marker-end="url(#arr)" opacity="0.88"/>
<path d="M992.4,484.0 C738.1,484.0 577.4,664.6 323.0,664.6" stroke="#e67e22" stroke-width="2" fill="none" marker-end="url(#arr)" opacity="0.88"/>
<path d="M992.4,484.0 C751.9,484.0 599.9,709.7 359.3,709.7" stroke="#e67e22" stroke-width="2" fill="none" marker-end="url(#arr)" opacity="0.88"/>
<path d="M992.4,484.0 C751.9,484.0 599.9,754.9 359.3,754.9" stroke="#e67e22" stroke-width="2" fill="none" marker-end="url(#arr)" opacity="0.88"/>
<path d="M992.4,484.0 C751.9,484.0 599.9,800.0 359.3,800.0" stroke="#e67e22" stroke-width="2" fill="none" marker-end="url(#arr)" opacity="0.88"/>
<path d="M1141.5,484.0 C1196.5,484.0 1231.3,512.0 1286.4,512.0" stroke="#e67e22" stroke-width="2" fill="none" marker-end="url(#arr)" opacity="0.88"/>
<path d="M992.4,484.0 C868.0,484.0 789.5,540.0 665.1,540.0" stroke="#e67e22" stroke-width="2" fill="none" marker-end="url(#arr)" opacity="0.88"/>
<path d="M992.4,484.0 C751.9,484.0 599.9,935.4 359.3,935.4" stroke="#e67e22" stroke-width="2" fill="none" marker-end="url(#arr)" opacity="0.88"/>
<path d="M992.4,540.0 C868.0,540.0 789.5,428.0 665.1,428.0" stroke="#e67e22" stroke-width="2" fill="none" marker-end="url(#arr)" opacity="0.88"/>
<path d="M992.4,540.0 C738.1,540.0 577.4,664.6 323.0,664.6" stroke="#e67e22" stroke-width="2" fill="none" marker-end="url(#arr)" opacity="0.88"/>
<path d="M992.4,540.0 C751.9,540.0 599.9,709.7 359.3,709.7" stroke="#e67e22" stroke-width="2" fill="none" marker-end="url(#arr)" opacity="0.88"/>
<path d="M323.0,456.0 C408.6,456.0 462.7,428.0 548.3,428.0" stroke="#f4d03f" stroke-width="2" fill="none" marker-end="url(#arr)" opacity="0.88"/>
<path d="M264.7,480.0 C264.7,594.5 264.7,666.9 264.7,781.4" stroke="#f4d03f" stroke-width="2" fill="none" marker-end="url(#arr)" opacity="0.88"/>
<path d="M264.7,480.0 C264.7,628.9 264.7,722.9 264.7,871.7" stroke="#f4d03f" stroke-width="2" fill="none" marker-end="url(#arr)" opacity="0.88"/>
<path d="M264.7,480.0 C264.7,577.4 264.7,638.9 264.7,736.3" stroke="#f4d03f" stroke-width="2" fill="none" marker-end="url(#arr)" opacity="0.88"/>
<path d="M264.7,480.0 C264.7,646.0 264.7,750.9 264.7,916.9" stroke="#f4d03f" stroke-width="2" fill="none" marker-end="url(#arr)" opacity="0.88"/>
<path d="M264.7,480.0 C264.7,543.1 264.7,582.9 264.7,646.0" stroke="#f4d03f" stroke-width="2" fill="none" marker-end="url(#arr)" opacity="0.88"/>
<path d="M264.7,480.0 C264.7,560.2 264.7,610.9 264.7,691.1" stroke="#f4d03f" stroke-width="2" fill="none" marker-end="url(#arr)" opacity="0.88"/>
<path d="M323.0,456.0 C689.1,456.0 920.3,512.0 1286.4,512.0" stroke="#f4d03f" stroke-width="2" fill="none" marker-end="url(#arr)" opacity="0.88"/>
<path d="M323.0,456.0 C408.6,456.0 462.7,540.0 548.3,540.0" stroke="#f4d03f" stroke-width="2" fill="none" marker-end="url(#arr)" opacity="0.88"/>
<path d="M1352.8,88.7 C1352.8,229.8 1067.0,318.9 1067.0,460.0" stroke="#95a5a6" stroke-width="2" fill="none" marker-end="url(#arr)" opacity="0.88"/>
<path d="M1278.3,69.3 C919.9,69.3 693.5,845.1 335.1,845.1" stroke="#95a5a6" stroke-width="2" fill="none" marker-end="url(#arr)" opacity="0.88"/>
<path d="M1352.8,88.7 C1352.8,208.5 1067.0,284.2 1067.0,404.0" stroke="#95a5a6" stroke-width="2" fill="none" marker-end="url(#arr)" opacity="0.88"/>
<path d="M1352.8,88.7 C1352.8,240.4 1352.8,336.3 1352.8,488.0" stroke="#95a5a6" stroke-width="2" fill="none" marker-end="url(#arr)" opacity="0.88"/>
<path d="M1278.3,69.3 C929.1,69.3 708.5,890.3 359.3,890.3" stroke="#95a5a6" stroke-width="2" fill="none" marker-end="url(#arr)" opacity="0.88"/>
<path d="M1278.3,69.3 C1045.3,69.3 898.1,540.0 665.1,540.0" stroke="#95a5a6" stroke-width="2" fill="none" marker-end="url(#arr)" opacity="0.88"/>
<path d="M1278.3,69.3 C929.1,69.3 708.5,935.4 359.3,935.4" stroke="#95a5a6" stroke-width="2" fill="none" marker-end="url(#arr)" opacity="0.88"/>
<path d="M264.7,536.0 C264.7,629.3 264.7,688.2 264.7,781.4" stroke="#f4d03f" stroke-width="2" fill="none" marker-end="url(#arr)" opacity="0.88"/>
<path d="M323.0,512.0 C408.6,512.0 462.7,428.0 548.3,428.0" stroke="#f4d03f" stroke-width="2" fill="none" marker-end="url(#arr)" opacity="0.88"/>
<path d="M264.7,536.0 C264.7,612.1 264.7,660.2 264.7,736.3" stroke="#f4d03f" stroke-width="2" fill="none" marker-end="url(#arr)" opacity="0.88"/>
<path d="M264.7,536.0 C264.7,680.7 264.7,772.1 264.7,916.9" stroke="#f4d03f" stroke-width="2" fill="none" marker-end="url(#arr)" opacity="0.88"/>
<path d="M264.7,536.0 C264.7,577.8 264.7,604.2 264.7,646.0" stroke="#f4d03f" stroke-width="2" fill="none" marker-end="url(#arr)" opacity="0.88"/>
<path d="M264.7,536.0 C264.7,595.0 264.7,632.2 264.7,691.1" stroke="#f4d03f" stroke-width="2" fill="none" marker-end="url(#arr)" opacity="0.88"/>
<path d="M787.8,367.1 C787.8,387.3 787.8,400.1 787.8,420.3" stroke="#2ecc71" stroke-width="2" fill="none" marker-end="url(#arr)" opacity="0.88"/>
<path d="M886.4,348.6 C1035.3,348.6 1129.4,69.3 1278.3,69.3" stroke="#2ecc71" stroke-width="2" fill="none" marker-end="url(#arr)" opacity="0.88"/>
<path d="M787.8,367.1 C589.0,367.1 463.4,871.7 264.7,871.7" stroke="#2ecc71" stroke-width="2" fill="none" marker-end="url(#arr)" opacity="0.88"/>
<path d="M787.8,367.1 C718.9,367.1 675.5,516.0 606.7,516.0" stroke="#2ecc71" stroke-width="2" fill="none" marker-end="url(#arr)" opacity="0.88"/>
<path d="M264.7,781.4 C264.7,778.4 264.7,776.5 264.7,773.4" stroke="#f4d03f" stroke-width="2" fill="none" marker-end="url(#arr)" opacity="0.88"/>
<path d="M787.8,375.1 C787.8,372.1 787.8,370.2 787.8,367.1" stroke="#2ecc71" stroke-width="2" fill="none" marker-end="url(#arr)" opacity="0.88"/>
<path d="M882.4,393.7 C1032.8,393.7 1127.9,69.3 1278.3,69.3" stroke="#2ecc71" stroke-width="2" fill="none" marker-end="url(#arr)" opacity="0.88"/>
<path d="M882.4,393.7 C1035.9,393.7 1132.9,512.0 1286.4,512.0" stroke="#2ecc71" stroke-width="2" fill="none" marker-end="url(#arr)" opacity="0.88"/>
<path d="M693.1,393.7 C693.1,582.4 359.3,701.6 359.3,890.3" stroke="#2ecc71" stroke-width="2" fill="none" marker-end="url(#arr)" opacity="0.88"/>
<path d="M693.1,393.7 C693.1,449.3 665.1,484.4 665.1,540.0" stroke="#2ecc71" stroke-width="2" fill="none" marker-end="url(#arr)" opacity="0.88"/>
<path d="M787.8,420.3 C787.8,417.2 787.8,415.3 787.8,412.3" stroke="#2ecc71" stroke-width="2" fill="none" marker-end="url(#arr)" opacity="0.88"/>
<path d="M886.4,438.9 C1038.4,438.9 1134.4,512.0 1286.4,512.0" stroke="#2ecc71" stroke-width="2" fill="none" marker-end="url(#arr)" opacity="0.88"/>
<path d="M689.1,438.9 C689.1,477.3 665.1,501.6 665.1,540.0" stroke="#2ecc71" stroke-width="2" fill="none" marker-end="url(#arr)" opacity="0.88"/>
<path d="M453.8,228.7 C453.8,316.6 606.7,372.1 606.7,460.0" stroke="#e74c3c" stroke-width="2" fill="none" marker-end="url(#arr)" opacity="0.88"/>
<path d="M453.8,228.7 C453.8,295.3 606.7,337.4 606.7,404.0" stroke="#e74c3c" stroke-width="2" fill="none" marker-end="url(#arr)" opacity="0.88"/>
<path d="M453.8,228.7 C453.8,387.3 264.7,487.4 264.7,646.0" stroke="#e74c3c" stroke-width="2" fill="none" marker-end="url(#arr)" opacity="0.88"/>
<path d="M453.8,228.7 C453.8,404.4 264.7,515.4 264.7,691.1" stroke="#e74c3c" stroke-width="2" fill="none" marker-end="url(#arr)" opacity="0.88"/>
<path d="M453.8,228.7 C453.8,305.9 264.7,354.7 264.7,432.0" stroke="#e74c3c" stroke-width="2" fill="none" marker-end="url(#arr)" opacity="0.88"/>
<path d="M453.8,228.7 C453.8,327.2 264.7,389.5 264.7,488.0" stroke="#e74c3c" stroke-width="2" fill="none" marker-end="url(#arr)" opacity="0.88"/>
<path d="M453.8,228.7 C453.8,421.6 264.7,543.4 264.7,736.3" stroke="#e74c3c" stroke-width="2" fill="none" marker-end="url(#arr)" opacity="0.88"/>
<path d="M453.8,228.7 C453.8,438.7 264.7,571.4 264.7,781.4" stroke="#e74c3c" stroke-width="2" fill="none" marker-end="url(#arr)" opacity="0.88"/>
<path d="M453.8,228.7 C453.8,473.0 264.7,627.4 264.7,871.7" stroke="#e74c3c" stroke-width="2" fill="none" marker-end="url(#arr)" opacity="0.88"/>
<path d="M453.8,228.7 C453.8,490.2 264.7,655.3 264.7,916.9" stroke="#e74c3c" stroke-width="2" fill="none" marker-end="url(#arr)" opacity="0.88"/>
<path d="M524.3,209.3 C813.9,209.3 996.8,512.0 1286.4,512.0" stroke="#e74c3c" stroke-width="2" fill="none" marker-end="url(#arr)" opacity="0.88"/>
<path d="M453.8,228.7 C453.8,337.9 606.7,406.8 606.7,516.0" stroke="#e74c3c" stroke-width="2" fill="none" marker-end="url(#arr)" opacity="0.88"/>
<path d="M787.8,465.4 C787.8,428.1 787.8,404.5 787.8,367.1" stroke="#2ecc71" stroke-width="2" fill="none" marker-end="url(#arr)" opacity="0.88"/>
<path d="M787.8,465.4 C787.8,445.2 787.8,432.5 787.8,412.3" stroke="#2ecc71" stroke-width="2" fill="none" marker-end="url(#arr)" opacity="0.88"/>
<path d="M886.4,484.0 C886.4,326.4 1278.3,226.9 1278.3,69.3" stroke="#2ecc71" stroke-width="2" fill="none" marker-end="url(#arr)" opacity="0.88"/>
<path d="M787.8,465.4 C787.8,462.4 787.8,460.5 787.8,457.4" stroke="#2ecc71" stroke-width="2" fill="none" marker-end="url(#arr)" opacity="0.88"/>
<path d="M886.4,484.0 C1038.4,484.0 1134.4,512.0 1286.4,512.0" stroke="#2ecc71" stroke-width="2" fill="none" marker-end="url(#arr)" opacity="0.88"/>
<path d="M689.1,484.0 C689.1,638.4 359.3,735.9 359.3,890.3" stroke="#2ecc71" stroke-width="2" fill="none" marker-end="url(#arr)" opacity="0.88"/>
<path d="M689.1,484.0 C689.1,505.3 665.1,518.7 665.1,540.0" stroke="#2ecc71" stroke-width="2" fill="none" marker-end="url(#arr)" opacity="0.88"/>
<path d="M1286.4,512.0 C1231.3,512.0 1196.5,484.0 1141.5,484.0" stroke="#95a5a6" stroke-width="2" fill="none" marker-end="url(#arr)" opacity="0.88"/>
<path d="M1286.4,512.0 C924.9,512.0 696.6,845.1 335.1,845.1" stroke="#95a5a6" stroke-width="2" fill="none" marker-end="url(#arr)" opacity="0.88"/>
<path d="M1286.4,512.0 C1231.3,512.0 1196.5,428.0 1141.5,428.0" stroke="#95a5a6" stroke-width="2" fill="none" marker-end="url(#arr)" opacity="0.88"/>
<path d="M264.7,908.9 C264.7,911.9 264.7,913.8 264.7,916.9" stroke="#f4d03f" stroke-width="2" fill="none" marker-end="url(#arr)" opacity="0.88"/>
<path d="M264.7,871.7 C264.7,834.4 264.7,810.8 264.7,773.4" stroke="#f4d03f" stroke-width="2" fill="none" marker-end="url(#arr)" opacity="0.88"/>
<path d="M854.2,529.1 C1018.4,529.1 1122.1,116.0 1286.4,116.0" stroke="#2ecc71" stroke-width="2" fill="none" marker-end="url(#arr)" opacity="0.88"/>
<path d="M854.2,529.1 C906.7,529.1 939.9,484.0 992.4,484.0" stroke="#2ecc71" stroke-width="2" fill="none" marker-end="url(#arr)" opacity="0.88"/>
<path d="M854.2,529.1 C906.7,529.1 939.9,428.0 992.4,428.0" stroke="#2ecc71" stroke-width="2" fill="none" marker-end="url(#arr)" opacity="0.88"/>
<path d="M854.2,529.1 C906.7,529.1 939.9,540.0 992.4,540.0" stroke="#2ecc71" stroke-width="2" fill="none" marker-end="url(#arr)" opacity="0.88"/>
<path d="M721.3,529.1 C570.0,529.1 474.4,456.0 323.0,456.0" stroke="#2ecc71" stroke-width="2" fill="none" marker-end="url(#arr)" opacity="0.88"/>
<path d="M721.3,529.1 C570.0,529.1 474.4,512.0 323.0,512.0" stroke="#2ecc71" stroke-width="2" fill="none" marker-end="url(#arr)" opacity="0.88"/>
<path d="M721.3,529.1 C583.7,529.1 496.9,754.9 359.3,754.9" stroke="#2ecc71" stroke-width="2" fill="none" marker-end="url(#arr)" opacity="0.88"/>
<path d="M721.3,529.1 C583.7,529.1 496.9,800.0 359.3,800.0" stroke="#2ecc71" stroke-width="2" fill="none" marker-end="url(#arr)" opacity="0.88"/>
<path d="M854.2,529.1 C1018.4,529.1 1122.1,512.0 1286.4,512.0" stroke="#2ecc71" stroke-width="2" fill="none" marker-end="url(#arr)" opacity="0.88"/>
<path d="M721.3,529.1 C583.7,529.1 496.9,890.3 359.3,890.3" stroke="#2ecc71" stroke-width="2" fill="none" marker-end="url(#arr)" opacity="0.88"/>
<path d="M721.3,529.1 C721.3,490.7 665.1,466.4 665.1,428.0" stroke="#2ecc71" stroke-width="2" fill="none" marker-end="url(#arr)" opacity="0.88"/>
<path d="M721.3,529.1 C570.0,529.1 474.4,664.6 323.0,664.6" stroke="#2ecc71" stroke-width="2" fill="none" marker-end="url(#arr)" opacity="0.88"/>
<path d="M721.3,529.1 C699.9,529.1 686.4,540.0 665.1,540.0" stroke="#2ecc71" stroke-width="2" fill="none" marker-end="url(#arr)" opacity="0.88"/>
<path d="M721.3,529.1 C699.9,529.1 686.4,484.0 665.1,484.0" stroke="#2ecc71" stroke-width="2" fill="none" marker-end="url(#arr)" opacity="0.88"/>
<path d="M721.3,529.1 C721.3,683.5 359.3,781.0 359.3,935.4" stroke="#2ecc71" stroke-width="2" fill="none" marker-end="url(#arr)" opacity="0.88"/>
<path d="M453.8,236.7 C453.8,233.6 453.8,231.7 453.8,228.7" stroke="#e74c3c" stroke-width="2" fill="none" marker-end="url(#arr)" opacity="0.88"/>
<path d="M453.8,275.3 C511.9,275.3 548.6,404.0 606.7,404.0" stroke="#e74c3c" stroke-width="2" fill="none" marker-end="url(#arr)" opacity="0.88"/>
<path d="M453.8,275.3 C453.8,416.2 264.7,505.1 264.7,646.0" stroke="#e74c3c" stroke-width="2" fill="none" marker-end="url(#arr)" opacity="0.88"/>
<path d="M453.8,275.3 C453.8,345.5 606.7,389.8 606.7,460.0" stroke="#e74c3c" stroke-width="2" fill="none" marker-end="url(#arr)" opacity="0.88"/>
<path d="M453.8,275.3 C381.9,275.3 336.5,432.0 264.7,432.0" stroke="#e74c3c" stroke-width="2" fill="none" marker-end="url(#arr)" opacity="0.88"/>
<path d="M453.8,275.3 C453.8,356.1 264.7,407.2 264.7,488.0" stroke="#e74c3c" stroke-width="2" fill="none" marker-end="url(#arr)" opacity="0.88"/>
<path d="M453.8,275.3 C453.8,467.6 264.7,589.1 264.7,781.4" stroke="#e74c3c" stroke-width="2" fill="none" marker-end="url(#arr)" opacity="0.88"/>
<path d="M453.8,275.3 C453.8,502.0 264.7,645.1 264.7,871.7" stroke="#e74c3c" stroke-width="2" fill="none" marker-end="url(#arr)" opacity="0.88"/>
<path d="M453.8,275.3 C453.8,366.8 606.7,424.5 606.7,516.0" stroke="#e74c3c" stroke-width="2" fill="none" marker-end="url(#arr)" opacity="0.88"/>
<path d="M854.2,574.3 C906.7,574.3 939.9,484.0 992.4,484.0" stroke="#2ecc71" stroke-width="2" fill="none" marker-end="url(#arr)" opacity="0.88"/>
<path d="M854.2,574.3 C854.2,518.7 992.4,483.6 992.4,428.0" stroke="#2ecc71" stroke-width="2" fill="none" marker-end="url(#arr)" opacity="0.88"/>
<path d="M854.2,574.3 C854.2,400.1 1286.4,290.1 1286.4,116.0" stroke="#2ecc71" stroke-width="2" fill="none" marker-end="url(#arr)" opacity="0.88"/>
<path d="M854.2,574.3 C854.2,382.4 1278.3,261.2 1278.3,69.3" stroke="#2ecc71" stroke-width="2" fill="none" marker-end="url(#arr)" opacity="0.88"/>
<path d="M854.2,574.3 C906.7,574.3 939.9,540.0 992.4,540.0" stroke="#2ecc71" stroke-width="2" fill="none" marker-end="url(#arr)" opacity="0.88"/>
<path d="M721.3,574.3 C570.0,574.3 474.4,456.0 323.0,456.0" stroke="#2ecc71" stroke-width="2" fill="none" marker-end="url(#arr)" opacity="0.88"/>
<path d="M721.3,574.3 C570.0,574.3 474.4,512.0 323.0,512.0" stroke="#2ecc71" stroke-width="2" fill="none" marker-end="url(#arr)" opacity="0.88"/>
<path d="M721.3,574.3 C583.7,574.3 496.9,754.9 359.3,754.9" stroke="#2ecc71" stroke-width="2" fill="none" marker-end="url(#arr)" opacity="0.88"/>
<path d="M721.3,574.3 C583.7,574.3 496.9,800.0 359.3,800.0" stroke="#2ecc71" stroke-width="2" fill="none" marker-end="url(#arr)" opacity="0.88"/>
<path d="M721.3,574.3 C583.7,574.3 496.9,890.3 359.3,890.3" stroke="#2ecc71" stroke-width="2" fill="none" marker-end="url(#arr)" opacity="0.88"/>
<path d="M721.3,574.3 C721.3,518.7 665.1,483.6 665.1,428.0" stroke="#2ecc71" stroke-width="2" fill="none" marker-end="url(#arr)" opacity="0.88"/>
<path d="M721.3,574.3 C570.0,574.3 474.4,664.6 323.0,664.6" stroke="#2ecc71" stroke-width="2" fill="none" marker-end="url(#arr)" opacity="0.88"/>
<path d="M721.3,574.3 C699.9,574.3 686.4,540.0 665.1,540.0" stroke="#2ecc71" stroke-width="2" fill="none" marker-end="url(#arr)" opacity="0.88"/>
<path d="M721.3,574.3 C721.3,540.0 665.1,518.3 665.1,484.0" stroke="#2ecc71" stroke-width="2" fill="none" marker-end="url(#arr)" opacity="0.88"/>
<path d="M721.3,574.3 C583.7,574.3 496.9,935.4 359.3,935.4" stroke="#2ecc71" stroke-width="2" fill="none" marker-end="url(#arr)" opacity="0.88"/>
<path d="M721.3,574.3 C574.6,574.3 481.9,845.1 335.1,845.1" stroke="#2ecc71" stroke-width="2" fill="none" marker-end="url(#arr)" opacity="0.88"/>
<path d="M606.7,516.0 C606.7,513.0 606.7,511.0 606.7,508.0" stroke="#3498db" stroke-width="2" fill="none" marker-end="url(#arr)" opacity="0.88"/>
<path d="M665.1,540.0 C789.5,540.0 868.0,484.0 992.4,484.0" stroke="#3498db" stroke-width="2" fill="none" marker-end="url(#arr)" opacity="0.88"/>
<path d="M665.1,540.0 C789.5,540.0 868.0,428.0 992.4,428.0" stroke="#3498db" stroke-width="2" fill="none" marker-end="url(#arr)" opacity="0.88"/>
<path d="M606.7,516.0 C606.7,491.7 606.7,476.3 606.7,452.0" stroke="#3498db" stroke-width="2" fill="none" marker-end="url(#arr)" opacity="0.88"/>
<path d="M548.3,540.0 C462.7,540.0 408.6,664.6 323.0,664.6" stroke="#3498db" stroke-width="2" fill="none" marker-end="url(#arr)" opacity="0.88"/>
<path d="M548.3,540.0 C476.5,540.0 431.1,709.7 359.3,709.7" stroke="#3498db" stroke-width="2" fill="none" marker-end="url(#arr)" opacity="0.88"/>
<path d="M665.1,540.0 C789.5,540.0 868.0,540.0 992.4,540.0" stroke="#3498db" stroke-width="2" fill="none" marker-end="url(#arr)" opacity="0.88"/>
<path d="M548.3,540.0 C462.7,540.0 408.6,456.0 323.0,456.0" stroke="#3498db" stroke-width="2" fill="none" marker-end="url(#arr)" opacity="0.88"/>
<path d="M548.3,540.0 C462.7,540.0 408.6,512.0 323.0,512.0" stroke="#3498db" stroke-width="2" fill="none" marker-end="url(#arr)" opacity="0.88"/>
<path d="M548.3,540.0 C548.3,621.6 359.3,673.2 359.3,754.9" stroke="#3498db" stroke-width="2" fill="none" marker-end="url(#arr)" opacity="0.88"/>
<path d="M548.3,540.0 C548.3,638.8 359.3,701.2 359.3,800.0" stroke="#3498db" stroke-width="2" fill="none" marker-end="url(#arr)" opacity="0.88"/>
<path d="M665.1,540.0 C901.2,540.0 1050.3,512.0 1286.4,512.0" stroke="#3498db" stroke-width="2" fill="none" marker-end="url(#arr)" opacity="0.88"/>
<path d="M606.7,564.0 C476.7,564.0 394.6,871.7 264.7,871.7" stroke="#3498db" stroke-width="2" fill="none" marker-end="url(#arr)" opacity="0.88"/>
<path d="M606.7,564.0 C606.7,698.1 264.7,782.8 264.7,916.9" stroke="#3498db" stroke-width="2" fill="none" marker-end="url(#arr)" opacity="0.88"/>
<path d="M665.1,540.0 C898.1,540.0 1045.3,69.3 1278.3,69.3" stroke="#3498db" stroke-width="2" fill="none" marker-end="url(#arr)" opacity="0.88"/>
<path d="M548.3,540.0 C548.3,656.0 335.1,729.2 335.1,845.1" stroke="#3498db" stroke-width="2" fill="none" marker-end="url(#arr)" opacity="0.88"/>
<path d="M453.8,283.3 C453.8,262.6 453.8,249.4 453.8,228.7" stroke="#e74c3c" stroke-width="2" fill="none" marker-end="url(#arr)" opacity="0.88"/>
<path d="M524.3,302.7 C524.3,350.3 548.3,380.4 548.3,428.0" stroke="#e74c3c" stroke-width="2" fill="none" marker-end="url(#arr)" opacity="0.88"/>
<path d="M453.8,322.0 C453.8,445.1 264.7,522.9 264.7,646.0" stroke="#e74c3c" stroke-width="2" fill="none" marker-end="url(#arr)" opacity="0.88"/>
<path d="M453.8,322.0 C511.9,322.0 548.6,460.0 606.7,460.0" stroke="#e74c3c" stroke-width="2" fill="none" marker-end="url(#arr)" opacity="0.88"/>
<path d="M383.3,302.7 C383.3,360.9 323.0,397.7 323.0,456.0" stroke="#e74c3c" stroke-width="2" fill="none" marker-end="url(#arr)" opacity="0.88"/>
<path d="M453.8,322.0 C381.9,322.0 336.5,488.0 264.7,488.0" stroke="#e74c3c" stroke-width="2" fill="none" marker-end="url(#arr)" opacity="0.88"/>
<path d="M453.8,322.0 C453.8,496.6 264.7,606.8 264.7,781.4" stroke="#e74c3c" stroke-width="2" fill="none" marker-end="url(#arr)" opacity="0.88"/>
<path d="M453.8,322.0 C453.8,530.9 264.7,662.8 264.7,871.7" stroke="#e74c3c" stroke-width="2" fill="none" marker-end="url(#arr)" opacity="0.88"/>
<path d="M453.8,322.0 C453.8,395.7 606.7,442.3 606.7,516.0" stroke="#e74c3c" stroke-width="2" fill="none" marker-end="url(#arr)" opacity="0.88"/>
<path d="M787.8,600.9 C787.8,597.8 787.8,595.9 787.8,592.9" stroke="#2ecc71" stroke-width="2" fill="none" marker-end="url(#arr)" opacity="0.88"/>
<path d="M838.1,619.4 C838.1,428.1 1286.4,307.3 1286.4,116.0" stroke="#2ecc71" stroke-width="2" fill="none" marker-end="url(#arr)" opacity="0.88"/>
<path d="M838.1,619.4 C838.1,546.7 992.4,500.7 992.4,428.0" stroke="#2ecc71" stroke-width="2" fill="none" marker-end="url(#arr)" opacity="0.88"/>
<path d="M838.1,619.4 C896.7,619.4 933.8,484.0 992.4,484.0" stroke="#2ecc71" stroke-width="2" fill="none" marker-end="url(#arr)" opacity="0.88"/>
<path d="M838.1,619.4 C896.7,619.4 933.8,540.0 992.4,540.0" stroke="#2ecc71" stroke-width="2" fill="none" marker-end="url(#arr)" opacity="0.88"/>
<path d="M737.4,619.4 C580.0,619.4 480.5,456.0 323.0,456.0" stroke="#2ecc71" stroke-width="2" fill="none" marker-end="url(#arr)" opacity="0.88"/>
<path d="M838.1,619.4 C838.1,410.4 1278.3,278.4 1278.3,69.3" stroke="#2ecc71" stroke-width="2" fill="none" marker-end="url(#arr)" opacity="0.88"/>
<path d="M737.4,619.4 C580.0,619.4 480.5,512.0 323.0,512.0" stroke="#2ecc71" stroke-width="2" fill="none" marker-end="url(#arr)" opacity="0.88"/>
<path d="M737.4,619.4 C593.7,619.4 503.0,800.0 359.3,800.0" stroke="#2ecc71" stroke-width="2" fill="none" marker-end="url(#arr)" opacity="0.88"/>
<path d="M838.1,619.4 C1008.4,619.4 1116.0,512.0 1286.4,512.0" stroke="#2ecc71" stroke-width="2" fill="none" marker-end="url(#arr)" opacity="0.88"/>
<path d="M737.4,619.4 C593.7,619.4 503.0,890.3 359.3,890.3" stroke="#2ecc71" stroke-width="2" fill="none" marker-end="url(#arr)" opacity="0.88"/>
<path d="M737.4,619.4 C737.4,589.2 665.1,570.2 665.1,540.0" stroke="#2ecc71" stroke-width="2" fill="none" marker-end="url(#arr)" opacity="0.88"/>
<path d="M787.8,600.9 C718.9,600.9 675.5,452.0 606.7,452.0" stroke="#2ecc71" stroke-width="2" fill="none" marker-end="url(#arr)" opacity="0.88"/>
<path d="M737.4,619.4 C584.6,619.4 488.0,845.1 335.1,845.1" stroke="#2ecc71" stroke-width="2" fill="none" marker-end="url(#arr)" opacity="0.88"/>
<rect x="548.3" y="404.0" width="116.8" height="48.0" rx="6.0" fill="#3498db" stroke="#fff" stroke-width="1"/>
<text x="606.7" y="421.0" text-anchor="middle" font-weight="bold" font-size="15.0" fill="#222">mycpu</text>
<text x="606.7" y="436.0" text-anchor="middle" fill="#555" font-size="13.0">kernel/proc.c</text>
<rect x="206.3" y="646.0" width="116.8" height="37.1" rx="6.0" fill="#f4d03f" stroke="#fff" stroke-width="1"/>
<text x="264.7" y="661.6" text-anchor="middle" font-weight="bold" font-size="15.0" fill="#222">cpuid</text>
<text x="264.7" y="675.0" text-anchor="middle" fill="#555" font-size="13.0">kernel/proc.c</text>
<rect x="170.0" y="691.1" width="189.3" height="37.1" rx="6.0" fill="#f4d03f" stroke="#fff" stroke-width="1"/>
<text x="264.7" y="706.7" text-anchor="middle" font-weight="bold" font-size="15.0" fill="#222">r_tp</text>
<text x="264.7" y="720.1" text-anchor="middle" fill="#555" font-size="13.0">kernel/include/riscv.h</text>
<rect x="548.3" y="460.0" width="116.8" height="48.0" rx="6.0" fill="#3498db" stroke="#fff" stroke-width="1"/>
<text x="606.7" y="477.0" text-anchor="middle" font-weight="bold" font-size="15.0" fill="#222">myproc</text>
<text x="606.7" y="492.0" text-anchor="middle" fill="#555" font-size="13.0">kernel/proc.c</text>
<rect x="992.4" y="404.0" width="149.0" height="48.0" rx="6.0" fill="#e67e22" stroke="#fff" stroke-width="1"/>
<text x="1067.0" y="421.0" text-anchor="middle" font-weight="bold" font-size="15.0" fill="#222">release</text>
<text x="1067.0" y="436.0" text-anchor="middle" fill="#555" font-size="13.0">kernel/spinlock.c</text>
<rect x="992.4" y="460.0" width="149.0" height="48.0" rx="6.0" fill="#e67e22" stroke="#fff" stroke-width="1"/>
<text x="1067.0" y="477.0" text-anchor="middle" font-weight="bold" font-size="15.0" fill="#222">acquire</text>
<text x="1067.0" y="492.0" text-anchor="middle" fill="#555" font-size="13.0">kernel/spinlock.c</text>
<rect x="992.4" y="516.0" width="149.0" height="48.0" rx="6.0" fill="#e67e22" stroke="#fff" stroke-width="1"/>
<text x="1067.0" y="533.0" text-anchor="middle" font-weight="bold" font-size="15.0" fill="#222">holding</text>
<text x="1067.0" y="548.0" text-anchor="middle" fill="#555" font-size="13.0">kernel/spinlock.c</text>
<rect x="206.3" y="432.0" width="116.8" height="48.0" rx="6.0" fill="#f4d03f" stroke="#fff" stroke-width="1"/>
<text x="264.7" y="449.0" text-anchor="middle" font-weight="bold" font-size="15.0" fill="#222">pop_off</text>
<text x="264.7" y="464.0" text-anchor="middle" fill="#555" font-size="13.0">kernel/intr.c</text>
<rect x="1278.3" y="50.0" width="149.0" height="38.7" rx="6.0" fill="#95a5a6" stroke="#fff" stroke-width="1"/>
<text x="1352.8" y="66.2" text-anchor="middle" font-weight="bold" font-size="15.0" fill="#222">printf</text>
<text x="1352.8" y="80.2" text-anchor="middle" fill="#555" font-size="13.0">xv6-user/printf.c</text>
<rect x="206.3" y="488.0" width="116.8" height="48.0" rx="6.0" fill="#f4d03f" stroke="#fff" stroke-width="1"/>
<text x="264.7" y="505.0" text-anchor="middle" font-weight="bold" font-size="15.0" fill="#222">push_off</text>
<text x="264.7" y="520.0" text-anchor="middle" fill="#555" font-size="13.0">kernel/intr.c</text>
<rect x="170.0" y="736.3" width="189.3" height="37.1" rx="6.0" fill="#f4d03f" stroke="#fff" stroke-width="1"/>
<text x="264.7" y="751.9" text-anchor="middle" font-weight="bold" font-size="15.0" fill="#222">r_sstatus</text>
<text x="264.7" y="765.3" text-anchor="middle" fill="#555" font-size="13.0">kernel/include/riscv.h</text>
<rect x="1286.4" y="96.7" width="132.9" height="38.7" rx="6.0" fill="#95a5a6" stroke="#fff" stroke-width="1"/>
<text x="1352.8" y="112.9" text-anchor="middle" font-weight="bold" font-size="15.0" fill="#222">memset</text>
<text x="1352.8" y="126.8" text-anchor="middle" fill="#555" font-size="13.0">xv6-user/ulib.c</text>
<rect x="1165.5" y="432.0" width="374.7" height="48.0" rx="6.0" fill="#95a5a6" stroke="#fff" stroke-width="1"/>
<text x="1352.8" y="449.0" text-anchor="middle" font-weight="bold" font-size="15.0" fill="#222">u16_t</text>
<text x="1352.8" y="464.0" text-anchor="middle" fill="#555" font-size="13.0">类型别名（typedef） · kernel/lwip/include/arch/cc.h</text>
<rect x="689.1" y="330.0" width="197.4" height="37.1" rx="6.0" fill="#2ecc71" stroke="#fff" stroke-width="1"/>
<text x="787.8" y="345.6" text-anchor="middle" font-weight="bold" font-size="15.0" fill="#222">memp_free</text>
<text x="787.8" y="359.0" text-anchor="middle" fill="#555" font-size="13.0">kernel/lwip/core/memp.c</text>
<rect x="170.0" y="781.4" width="189.3" height="37.1" rx="6.0" fill="#f4d03f" stroke="#fff" stroke-width="1"/>
<text x="264.7" y="797.0" text-anchor="middle" font-weight="bold" font-size="15.0" fill="#222">intr_get</text>
<text x="264.7" y="810.4" text-anchor="middle" fill="#555" font-size="13.0">kernel/include/riscv.h</text>
<rect x="693.1" y="375.1" width="189.3" height="37.1" rx="6.0" fill="#2ecc71" stroke="#fff" stroke-width="1"/>
<text x="787.8" y="390.7" text-anchor="middle" font-weight="bold" font-size="15.0" fill="#222">mem_free</text>
<text x="787.8" y="404.1" text-anchor="middle" fill="#555" font-size="13.0">kernel/lwip/core/mem.c</text>
<rect x="689.1" y="420.3" width="197.4" height="37.1" rx="6.0" fill="#2ecc71" stroke="#fff" stroke-width="1"/>
<text x="787.8" y="435.9" text-anchor="middle" font-weight="bold" font-size="15.0" fill="#222">do_memp_free_pool</text>
<text x="787.8" y="449.3" text-anchor="middle" fill="#555" font-size="13.0">kernel/lwip/core/memp.c</text>
<rect x="383.3" y="190.0" width="141.0" height="38.7" rx="6.0" fill="#e74c3c" stroke="#fff" stroke-width="1"/>
<text x="453.8" y="206.2" text-anchor="middle" font-weight="bold" font-size="15.0" fill="#222">argraw</text>
<text x="453.8" y="220.2" text-anchor="middle" fill="#555" font-size="13.0">kernel/syscall.c</text>
<rect x="689.1" y="465.4" width="197.4" height="37.1" rx="6.0" fill="#2ecc71" stroke="#fff" stroke-width="1"/>
<text x="787.8" y="481.0" text-anchor="middle" font-weight="bold" font-size="15.0" fill="#222">pbuf_free</text>
<text x="787.8" y="494.4" text-anchor="middle" fill="#555" font-size="13.0">kernel/lwip/core/pbuf.c</text>
<rect x="194.2" y="826.6" width="141.0" height="37.1" rx="6.0" fill="#f4d03f" stroke="#fff" stroke-width="1"/>
<text x="264.7" y="842.2" text-anchor="middle" font-weight="bold" font-size="15.0" fill="#222">consputc</text>
<text x="264.7" y="855.5" text-anchor="middle" fill="#555" font-size="13.0">kernel/console.c</text>
<rect x="1286.4" y="488.0" width="132.9" height="48.0" rx="6.0" fill="#95a5a6" stroke="#fff" stroke-width="1"/>
<text x="1352.8" y="505.0" text-anchor="middle" font-weight="bold" font-size="15.0" fill="#222">debug_print</text>
<text x="1352.8" y="520.0" text-anchor="middle" fill="#555" font-size="13.0">kernel/printf.c</text>
<rect x="1286.4" y="143.3" width="132.9" height="38.7" rx="6.0" fill="#95a5a6" stroke="#fff" stroke-width="1"/>
<text x="1352.8" y="159.6" text-anchor="middle" font-weight="bold" font-size="15.0" fill="#222">memmove</text>
<text x="1352.8" y="173.5" text-anchor="middle" fill="#555" font-size="13.0">xv6-user/ulib.c</text>
<rect x="170.0" y="871.7" width="189.3" height="37.1" rx="6.0" fill="#f4d03f" stroke="#fff" stroke-width="1"/>
<text x="264.7" y="887.3" text-anchor="middle" font-weight="bold" font-size="15.0" fill="#222">intr_on</text>
<text x="264.7" y="900.7" text-anchor="middle" fill="#555" font-size="13.0">kernel/include/riscv.h</text>
<rect x="721.3" y="510.6" width="132.9" height="37.1" rx="6.0" fill="#2ecc71" stroke="#fff" stroke-width="1"/>
<text x="787.8" y="526.2" text-anchor="middle" font-weight="bold" font-size="15.0" fill="#222">kfree</text>
<text x="787.8" y="539.5" text-anchor="middle" fill="#555" font-size="13.0">kernel/kalloc.c</text>
<rect x="383.3" y="236.7" width="141.0" height="38.7" rx="6.0" fill="#e74c3c" stroke="#fff" stroke-width="1"/>
<text x="453.8" y="252.9" text-anchor="middle" font-weight="bold" font-size="15.0" fill="#222">argint</text>
<text x="453.8" y="266.8" text-anchor="middle" fill="#555" font-size="13.0">kernel/syscall.c</text>
<rect x="721.3" y="555.7" width="132.9" height="37.1" rx="6.0" fill="#2ecc71" stroke="#fff" stroke-width="1"/>
<text x="787.8" y="571.3" text-anchor="middle" font-weight="bold" font-size="15.0" fill="#222">kalloc</text>
<text x="787.8" y="584.7" text-anchor="middle" fill="#555" font-size="13.0">kernel/kalloc.c</text>
<rect x="548.3" y="516.0" width="116.8" height="48.0" rx="6.0" fill="#3498db" stroke="#fff" stroke-width="1"/>
<text x="606.7" y="533.0" text-anchor="middle" font-weight="bold" font-size="15.0" fill="#222">exit</text>
<text x="606.7" y="548.0" text-anchor="middle" fill="#555" font-size="13.0">kernel/proc.c</text>
<rect x="383.3" y="283.3" width="141.0" height="38.7" rx="6.0" fill="#e74c3c" stroke="#fff" stroke-width="1"/>
<text x="453.8" y="299.6" text-anchor="middle" font-weight="bold" font-size="15.0" fill="#222">argaddr</text>
<text x="453.8" y="313.5" text-anchor="middle" fill="#555" font-size="13.0">kernel/syscall.c</text>
<rect x="737.4" y="600.9" width="100.7" height="37.1" rx="6.0" fill="#2ecc71" stroke="#fff" stroke-width="1"/>
<text x="787.8" y="616.5" text-anchor="middle" font-weight="bold" font-size="15.0" fill="#222">walk</text>
<text x="787.8" y="629.8" text-anchor="middle" fill="#555" font-size="13.0">kernel/vm.c</text>
<rect x="170.0" y="916.9" width="189.3" height="37.1" rx="6.0" fill="#f4d03f" stroke="#fff" stroke-width="1"/>
<text x="264.7" y="932.5" text-anchor="middle" font-weight="bold" font-size="15.0" fill="#222">w_sstatus</text>
<text x="264.7" y="945.8" text-anchor="middle" fill="#555" font-size="13.0">kernel/include/riscv.h</text>
</svg>