<svg width="1939.4" height="786.0" xmlns="http://www.w3.org/2000/svg" font-family='system-ui, -apple-system, "Segoe UI", Roboto, "Helvetica Neue", Arial, "PingFang SC", "Microsoft YaHei", sans-serif' font-size='13'>
<defs><marker id="arr" markerWidth="10" markerHeight="10" refX="9" refY="3.5" orient="auto" markerUnits="userSpaceOnUse"><path d="M0,0 L0,7 L10,3.5 z" fill="#444"/></marker></defs>
<rect width="1939.4" height="786.0" fill="#fafafa"/>
<line x1="142.0" y1="46.0" x2="1919.4" y2="46.0" stroke="#ddd" stroke-width="1"/>
<line x1="142.0" y1="86.0" x2="1919.4" y2="86.0" stroke="#ddd" stroke-width="1"/>
<line x1="142.0" y1="182.0" x2="1919.4" y2="182.0" stroke="#ddd" stroke-width="1"/>
<line x1="142.0" y1="410.0" x2="1919.4" y2="410.0" stroke="#ddd" stroke-width="1"/>
<line x1="142.0" y1="726.0" x2="1919.4" y2="726.0" stroke="#ddd" stroke-width="1"/>
<line x1="142.0" y1="766.0" x2="1919.4" y2="766.0" stroke="#ddd" stroke-width="1"/>
<line x1="158.0" y1="46.0" x2="158.0" y2="766.0" stroke="#ddd" stroke-width="1"/>
<line x1="370.7" y1="46.0" x2="370.7" y2="766.0" stroke="#ddd" stroke-width="1"/>
<line x1="600.1" y1="46.0" x2="600.1" y2="766.0" stroke="#ddd" stroke-width="1"/>
<line x1="797.3" y1="46.0" x2="797.3" y2="766.0" stroke="#ddd" stroke-width="1"/>
<line x1="1059.0" y1="46.0" x2="1059.0" y2="766.0" stroke="#ddd" stroke-width="1"/>
<line x1="1280.4" y1="46.0" x2="1280.4" y2="766.0" stroke="#ddd" stroke-width="1"/>
<line x1="1493.7" y1="46.0" x2="1493.7" y2="766.0" stroke="#ddd" stroke-width="1"/>
<line x1="1755.4" y1="46.0" x2="1755.4" y2="766.0" stroke="#ddd" stroke-width="1"/>
<line x1="1837.4" y1="46.0" x2="1837.4" y2="766.0" stroke="#ddd" stroke-width="1"/>
<line x1="1919.4" y1="46.0" x2="1919.4" y2="766.0" stroke="#ddd" stroke-width="1"/>
<text x="137.0" y="71.0" text-anchor="end" fill="#111827" font-size="12" font-weight="600">userspace</text>
<text x="137.0" y="139.0" text-anchor="end" fill="#111827" font-size="12" font-weight="600">syscall_boundary</text>
<text x="137.0" y="301.0" text-anchor="end" fill="#111827" font-size="12" font-weight="600">kernel</text>
<text x="137.0" y="573.0" text-anchor="end" fill="#111827" font-size="12" font-weight="600">hardware</text>
<text x="137.0" y="751.0" text-anchor="end" fill="#111827" font-size="12" font-weight="600">unknown</text>
<text text-anchor="middle" font-size="13" font-weight="600" fill="#111827"><tspan x="264.4" y="19.0">arch</tspan><tspan x="264.4" dy="12.0">platform</tspan></text>
<text text-anchor="middle" font-size="13" font-weight="600" fill="#111827"><tspan x="485.4" y="19.0">trap</tspan><tspan x="485.4" dy="12.0">syscall</tspan></text>
<text text-anchor="middle" font-size="13" font-weight="600" fill="#111827"><tspan x="698.7" y="19.0">process</tspan><tspan x="698.7" dy="12.0">sched</tspan></text>
<text text-anchor="middle" font-size="13" font-weight="600" fill="#111827"><tspan x="928.2" y="19.0">memory</tspan><tspan x="928.2" dy="12.0">vm</tspan></text>
<text text-anchor="middle" font-size="13" font-weight="600" fill="#111827"><tspan x="1169.7" y="19.0">fs</tspan><tspan x="1169.7" dy="12.0">storage</tspan></text>
<text text-anchor="middle" font-size="13" font-weight="600" fill="#111827"><tspan x="1387.1" y="19.0">sync</tspan><tspan x="1387.1" dy="12.0">ipc</tspan></text>
<text text-anchor="middle" font-size="13" font-weight="600" fill="#111827"><tspan x="1624.6" y="19.0">runtime</tspan><tspan x="1624.6" dy="12.0">common</tspan></text>
<text text-anchor="middle" font-size="12" font-weight="600" fill="#111827"><tspan x="1796.4" y="19.0">user</tspan><tspan x="1796.4" dy="12.0">programs</tspan></text>
<text x="1878.4" y="30.0" text-anchor="middle" font-size="12" font-weight="600" fill="#111827">unknown</text>
<path d="M698.7,223.6 C698.7,226.6 698.7,228.6 698.7,231.6" stroke="#3498db" stroke-width="2" fill="none" marker-end="url(#arr)" opacity="0.88"/>
<path d="M616.2,204.8 C513.9,204.8 449.2,432.6 346.9,432.6" stroke="#3498db" stroke-width="2" fill="none" marker-end="url(#arr)" opacity="0.88"/>
<path d="M612.1,250.4 C511.4,250.4 447.7,432.6 346.9,432.6" stroke="#3498db" stroke-width="2" fill="none" marker-end="url(#arr)" opacity="0.88"/>
<path d="M616.2,296.0 C504.7,296.0 434.2,296.0 322.7,296.0" stroke="#3498db" stroke-width="2" fill="none" marker-end="url(#arr)" opacity="0.88"/>
<path d="M698.7,277.2 C698.7,256.8 698.7,244.0 698.7,223.6" stroke="#3498db" stroke-width="2" fill="none" marker-end="url(#arr)" opacity="0.88"/>
<path d="M616.2,296.0 C504.7,296.0 434.2,240.0 322.7,240.0" stroke="#3498db" stroke-width="2" fill="none" marker-end="url(#arr)" opacity="0.88"/>
<path d="M698.7,277.2 C698.7,274.2 698.7,272.2 698.7,269.2" stroke="#3498db" stroke-width="2" fill="none" marker-end="url(#arr)" opacity="0.88"/>
<path d="M616.2,296.0 C513.9,296.0 449.2,432.6 346.9,432.6" stroke="#3498db" stroke-width="2" fill="none" marker-end="url(#arr)" opacity="0.88"/>
<path d="M616.2,296.0 C513.9,296.0 449.2,477.7 346.9,477.7" stroke="#3498db" stroke-width="2" fill="none" marker-end="url(#arr)" opacity="0.88"/>
<path d="M616.2,296.0 C513.9,296.0 449.2,522.9 346.9,522.9" stroke="#3498db" stroke-width="2" fill="none" marker-end="url(#arr)" opacity="0.88"/>
<path d="M616.2,296.0 C616.2,399.4 346.9,464.6 346.9,568.0" stroke="#3498db" stroke-width="2" fill="none" marker-end="url(#arr)" opacity="0.88"/>
<path d="M616.2,296.0 C509.3,296.0 441.7,352.0 334.8,352.0" stroke="#3498db" stroke-width="2" fill="none" marker-end="url(#arr)" opacity="0.88"/>
<path d="M616.2,296.0 C616.2,433.7 346.9,520.6 346.9,658.3" stroke="#3498db" stroke-width="2" fill="none" marker-end="url(#arr)" opacity="0.88"/>
<path d="M616.2,296.0 C616.2,450.8 346.9,548.6 346.9,703.4" stroke="#3498db" stroke-width="2" fill="none" marker-end="url(#arr)" opacity="0.88"/>
<path d="M1387.1,236.0 C1387.1,260.3 1387.1,275.7 1387.1,300.0" stroke="#e67e22" stroke-width="2" fill="none" marker-end="url(#arr)" opacity="0.88"/>
<path d="M1292.4,212.0 C923.9,212.0 691.2,240.0 322.7,240.0" stroke="#e67e22" stroke-width="2" fill="none" marker-end="url(#arr)" opacity="0.88"/>
<path d="M1481.7,212.0 C1510.7,212.0 1529.1,212.0 1558.1,212.0" stroke="#e67e22" stroke-width="2" fill="none" marker-end="url(#arr)" opacity="0.88"/>
<path d="M1387.1,236.0 C1387.1,239.0 1387.1,241.0 1387.1,244.0" stroke="#e67e22" stroke-width="2" fill="none" marker-end="url(#arr)" opacity="0.88"/>
<path d="M1292.4,212.0 C928.5,212.0 698.7,352.0 334.8,352.0" stroke="#e67e22" stroke-width="2" fill="none" marker-end="url(#arr)" opacity="0.88"/>
<path d="M1292.4,212.0 C1099.7,212.0 978.0,250.4 785.3,250.4" stroke="#e67e22" stroke-width="2" fill="none" marker-end="url(#arr)" opacity="0.88"/>
<path d="M1292.4,212.0 C933.1,212.0 706.2,658.3 346.9,658.3" stroke="#e67e22" stroke-width="2" fill="none" marker-end="url(#arr)" opacity="0.88"/>
<path d="M1292.4,212.0 C1098.2,212.0 975.5,204.8 781.3,204.8" stroke="#e67e22" stroke-width="2" fill="none" marker-end="url(#arr)" opacity="0.88"/>
<path d="M1292.4,212.0 C923.9,212.0 691.2,296.0 322.7,296.0" stroke="#e67e22" stroke-width="2" fill="none" marker-end="url(#arr)" opacity="0.88"/>
<path d="M1292.4,212.0 C933.1,212.0 706.2,477.7 346.9,477.7" stroke="#e67e22" stroke-width="2" fill="none" marker-end="url(#arr)" opacity="0.88"/>
<path d="M1292.4,212.0 C933.1,212.0 706.2,522.9 346.9,522.9" stroke="#e67e22" stroke-width="2" fill="none" marker-end="url(#arr)" opacity="0.88"/>
<path d="M1292.4,212.0 C933.1,212.0 706.2,568.0 346.9,568.0" stroke="#e67e22" stroke-width="2" fill="none" marker-end="url(#arr)" opacity="0.88"/>
<path d="M1292.4,212.0 C933.1,212.0 706.2,703.4 346.9,703.4" stroke="#e67e22" stroke-width="2" fill="none" marker-end="url(#arr)" opacity="0.88"/>
<path d="M1292.4,268.0 C923.9,268.0 691.2,296.0 322.7,296.0" stroke="#e67e22" stroke-width="2" fill="none" marker-end="url(#arr)" opacity="0.88"/>
<path d="M1387.1,292.0 C1387.1,295.0 1387.1,297.0 1387.1,300.0" stroke="#e67e22" stroke-width="2" fill="none" marker-end="url(#arr)" opacity="0.88"/>
<path d="M1292.4,268.0 C1098.2,268.0 975.5,204.8 781.3,204.8" stroke="#e67e22" stroke-width="2" fill="none" marker-end="url(#arr)" opacity="0.88"/>
<path d="M1387.1,244.0 C1387.1,241.0 1387.1,239.0 1387.1,236.0" stroke="#e67e22" stroke-width="2" fill="none" marker-end="url(#arr)" opacity="0.88"/>
<path d="M1481.7,268.0 C1510.7,268.0 1529.1,212.0 1558.1,212.0" stroke="#e67e22" stroke-width="2" fill="none" marker-end="url(#arr)" opacity="0.88"/>
<path d="M1292.4,268.0 C928.5,268.0 698.7,352.0 334.8,352.0" stroke="#e67e22" stroke-width="2" fill="none" marker-end="url(#arr)" opacity="0.88"/>
<path d="M1292.4,268.0 C1099.7,268.0 978.0,250.4 785.3,250.4" stroke="#e67e22" stroke-width="2" fill="none" marker-end="url(#arr)" opacity="0.88"/>
<path d="M1292.4,268.0 C933.1,268.0 706.2,658.3 346.9,658.3" stroke="#e67e22" stroke-width="2" fill="none" marker-end="url(#arr)" opacity="0.88"/>
<path d="M1292.4,268.0 C923.9,268.0 691.2,240.0 322.7,240.0" stroke="#e67e22" stroke-width="2" fill="none" marker-end="url(#arr)" opacity="0.88"/>
<path d="M1292.4,268.0 C933.1,268.0 706.2,477.7 346.9,477.7" stroke="#e67e22" stroke-width="2" fill="none" marker-end="url(#arr)" opacity="0.88"/>
<path d="M1292.4,268.0 C933.1,268.0 706.2,522.9 346.9,522.9" stroke="#e67e22" stroke-width="2" fill="none" marker-end="url(#arr)" opacity="0.88"/>
<path d="M1292.4,268.0 C933.1,268.0 706.2,703.4 346.9,703.4" stroke="#e67e22" stroke-width="2" fill="none" marker-end="url(#arr)" opacity="0.88"/>
<path d="M1558.1,212.0 C1529.1,212.0 1510.7,268.0 1481.7,268.0" stroke="#95a5a6" stroke-width="2" fill="none" marker-end="url(#arr)" opacity="0.88"/>
<path d="M1558.1,212.0 C1093.3,212.0 799.7,352.0 334.8,352.0" stroke="#95a5a6" stroke-width="2" fill="none" marker-end="url(#arr)" opacity="0.88"/>
<path d="M1558.1,212.0 C1529.1,212.0 1510.7,212.0 1481.7,212.0" stroke="#95a5a6" stroke-width="2" fill="none" marker-end="url(#arr)" opacity="0.88"/>
<path d="M1558.1,212.0 C1264.5,212.0 1079.0,250.4 785.3,250.4" stroke="#95a5a6" stroke-width="2" fill="none" marker-end="url(#arr)" opacity="0.88"/>
<path d="M1558.1,212.0 C1097.9,212.0 807.2,432.6 346.9,432.6" stroke="#95a5a6" stroke-width="2" fill="none" marker-end="url(#arr)" opacity="0.88"/>
<path d="M1558.1,212.0 C1097.9,212.0 807.2,658.3 346.9,658.3" stroke="#95a5a6" stroke-width="2" fill="none" marker-end="url(#arr)" opacity="0.88"/>
<path d="M1558.1,212.0 C1558.1,254.6 1481.7,281.4 1481.7,324.0" stroke="#95a5a6" stroke-width="2" fill="none" marker-end="url(#arr)" opacity="0.88"/>
<path d="M1558.1,212.0 C1262.9,212.0 1076.5,204.8 781.3,204.8" stroke="#95a5a6" stroke-width="2" fill="none" marker-end="url(#arr)" opacity="0.88"/>
<path d="M1558.1,212.0 C1088.7,212.0 792.2,296.0 322.7,296.0" stroke="#95a5a6" stroke-width="2" fill="none" marker-end="url(#arr)" opacity="0.88"/>
<path d="M1558.1,212.0 C1088.7,212.0 792.2,240.0 322.7,240.0" stroke="#95a5a6" stroke-width="2" fill="none" marker-end="url(#arr)" opacity="0.88"/>
<path d="M1558.1,212.0 C1097.9,212.0 807.2,477.7 346.9,477.7" stroke="#95a5a6" stroke-width="2" fill="none" marker-end="url(#arr)" opacity="0.88"/>
<path d="M1558.1,212.0 C1097.9,212.0 807.2,522.9 346.9,522.9" stroke="#95a5a6" stroke-width="2" fill="none" marker-end="url(#arr)" opacity="0.88"/>
<path d="M1558.1,212.0 C1097.9,212.0 807.2,568.0 346.9,568.0" stroke="#95a5a6" stroke-width="2" fill="none" marker-end="url(#arr)" opacity="0.88"/>
<path d="M1558.1,212.0 C1097.9,212.0 807.2,703.4 346.9,703.4" stroke="#95a5a6" stroke-width="2" fill="none" marker-end="url(#arr)" opacity="0.88"/>
<path d="M322.7,240.0 C434.2,240.0 504.7,204.8 616.2,204.8" stroke="#f4d03f" stroke-width="2" fill="none" marker-end="url(#arr)" opacity="0.88"/>
<path d="M264.4,264.0 C264.4,355.3 264.4,413.0 264.4,504.3" stroke="#f4d03f" stroke-width="2" fill="none" marker-end="url(#arr)" opacity="0.88"/>
<path d="M264.4,264.0 C264.4,423.9 264.4,524.9 264.4,684.9" stroke="#f4d03f" stroke-width="2" fill="none" marker-end="url(#arr)" opacity="0.88"/>
<path d="M322.7,240.0 C792.2,240.0 1088.7,212.0 1558.1,212.0" stroke="#f4d03f" stroke-width="2" fill="none" marker-end="url(#arr)" opacity="0.88"/>
<path d="M322.7,240.0 C691.2,240.0 923.9,268.0 1292.4,268.0" stroke="#f4d03f" stroke-width="2" fill="none" marker-end="url(#arr)" opacity="0.88"/>
<path d="M264.4,264.0 C264.4,288.3 264.4,303.7 264.4,328.0" stroke="#f4d03f" stroke-width="2" fill="none" marker-end="url(#arr)" opacity="0.88"/>
<path d="M322.7,240.0 C432.7,240.0 502.2,250.4 612.1,250.4" stroke="#f4d03f" stroke-width="2" fill="none" marker-end="url(#arr)" opacity="0.88"/>
<path d="M322.7,240.0 C691.2,240.0 923.9,212.0 1292.4,212.0" stroke="#f4d03f" stroke-width="2" fill="none" marker-end="url(#arr)" opacity="0.88"/>
<path d="M264.4,264.0 C264.4,406.8 264.4,496.9 264.4,639.7" stroke="#f4d03f" stroke-width="2" fill="none" marker-end="url(#arr)" opacity="0.88"/>
<path d="M264.4,264.0 C264.4,338.2 264.4,385.0 264.4,459.1" stroke="#f4d03f" stroke-width="2" fill="none" marker-end="url(#arr)" opacity="0.88"/>
<path d="M264.4,264.0 C264.4,372.5 264.4,441.0 264.4,549.4" stroke="#f4d03f" stroke-width="2" fill="none" marker-end="url(#arr)" opacity="0.88"/>
<path d="M322.7,240.0 C691.2,240.0 923.9,324.0 1292.4,324.0" stroke="#f4d03f" stroke-width="2" fill="none" marker-end="url(#arr)" opacity="0.88"/>
<path d="M264.4,264.0 C264.4,267.0 264.4,269.0 264.4,272.0" stroke="#f4d03f" stroke-width="2" fill="none" marker-end="url(#arr)" opacity="0.88"/>
<path d="M1292.4,324.0 C1098.2,324.0 975.5,204.8 781.3,204.8" stroke="#e67e22" stroke-width="2" fill="none" marker-end="url(#arr)" opacity="0.88"/>
<path d="M1292.4,324.0 C1099.7,324.0 978.0,250.4 785.3,250.4" stroke="#e67e22" stroke-width="2" fill="none" marker-end="url(#arr)" opacity="0.88"/>
<path d="M1292.4,324.0 C933.1,324.0 706.2,432.6 346.9,432.6" stroke="#e67e22" stroke-width="2" fill="none" marker-end="url(#arr)" opacity="0.88"/>
<path d="M264.4,320.0 C264.4,390.0 264.4,434.3 264.4,504.3" stroke="#f4d03f" stroke-width="2" fill="none" marker-end="url(#arr)" opacity="0.88"/>
<path d="M322.7,296.0 C434.2,296.0 504.7,204.8 616.2,204.8" stroke="#f4d03f" stroke-width="2" fill="none" marker-end="url(#arr)" opacity="0.88"/>
<path d="M264.4,320.0 C264.4,372.9 264.4,406.3 264.4,459.1" stroke="#f4d03f" stroke-width="2" fill="none" marker-end="url(#arr)" opacity="0.88"/>
<path d="M264.4,320.0 C264.4,441.5 264.4,518.2 264.4,639.7" stroke="#f4d03f" stroke-width="2" fill="none" marker-end="url(#arr)" opacity="0.88"/>
<path d="M322.7,296.0 C432.7,296.0 502.2,250.4 612.1,250.4" stroke="#f4d03f" stroke-width="2" fill="none" marker-end="url(#arr)" opacity="0.88"/>
<path d="M264.4,320.0 C264.4,355.7 264.4,378.3 264.4,414.0" stroke="#f4d03f" stroke-width="2" fill="none" marker-end="url(#arr)" opacity="0.88"/>
<path d="M264.4,504.3 C264.4,501.2 264.4,499.3 264.4,496.3" stroke="#f4d03f" stroke-width="2" fill="none" marker-end="url(#arr)" opacity="0.88"/>
<path d="M1010.8,212.0 C1117.8,212.0 1185.4,268.0 1292.4,268.0" stroke="#2ecc71" stroke-width="2" fill="none" marker-end="url(#arr)" opacity="0.88"/>
<path d="M1010.8,212.0 C1218.7,212.0 1350.1,212.0 1558.1,212.0" stroke="#2ecc71" stroke-width="2" fill="none" marker-end="url(#arr)" opacity="0.88"/>
<path d="M928.2,236.0 C928.2,239.0 928.2,241.0 928.2,244.0" stroke="#2ecc71" stroke-width="2" fill="none" marker-end="url(#arr)" opacity="0.88"/>
<path d="M1010.8,212.0 C1117.8,212.0 1185.4,212.0 1292.4,212.0" stroke="#2ecc71" stroke-width="2" fill="none" marker-end="url(#arr)" opacity="0.88"/>
<path d="M845.6,212.0 C822.7,212.0 808.2,250.4 785.3,250.4" stroke="#2ecc71" stroke-width="2" fill="none" marker-end="url(#arr)" opacity="0.88"/>
<path d="M845.6,212.0 C656.1,212.0 536.4,432.6 346.9,432.6" stroke="#2ecc71" stroke-width="2" fill="none" marker-end="url(#arr)" opacity="0.88"/>
<path d="M845.6,212.0 C646.9,212.0 521.4,240.0 322.7,240.0" stroke="#2ecc71" stroke-width="2" fill="none" marker-end="url(#arr)" opacity="0.88"/>
<path d="M1010.8,212.0 C1117.8,212.0 1185.4,324.0 1292.4,324.0" stroke="#2ecc71" stroke-width="2" fill="none" marker-end="url(#arr)" opacity="0.88"/>
<path d="M845.6,212.0 C646.9,212.0 521.4,296.0 322.7,296.0" stroke="#2ecc71" stroke-width="2" fill="none" marker-end="url(#arr)" opacity="0.88"/>
<path d="M845.6,212.0 C656.1,212.0 536.4,477.7 346.9,477.7" stroke="#2ecc71" stroke-width="2" fill="none" marker-end="url(#arr)" opacity="0.88"/>
<path d="M845.6,212.0 C656.1,212.0 536.4,522.9 346.9,522.9" stroke="#2ecc71" stroke-width="2" fill="none" marker-end="url(#arr)" opacity="0.88"/>
<path d="M845.6,212.0 C651.5,212.0 528.9,352.0 334.8,352.0" stroke="#2ecc71" stroke-width="2" fill="none" marker-end="url(#arr)" opacity="0.88"/>
<path d="M845.6,212.0 C656.1,212.0 536.4,658.3 346.9,658.3" stroke="#2ecc71" stroke-width="2" fill="none" marker-end="url(#arr)" opacity="0.88"/>
<path d="M1010.8,212.0 C1117.8,212.0 1185.4,380.0 1292.4,380.0" stroke="#2ecc71" stroke-width="2" fill="none" marker-end="url(#arr)" opacity="0.88"/>
<path d="M928.2,236.0 C928.2,260.3 928.2,275.7 928.2,300.0" stroke="#2ecc71" stroke-width="2" fill="none" marker-end="url(#arr)" opacity="0.88"/>
<path d="M845.6,212.0 C656.1,212.0 536.4,568.0 346.9,568.0" stroke="#2ecc71" stroke-width="2" fill="none" marker-end="url(#arr)" opacity="0.88"/>
<path d="M845.6,212.0 C656.1,212.0 536.4,703.4 346.9,703.4" stroke="#2ecc71" stroke-width="2" fill="none" marker-end="url(#arr)" opacity="0.88"/>
<path d="M928.2,236.0 C928.2,281.6 928.2,310.4 928.2,356.0" stroke="#2ecc71" stroke-width="2" fill="none" marker-end="url(#arr)" opacity="0.88"/>
<path d="M698.7,322.8 C698.7,319.8 698.7,317.8 698.7,314.8" stroke="#3498db" stroke-width="2" fill="none" marker-end="url(#arr)" opacity="0.88"/>
<path d="M698.7,322.8 C698.7,302.4 698.7,289.6 698.7,269.2" stroke="#3498db" stroke-width="2" fill="none" marker-end="url(#arr)" opacity="0.88"/>
<path d="M781.3,341.6 C975.5,341.6 1098.2,268.0 1292.4,268.0" stroke="#3498db" stroke-width="2" fill="none" marker-end="url(#arr)" opacity="0.88"/>
<path d="M781.3,341.6 C975.5,341.6 1098.2,212.0 1292.4,212.0" stroke="#3498db" stroke-width="2" fill="none" marker-end="url(#arr)" opacity="0.88"/>
<path d="M698.7,322.8 C698.7,285.1 698.7,261.3 698.7,223.6" stroke="#3498db" stroke-width="2" fill="none" marker-end="url(#arr)" opacity="0.88"/>
<path d="M616.2,341.6 C513.9,341.6 449.2,432.6 346.9,432.6" stroke="#3498db" stroke-width="2" fill="none" marker-end="url(#arr)" opacity="0.88"/>
<path d="M781.3,341.6 C1076.5,341.6 1262.9,212.0 1558.1,212.0" stroke="#3498db" stroke-width="2" fill="none" marker-end="url(#arr)" opacity="0.88"/>
<path d="M616.2,341.6 C504.7,341.6 434.2,240.0 322.7,240.0" stroke="#3498db" stroke-width="2" fill="none" marker-end="url(#arr)" opacity="0.88"/>
<path d="M781.3,341.6 C975.5,341.6 1098.2,324.0 1292.4,324.0" stroke="#3498db" stroke-width="2" fill="none" marker-end="url(#arr)" opacity="0.88"/>
<path d="M616.2,341.6 C504.7,341.6 434.2,296.0 322.7,296.0" stroke="#3498db" stroke-width="2" fill="none" marker-end="url(#arr)" opacity="0.88"/>
<path d="M616.2,341.6 C513.9,341.6 449.2,477.7 346.9,477.7" stroke="#3498db" stroke-width="2" fill="none" marker-end="url(#arr)" opacity="0.88"/>
<path d="M616.2,341.6 C513.9,341.6 449.2,522.9 346.9,522.9" stroke="#3498db" stroke-width="2" fill="none" marker-end="url(#arr)" opacity="0.88"/>
<path d="M616.2,341.6 C509.3,341.6 441.7,352.0 334.8,352.0" stroke="#3498db" stroke-width="2" fill="none" marker-end="url(#arr)" opacity="0.88"/>
<path d="M616.2,341.6 C616.2,461.9 346.9,537.9 346.9,658.3" stroke="#3498db" stroke-width="2" fill="none" marker-end="url(#arr)" opacity="0.88"/>
<path d="M616.2,341.6 C616.2,479.1 346.9,565.9 346.9,703.4" stroke="#3498db" stroke-width="2" fill="none" marker-end="url(#arr)" opacity="0.88"/>
<path d="M616.2,341.6 C513.9,341.6 449.2,568.0 346.9,568.0" stroke="#3498db" stroke-width="2" fill="none" marker-end="url(#arr)" opacity="0.88"/>
<path d="M781.3,341.6 C781.3,313.6 809.3,296.0 809.3,268.0" stroke="#3498db" stroke-width="2" fill="none" marker-end="url(#arr)" opacity="0.88"/>
<path d="M1268.4,296.0 C1358.6,296.0 1415.5,324.0 1505.7,324.0" stroke="#9b59b6" stroke-width="2" fill="none" marker-end="url(#arr)" opacity="0.88"/>
<path d="M264.4,376.0 C264.4,459.1 264.4,511.5 264.4,594.6" stroke="#f4d03f" stroke-width="2" fill="none" marker-end="url(#arr)" opacity="0.88"/>
<path d="M1047.0,268.0 C1140.3,268.0 1199.2,268.0 1292.4,268.0" stroke="#2ecc71" stroke-width="2" fill="none" marker-end="url(#arr)" opacity="0.88"/>
<path d="M1047.0,268.0 C1241.2,268.0 1363.9,212.0 1558.1,212.0" stroke="#2ecc71" stroke-width="2" fill="none" marker-end="url(#arr)" opacity="0.88"/>
<path d="M809.3,268.0 C633.6,268.0 522.6,658.3 346.9,658.3" stroke="#2ecc71" stroke-width="2" fill="none" marker-end="url(#arr)" opacity="0.88"/>
<path d="M809.3,268.0 C800.2,268.0 794.5,250.4 785.3,250.4" stroke="#2ecc71" stroke-width="2" fill="none" marker-end="url(#arr)" opacity="0.88"/>
<path d="M809.3,268.0 C633.6,268.0 522.6,432.6 346.9,432.6" stroke="#2ecc71" stroke-width="2" fill="none" marker-end="url(#arr)" opacity="0.88"/>
<path d="M1047.0,268.0 C1140.3,268.0 1199.2,324.0 1292.4,324.0" stroke="#2ecc71" stroke-width="2" fill="none" marker-end="url(#arr)" opacity="0.88"/>
<path d="M809.3,268.0 C809.3,244.0 781.3,228.8 781.3,204.8" stroke="#2ecc71" stroke-width="2" fill="none" marker-end="url(#arr)" opacity="0.88"/>
<path d="M809.3,268.0 C624.4,268.0 507.6,296.0 322.7,296.0" stroke="#2ecc71" stroke-width="2" fill="none" marker-end="url(#arr)" opacity="0.88"/>
<path d="M809.3,268.0 C633.6,268.0 522.6,522.9 346.9,522.9" stroke="#2ecc71" stroke-width="2" fill="none" marker-end="url(#arr)" opacity="0.88"/>
<path d="M809.3,268.0 C633.6,268.0 522.6,477.7 346.9,477.7" stroke="#2ecc71" stroke-width="2" fill="none" marker-end="url(#arr)" opacity="0.88"/>
<path d="M1047.0,268.0 C1140.3,268.0 1199.2,212.0 1292.4,212.0" stroke="#2ecc71" stroke-width="2" fill="none" marker-end="url(#arr)" opacity="0.88"/>
<path d="M809.3,268.0 C624.4,268.0 507.6,240.0 322.7,240.0" stroke="#2ecc71" stroke-width="2" fill="none" marker-end="url(#arr)" opacity="0.88"/>
<path d="M809.3,268.0 C633.6,268.0 522.6,703.4 346.9,703.4" stroke="#2ecc71" stroke-width="2" fill="none" marker-end="url(#arr)" opacity="0.88"/>
<path d="M809.3,268.0 C633.6,268.0 522.6,568.0 346.9,568.0" stroke="#2ecc71" stroke-width="2" fill="none" marker-end="url(#arr)" opacity="0.88"/>
<path d="M1010.8,324.0 C1117.8,324.0 1185.4,268.0 1292.4,268.0" stroke="#2ecc71" stroke-width="2" fill="none" marker-end="url(#arr)" opacity="0.88"/>
<path d="M928.2,348.0 C928.2,351.0 928.2,353.0 928.2,356.0" stroke="#2ecc71" stroke-width="2" fill="none" marker-end="url(#arr)" opacity="0.88"/>
<path d="M1010.8,324.0 C1117.8,324.0 1185.4,212.0 1292.4,212.0" stroke="#2ecc71" stroke-width="2" fill="none" marker-end="url(#arr)" opacity="0.88"/>
<path d="M845.6,324.0 C845.6,296.0 785.3,278.4 785.3,250.4" stroke="#2ecc71" stroke-width="2" fill="none" marker-end="url(#arr)" opacity="0.88"/>
<path d="M845.6,324.0 C656.1,324.0 536.4,432.6 346.9,432.6" stroke="#2ecc71" stroke-width="2" fill="none" marker-end="url(#arr)" opacity="0.88"/>
<path d="M1010.8,324.0 C1218.7,324.0 1350.1,212.0 1558.1,212.0" stroke="#2ecc71" stroke-width="2" fill="none" marker-end="url(#arr)" opacity="0.88"/>
<path d="M845.6,324.0 C646.9,324.0 521.4,240.0 322.7,240.0" stroke="#2ecc71" stroke-width="2" fill="none" marker-end="url(#arr)" opacity="0.88"/>
<path d="M1010.8,324.0 C1117.8,324.0 1185.4,324.0 1292.4,324.0" stroke="#2ecc71" stroke-width="2" fill="none" marker-end="url(#arr)" opacity="0.88"/>
<path d="M845.6,324.0 C646.9,324.0 521.4,296.0 322.7,296.0" stroke="#2ecc71" stroke-width="2" fill="none" marker-end="url(#arr)" opacity="0.88"/>
<path d="M845.6,324.0 C656.1,324.0 536.4,477.7 346.9,477.7" stroke="#2ecc71" stroke-width="2" fill="none" marker-end="url(#arr)" opacity="0.88"/>
<path d="M845.6,324.0 C656.1,324.0 536.4,522.9 346.9,522.9" stroke="#2ecc71" stroke-width="2" fill="none" marker-end="url(#arr)" opacity="0.88"/>
<path d="M845.6,324.0 C656.1,324.0 536.4,568.0 346.9,568.0" stroke="#2ecc71" stroke-width="2" fill="none" marker-end="url(#arr)" opacity="0.88"/>
<path d="M1010.8,324.0 C1117.8,324.0 1185.4,380.0 1292.4,380.0" stroke="#2ecc71" stroke-width="2" fill="none" marker-end="url(#arr)" opacity="0.88"/>
<path d="M845.6,324.0 C651.5,324.0 528.9,352.0 334.8,352.0" stroke="#2ecc71" stroke-width="2" fill="none" marker-end="url(#arr)" opacity="0.88"/>
<path d="M845.6,324.0 C656.1,324.0 536.4,658.3 346.9,658.3" stroke="#2ecc71" stroke-width="2" fill="none" marker-end="url(#arr)" opacity="0.88"/>
<path d="M845.6,324.0 C845.6,278.7 781.3,250.1 781.3,204.8" stroke="#2ecc71" stroke-width="2" fill="none" marker-end="url(#arr)" opacity="0.88"/>
<path d="M845.6,324.0 C656.1,324.0 536.4,703.4 346.9,703.4" stroke="#2ecc71" stroke-width="2" fill="none" marker-end="url(#arr)" opacity="0.88"/>
<path d="M264.4,684.9 C264.4,647.5 264.4,623.9 264.4,586.6" stroke="#f4d03f" stroke-width="2" fill="none" marker-end="url(#arr)" opacity="0.88"/>
<path d="M1047.0,380.0 C1140.3,380.0 1199.2,268.0 1292.4,268.0" stroke="#2ecc71" stroke-width="2" fill="none" marker-end="url(#arr)" opacity="0.88"/>
<path d="M1047.0,380.0 C1241.2,380.0 1363.9,212.0 1558.1,212.0" stroke="#2ecc71" stroke-width="2" fill="none" marker-end="url(#arr)" opacity="0.88"/>
<path d="M809.3,380.0 C633.6,380.0 522.6,658.3 346.9,658.3" stroke="#2ecc71" stroke-width="2" fill="none" marker-end="url(#arr)" opacity="0.88"/>
<path d="M809.3,380.0 C809.3,330.8 785.3,299.6 785.3,250.4" stroke="#2ecc71" stroke-width="2" fill="none" marker-end="url(#arr)" opacity="0.88"/>
<path d="M809.3,380.0 C633.6,380.0 522.6,432.6 346.9,432.6" stroke="#2ecc71" stroke-width="2" fill="none" marker-end="url(#arr)" opacity="0.88"/>
<path d="M1047.0,380.0 C1140.3,380.0 1199.2,324.0 1292.4,324.0" stroke="#2ecc71" stroke-width="2" fill="none" marker-end="url(#arr)" opacity="0.88"/>
<path d="M809.3,380.0 C809.3,313.4 781.3,271.4 781.3,204.8" stroke="#2ecc71" stroke-width="2" fill="none" marker-end="url(#arr)" opacity="0.88"/>
<path d="M809.3,380.0 C624.4,380.0 507.6,296.0 322.7,296.0" stroke="#2ecc71" stroke-width="2" fill="none" marker-end="url(#arr)" opacity="0.88"/>
<path d="M809.3,380.0 C633.6,380.0 522.6,522.9 346.9,522.9" stroke="#2ecc71" stroke-width="2" fill="none" marker-end="url(#arr)" opacity="0.88"/>
<path d="M809.3,380.0 C633.6,380.0 522.6,477.7 346.9,477.7" stroke="#2ecc71" stroke-width="2" fill="none" marker-end="url(#arr)" opacity="0.88"/>
<path d="M1047.0,380.0 C1140.3,380.0 1199.2,212.0 1292.4,212.0" stroke="#2ecc71" stroke-width="2" fill="none" marker-end="url(#arr)" opacity="0.88"/>
<path d="M809.3,380.0 C624.4,380.0 507.6,240.0 322.7,240.0" stroke="#2ecc71" stroke-width="2" fill="none" marker-end="url(#arr)" opacity="0.88"/>
<path d="M809.3,380.0 C633.6,380.0 522.6,703.4 346.9,703.4" stroke="#2ecc71" stroke-width="2" fill="none" marker-end="url(#arr)" opacity="0.88"/>
<path d="M809.3,380.0 C633.6,380.0 522.6,568.0 346.9,568.0" stroke="#2ecc71" stroke-width="2" fill="none" marker-end="url(#arr)" opacity="0.88"/>
<path d="M588.1,110.0 C588.1,180.7 616.2,225.3 616.2,296.0" stroke="#e74c3c" stroke-width="2" fill="none" marker-end="url(#arr)" opacity="0.88"/>
<path d="M588.1,110.0 C956.7,110.0 1189.5,212.0 1558.1,212.0" stroke="#e74c3c" stroke-width="2" fill="none" marker-end="url(#arr)" opacity="0.88"/>
<path d="M485.4,130.0 C485.4,323.7 264.4,446.0 264.4,639.7" stroke="#e74c3c" stroke-width="2" fill="none" marker-end="url(#arr)" opacity="0.88"/>
<path d="M588.1,110.0 C588.1,163.4 612.1,197.0 612.1,250.4" stroke="#e74c3c" stroke-width="2" fill="none" marker-end="url(#arr)" opacity="0.88"/>
<path d="M485.4,130.0 C485.4,237.9 264.4,306.1 264.4,414.0" stroke="#e74c3c" stroke-width="2" fill="none" marker-end="url(#arr)" opacity="0.88"/>
<path d="M588.1,110.0 C588.1,146.0 616.2,168.8 616.2,204.8" stroke="#e74c3c" stroke-width="2" fill="none" marker-end="url(#arr)" opacity="0.88"/>
<path d="M382.7,110.0 C382.7,159.4 322.7,190.6 322.7,240.0" stroke="#e74c3c" stroke-width="2" fill="none" marker-end="url(#arr)" opacity="0.88"/>
<path d="M485.4,130.0 C485.4,272.2 264.4,362.1 264.4,504.3" stroke="#e74c3c" stroke-width="2" fill="none" marker-end="url(#arr)" opacity="0.88"/>
<path d="M485.4,130.0 C485.4,340.8 264.4,474.0 264.4,684.9" stroke="#e74c3c" stroke-width="2" fill="none" marker-end="url(#arr)" opacity="0.88"/>
<path d="M382.7,110.0 C382.7,180.7 322.7,225.3 322.7,296.0" stroke="#e74c3c" stroke-width="2" fill="none" marker-end="url(#arr)" opacity="0.88"/>
<path d="M588.1,158.0 C588.1,210.4 616.2,243.6 616.2,296.0" stroke="#e74c3c" stroke-width="2" fill="none" marker-end="url(#arr)" opacity="0.88"/>
<path d="M588.1,158.0 C956.7,158.0 1189.5,212.0 1558.1,212.0" stroke="#e74c3c" stroke-width="2" fill="none" marker-end="url(#arr)" opacity="0.88"/>
<path d="M485.4,178.0 C485.4,353.5 264.4,464.3 264.4,639.7" stroke="#e74c3c" stroke-width="2" fill="none" marker-end="url(#arr)" opacity="0.88"/>
<path d="M588.1,158.0 C588.1,193.1 612.1,215.3 612.1,250.4" stroke="#e74c3c" stroke-width="2" fill="none" marker-end="url(#arr)" opacity="0.88"/>
<path d="M485.4,178.0 C485.4,267.7 264.4,324.3 264.4,414.0" stroke="#e74c3c" stroke-width="2" fill="none" marker-end="url(#arr)" opacity="0.88"/>
<path d="M588.1,158.0 C588.1,175.8 616.2,187.0 616.2,204.8" stroke="#e74c3c" stroke-width="2" fill="none" marker-end="url(#arr)" opacity="0.88"/>
<path d="M382.7,158.0 C382.7,189.2 322.7,208.8 322.7,240.0" stroke="#e74c3c" stroke-width="2" fill="none" marker-end="url(#arr)" opacity="0.88"/>
<path d="M485.4,178.0 C485.4,302.0 264.4,380.3 264.4,504.3" stroke="#e74c3c" stroke-width="2" fill="none" marker-end="url(#arr)" opacity="0.88"/>
<path d="M485.4,178.0 C485.4,370.6 264.4,492.3 264.4,684.9" stroke="#e74c3c" stroke-width="2" fill="none" marker-end="url(#arr)" opacity="0.88"/>
<path d="M382.7,158.0 C382.7,210.4 322.7,243.6 322.7,296.0" stroke="#e74c3c" stroke-width="2" fill="none" marker-end="url(#arr)" opacity="0.88"/>
<path d="M781.3,387.2 C975.5,387.2 1098.2,212.0 1292.4,212.0" stroke="#3498db" stroke-width="2" fill="none" marker-end="url(#arr)" opacity="0.88"/>
<path d="M781.3,387.2 C975.5,387.2 1098.2,268.0 1292.4,268.0" stroke="#3498db" stroke-width="2" fill="none" marker-end="url(#arr)" opacity="0.88"/>
<path d="M781.3,387.2 C1076.5,387.2 1262.9,212.0 1558.1,212.0" stroke="#3498db" stroke-width="2" fill="none" marker-end="url(#arr)" opacity="0.88"/>
<path d="M616.2,387.2 C504.7,387.2 434.2,240.0 322.7,240.0" stroke="#3498db" stroke-width="2" fill="none" marker-end="url(#arr)" opacity="0.88"/>
<path d="M781.3,387.2 C975.5,387.2 1098.2,324.0 1292.4,324.0" stroke="#3498db" stroke-width="2" fill="none" marker-end="url(#arr)" opacity="0.88"/>
<path d="M616.2,387.2 C504.7,387.2 434.2,296.0 322.7,296.0" stroke="#3498db" stroke-width="2" fill="none" marker-end="url(#arr)" opacity="0.88"/>
<path d="M616.2,387.2 C513.9,387.2 449.2,477.7 346.9,477.7" stroke="#3498db" stroke-width="2" fill="none" marker-end="url(#arr)" opacity="0.88"/>
<path d="M616.2,387.2 C513.9,387.2 449.2,522.9 346.9,522.9" stroke="#3498db" stroke-width="2" fill="none" marker-end="url(#arr)" opacity="0.88"/>
<path d="M616.2,387.2 C513.9,387.2 449.2,568.0 346.9,568.0" stroke="#3498db" stroke-width="2" fill="none" marker-end="url(#arr)" opacity="0.88"/>
<path d="M616.2,387.2 C509.3,387.2 441.7,352.0 334.8,352.0" stroke="#3498db" stroke-width="2" fill="none" marker-end="url(#arr)" opacity="0.88"/>
<path d="M616.2,387.2 C616.2,490.2 346.9,555.3 346.9,658.3" stroke="#3498db" stroke-width="2" fill="none" marker-end="url(#arr)" opacity="0.88"/>
<path d="M616.2,387.2 C616.2,507.4 346.9,583.3 346.9,703.4" stroke="#3498db" stroke-width="2" fill="none" marker-end="url(#arr)" opacity="0.88"/>
<path d="M698.7,368.4 C698.7,330.7 698.7,306.9 698.7,269.2" stroke="#3498db" stroke-width="2" fill="none" marker-end="url(#arr)" opacity="0.88"/>
<path d="M616.2,387.2 C513.9,387.2 449.2,432.6 346.9,432.6" stroke="#3498db" stroke-width="2" fill="none" marker-end="url(#arr)" opacity="0.88"/>
<path d="M698.7,368.4 C698.7,313.4 698.7,278.6 698.7,223.6" stroke="#3498db" stroke-width="2" fill="none" marker-end="url(#arr)" opacity="0.88"/>
<rect x="616.2" y="186.0" width="165.1" height="37.6" rx="6.0" fill="#3498db" stroke="#fff" stroke-width="1"/>
<text x="698.7" y="201.8" text-anchor="middle" font-weight="bold" font-size="15.0" fill="#222">mycpu</text>
<text x="698.7" y="215.3" text-anchor="middle" fill="#555" font-size="13.0">kernel/sched/proc.c</text>
<rect x="612.1" y="231.6" width="173.2" height="37.6" rx="6.0" fill="#3498db" stroke="#fff" stroke-width="1"/>
<text x="698.7" y="247.4" text-anchor="middle" font-weight="bold" font-size="15.0" fill="#222">cpuid</text>
<text x="698.7" y="260.9" text-anchor="middle" fill="#555" font-size="13.0">include/sched/proc.h</text>
<rect x="181.8" y="414.0" width="165.1" height="37.1" rx="6.0" fill="#f4d03f" stroke="#fff" stroke-width="1"/>
<text x="264.4" y="429.6" text-anchor="middle" font-weight="bold" font-size="15.0" fill="#222">r_tp</text>
<text x="264.4" y="443.0" text-anchor="middle" fill="#555" font-size="13.0">include/hal/riscv.h</text>
<rect x="616.2" y="277.2" width="165.1" height="37.6" rx="6.0" fill="#3498db" stroke="#fff" stroke-width="1"/>
<text x="698.7" y="293.0" text-anchor="middle" font-weight="bold" font-size="15.0" fill="#222">myproc</text>
<text x="698.7" y="306.5" text-anchor="middle" fill="#555" font-size="13.0">kernel/sched/proc.c</text>
<rect x="1292.4" y="188.0" width="189.3" height="48.0" rx="6.0" fill="#e67e22" stroke="#fff" stroke-width="1"/>
<text x="1387.1" y="205.0" text-anchor="middle" font-weight="bold" font-size="15.0" fill="#222">release</text>
<text x="1387.1" y="220.0" text-anchor="middle" fill="#555" font-size="13.0">kernel/sync/spinlock.c</text>
<rect x="1292.4" y="244.0" width="189.3" height="48.0" rx="6.0" fill="#e67e22" stroke="#fff" stroke-width="1"/>
<text x="1387.1" y="261.0" text-anchor="middle" font-weight="bold" font-size="15.0" fill="#222">acquire</text>
<text x="1387.1" y="276.0" text-anchor="middle" fill="#555" font-size="13.0">kernel/sync/spinlock.c</text>
<rect x="1558.1" y="188.0" width="132.9" height="48.0" rx="6.0" fill="#95a5a6" stroke="#fff" stroke-width="1"/>
<text x="1624.6" y="205.0" text-anchor="middle" font-weight="bold" font-size="15.0" fill="#222">printf</text>
<text x="1624.6" y="220.0" text-anchor="middle" fill="#555" font-size="13.0">kernel/printf.c</text>
<rect x="206.0" y="216.0" width="116.8" height="48.0" rx="6.0" fill="#f4d03f" stroke="#fff" stroke-width="1"/>
<text x="264.4" y="233.0" text-anchor="middle" font-weight="bold" font-size="15.0" fill="#222">pop_off</text>
<text x="264.4" y="248.0" text-anchor="middle" fill="#555" font-size="13.0">kernel/intr.c</text>
<rect x="1292.4" y="300.0" width="189.3" height="48.0" rx="6.0" fill="#e67e22" stroke="#fff" stroke-width="1"/>
<text x="1387.1" y="317.0" text-anchor="middle" font-weight="bold" font-size="15.0" fill="#222">holding</text>
<text x="1387.1" y="332.0" text-anchor="middle" fill="#555" font-size="13.0">kernel/sync/spinlock.c</text>
<rect x="206.0" y="272.0" width="116.8" height="48.0" rx="6.0" fill="#f4d03f" stroke="#fff" stroke-width="1"/>
<text x="264.4" y="289.0" text-anchor="middle" font-weight="bold" font-size="15.0" fill="#222">push_off</text>
<text x="264.4" y="304.0" text-anchor="middle" fill="#555" font-size="13.0">kernel/intr.c</text>
<rect x="1533.9" y="244.0" width="181.3" height="48.0" rx="6.0" fill="#95a5a6" stroke="#fff" stroke-width="1"/>
<text x="1624.6" y="261.0" text-anchor="middle" font-weight="bold" font-size="15.0" fill="#222">memset</text>
<text x="1624.6" y="276.0" text-anchor="middle" fill="#555" font-size="13.0">kernel/utils/string.c</text>
<rect x="181.8" y="459.1" width="165.1" height="37.1" rx="6.0" fill="#f4d03f" stroke="#fff" stroke-width="1"/>
<text x="264.4" y="474.7" text-anchor="middle" font-weight="bold" font-size="15.0" fill="#222">r_sstatus</text>
<text x="264.4" y="488.1" text-anchor="middle" fill="#555" font-size="13.0">include/hal/riscv.h</text>
<rect x="1505.7" y="300.0" width="237.7" height="48.0" rx="6.0" fill="#95a5a6" stroke="#fff" stroke-width="1"/>
<text x="1624.6" y="317.0" text-anchor="middle" font-weight="bold" font-size="15.0" fill="#222">container_of</text>
<text x="1624.6" y="332.0" text-anchor="middle" fill="#555" font-size="13.0">宏（#define） · include/types.h</text>
<rect x="181.8" y="504.3" width="165.1" height="37.1" rx="6.0" fill="#f4d03f" stroke="#fff" stroke-width="1"/>
<text x="264.4" y="519.9" text-anchor="middle" font-weight="bold" font-size="15.0" fill="#222">intr_get</text>
<text x="264.4" y="533.3" text-anchor="middle" fill="#555" font-size="13.0">include/hal/riscv.h</text>
<rect x="845.6" y="188.0" width="165.1" height="48.0" rx="6.0" fill="#2ecc71" stroke="#fff" stroke-width="1"/>
<text x="928.2" y="205.0" text-anchor="middle" font-weight="bold" font-size="15.0" fill="#222">kfree</text>
<text x="928.2" y="220.0" text-anchor="middle" fill="#555" font-size="13.0">kernel/mm/kmalloc.c</text>
<rect x="616.2" y="322.8" width="165.1" height="37.6" rx="6.0" fill="#3498db" stroke="#fff" stroke-width="1"/>
<text x="698.7" y="338.6" text-anchor="middle" font-weight="bold" font-size="15.0" fill="#222">exit</text>
<text x="698.7" y="352.1" text-anchor="middle" fill="#555" font-size="13.0">kernel/sched/proc.c</text>
<rect x="181.8" y="549.4" width="165.1" height="37.1" rx="6.0" fill="#f4d03f" stroke="#fff" stroke-width="1"/>
<text x="264.4" y="565.0" text-anchor="middle" font-weight="bold" font-size="15.0" fill="#222">set_sstatus_bit</text>
<text x="264.4" y="578.4" text-anchor="middle" fill="#555" font-size="13.0">include/hal/riscv.h</text>
<rect x="1292.4" y="356.0" width="189.3" height="48.0" rx="6.0" fill="#e67e22" stroke="#fff" stroke-width="1"/>
<text x="1387.1" y="373.0" text-anchor="middle" font-weight="bold" font-size="15.0" fill="#222">initlock</text>
<text x="1387.1" y="388.0" text-anchor="middle" fill="#555" font-size="13.0">kernel/sync/spinlock.c</text>
<rect x="170.0" y="594.6" width="188.7" height="37.1" rx="6.0" fill="#f4d03f" stroke="#fff" stroke-width="1"/>
<text x="264.4" y="610.2" text-anchor="middle" font-weight="bold" font-size="15.0" fill="#222">sbi_console_putchar</text>
<text x="264.4" y="623.5" text-anchor="middle" fill="#555" font-size="13.0">include/sbi.h</text>
<rect x="1071.0" y="272.0" width="197.4" height="48.0" rx="6.0" fill="#9b59b6" stroke="#fff" stroke-width="1"/>
<text x="1169.7" y="289.0" text-anchor="middle" font-weight="bold" font-size="15.0" fill="#222">sb2fat</text>
<text x="1169.7" y="304.0" text-anchor="middle" fill="#555" font-size="13.0">kernel/fs/fat32/fat32.h</text>
<rect x="193.9" y="328.0" width="141.0" height="48.0" rx="6.0" fill="#f4d03f" stroke="#fff" stroke-width="1"/>
<text x="264.4" y="345.0" text-anchor="middle" font-weight="bold" font-size="15.0" fill="#222">consputc</text>
<text x="264.4" y="360.0" text-anchor="middle" fill="#555" font-size="13.0">kernel/console.c</text>
<rect x="181.8" y="639.7" width="165.1" height="37.1" rx="6.0" fill="#f4d03f" stroke="#fff" stroke-width="1"/>
<text x="264.4" y="655.3" text-anchor="middle" font-weight="bold" font-size="15.0" fill="#222">clr_sstatus_bit</text>
<text x="264.4" y="668.7" text-anchor="middle" fill="#555" font-size="13.0">include/hal/riscv.h</text>
<rect x="809.3" y="244.0" width="237.7" height="48.0" rx="6.0" fill="#2ecc71" stroke="#fff" stroke-width="1"/>
<text x="928.2" y="261.0" text-anchor="middle" font-weight="bold" font-size="15.0" fill="#222">freepage</text>
<text x="928.2" y="276.0" text-anchor="middle" fill="#555" font-size="13.0">宏（#define） · include/mm/pm.h</text>
<rect x="845.6" y="300.0" width="165.1" height="48.0" rx="6.0" fill="#2ecc71" stroke="#fff" stroke-width="1"/>
<text x="928.2" y="317.0" text-anchor="middle" font-weight="bold" font-size="15.0" fill="#222">kmalloc</text>
<text x="928.2" y="332.0" text-anchor="middle" fill="#555" font-size="13.0">kernel/mm/kmalloc.c</text>
<rect x="181.8" y="684.9" width="165.1" height="37.1" rx="6.0" fill="#f4d03f" stroke="#fff" stroke-width="1"/>
<text x="264.4" y="700.5" text-anchor="middle" font-weight="bold" font-size="15.0" fill="#222">intr_on</text>
<text x="264.4" y="713.8" text-anchor="middle" fill="#555" font-size="13.0">include/hal/riscv.h</text>
<rect x="1533.9" y="356.0" width="181.3" height="48.0" rx="6.0" fill="#95a5a6" stroke="#fff" stroke-width="1"/>
<text x="1624.6" y="373.0" text-anchor="middle" font-weight="bold" font-size="15.0" fill="#222">memmove</text>
<text x="1624.6" y="388.0" text-anchor="middle" fill="#555" font-size="13.0">kernel/utils/string.c</text>
<rect x="809.3" y="356.0" width="237.7" height="48.0" rx="6.0" fill="#2ecc71" stroke="#fff" stroke-width="1"/>
<text x="928.2" y="373.0" text-anchor="middle" font-weight="bold" font-size="15.0" fill="#222">allocpage</text>
<text x="928.2" y="388.0" text-anchor="middle" fill="#555" font-size="13.0">宏（#define） · include/mm/pm.h</text>
<rect x="382.7" y="90.0" width="205.4" height="40.0" rx="6.0" fill="#e74c3c" stroke="#fff" stroke-width="1"/>
<text x="485.4" y="106.8" text-anchor="middle" font-weight="bold" font-size="15.0" fill="#222">argaddr</text>
<text x="485.4" y="121.2" text-anchor="middle" fill="#555" font-size="13.0">kernel/syscall/syscall.c</text>
<rect x="382.7" y="138.0" width="205.4" height="40.0" rx="6.0" fill="#e74c3c" stroke="#fff" stroke-width="1"/>
<text x="485.4" y="154.8" text-anchor="middle" font-weight="bold" font-size="15.0" fill="#222">argint</text>
<text x="485.4" y="169.2" text-anchor="middle" fill="#555" font-size="13.0">kernel/syscall/syscall.c</text>
<rect x="616.2" y="368.4" width="165.1" height="37.6" rx="6.0" fill="#3498db" stroke="#fff" stroke-width="1"/>
<text x="698.7" y="384.2" text-anchor="middle" font-weight="bold" font-size="15.0" fill="#222">wakeup</text>
<text x="698.7" y="397.7" text-anchor="middle" fill="#555" font-size="13.0">kernel/sched/proc.c</text>
</svg>