<svg width="1931.3400000000001" height="974.0" xmlns="http://www.w3.org/2000/svg" font-family='system-ui, -apple-system, "Segoe UI", Roboto, "Helvetica Neue", Arial, "PingFang SC", "Microsoft YaHei", sans-serif' font-size='13'>
<defs><marker id="arr" markerWidth="10" markerHeight="10" refX="9" refY="3.5" orient="auto" markerUnits="userSpaceOnUse"><path d="M0,0 L0,7 L10,3.5 z" fill="#444"/></marker></defs>
<rect width="1931.3400000000001" height="974.0" fill="#fafafa"/>
<line x1="142.0" y1="46.0" x2="1911.3400000000001" y2="46.0" stroke="#ddd" stroke-width="1"/>
<line x1="142.0" y1="186.0" x2="1911.3400000000001" y2="186.0" stroke="#ddd" stroke-width="1"/>
<line x1="142.0" y1="282.0" x2="1911.3400000000001" y2="282.0" stroke="#ddd" stroke-width="1"/>
<line x1="142.0" y1="554.0" x2="1911.3400000000001" y2="554.0" stroke="#ddd" stroke-width="1"/>
<line x1="142.0" y1="914.0" x2="1911.3400000000001" y2="914.0" stroke="#ddd" stroke-width="1"/>
<line x1="142.0" y1="954.0" x2="1911.3400000000001" y2="954.0" stroke="#ddd" stroke-width="1"/>
<line x1="158.0" y1="46.0" x2="158.0" y2="954.0" stroke="#ddd" stroke-width="1"/>
<line x1="370.7" y1="46.0" x2="370.7" y2="954.0" stroke="#ddd" stroke-width="1"/>
<line x1="600.1" y1="46.0" x2="600.1" y2="954.0" stroke="#ddd" stroke-width="1"/>
<line x1="789.3" y1="46.0" x2="789.3" y2="954.0" stroke="#ddd" stroke-width="1"/>
<line x1="1051.0" y1="46.0" x2="1051.0" y2="954.0" stroke="#ddd" stroke-width="1"/>
<line x1="1272.3" y1="46.0" x2="1272.3" y2="954.0" stroke="#ddd" stroke-width="1"/>
<line x1="1485.7" y1="46.0" x2="1485.7" y2="954.0" stroke="#ddd" stroke-width="1"/>
<line x1="1747.3" y1="46.0" x2="1747.3" y2="954.0" stroke="#ddd" stroke-width="1"/>
<line x1="1829.3" y1="46.0" x2="1829.3" y2="954.0" stroke="#ddd" stroke-width="1"/>
<line x1="1911.3" y1="46.0" x2="1911.3" y2="954.0" stroke="#ddd" stroke-width="1"/>
<text x="137.0" y="121.0" text-anchor="end" fill="#111827" font-size="12" font-weight="600">userspace</text>
<text x="137.0" y="239.0" text-anchor="end" fill="#111827" font-size="12" font-weight="600">syscall_boundary</text>
<text x="137.0" y="423.0" text-anchor="end" fill="#111827" font-size="12" font-weight="600">kernel</text>
<text x="137.0" y="739.0" text-anchor="end" fill="#111827" font-size="12" font-weight="600">hardware</text>
<text x="137.0" y="939.0" text-anchor="end" fill="#111827" font-size="12" font-weight="600">unknown</text>
<text text-anchor="middle" font-size="13" font-weight="600" fill="#111827"><tspan x="264.4" y="19.0">arch</tspan><tspan x="264.4" dy="12.0">platform</tspan></text>
<text text-anchor="middle" font-size="13" font-weight="600" fill="#111827"><tspan x="485.4" y="19.0">trap</tspan><tspan x="485.4" dy="12.0">syscall</tspan></text>
<text text-anchor="middle" font-size="13" font-weight="600" fill="#111827"><tspan x="694.7" y="19.0">process</tspan><tspan x="694.7" dy="12.0">sched</tspan></text>
<text text-anchor="middle" font-size="13" font-weight="600" fill="#111827"><tspan x="920.1" y="19.0">memory</tspan><tspan x="920.1" dy="12.0">vm</tspan></text>
<text text-anchor="middle" font-size="13" font-weight="600" fill="#111827"><tspan x="1161.7" y="19.0">fs</tspan><tspan x="1161.7" dy="12.0">storage</tspan></text>
<text text-anchor="middle" font-size="13" font-weight="600" fill="#111827"><tspan x="1379.0" y="19.0">sync</tspan><tspan x="1379.0" dy="12.0">ipc</tspan></text>
<text text-anchor="middle" font-size="13" font-weight="600" fill="#111827"><tspan x="1616.5" y="19.0">runtime</tspan><tspan x="1616.5" dy="12.0">common</tspan></text>
<text text-anchor="middle" font-size="12" font-weight="600" fill="#111827"><tspan x="1788.3" y="19.0">user</tspan><tspan x="1788.3" dy="12.0">programs</tspan></text>
<text x="1870.3" y="30.0" text-anchor="middle" font-size="12" font-weight="600" fill="#111827">unknown</text>
<path d="M612.1,304.7 C612.1,408.0 351.0,473.2 351.0,576.5" stroke="#3498db" stroke-width="2" fill="none" marker-end="url(#arr)" opacity="0.88"/>
<path d="M612.1,304.7 C612.1,425.1 346.9,501.1 346.9,621.5" stroke="#3498db" stroke-width="2" fill="none" marker-end="url(#arr)" opacity="0.88"/>
<path d="M264.4,595.0 C264.4,598.0 264.4,600.0 264.4,603.0" stroke="#f4d03f" stroke-width="2" fill="none" marker-end="url(#arr)" opacity="0.88"/>
<path d="M694.7,368.7 C694.7,388.9 694.7,401.7 694.7,422.0" stroke="#3498db" stroke-width="2" fill="none" marker-end="url(#arr)" opacity="0.88"/>
<path d="M694.7,331.3 C694.7,328.3 694.7,326.4 694.7,323.3" stroke="#3498db" stroke-width="2" fill="none" marker-end="url(#arr)" opacity="0.88"/>
<path d="M694.7,368.7 C694.7,371.7 694.7,373.6 694.7,376.7" stroke="#3498db" stroke-width="2" fill="none" marker-end="url(#arr)" opacity="0.88"/>
<path d="M612.1,350.0 C512.9,350.0 450.2,576.5 351.0,576.5" stroke="#3498db" stroke-width="2" fill="none" marker-end="url(#arr)" opacity="0.88"/>
<path d="M612.1,350.0 C612.1,453.2 346.9,518.3 346.9,621.5" stroke="#3498db" stroke-width="2" fill="none" marker-end="url(#arr)" opacity="0.88"/>
<path d="M612.1,350.0 C612.1,470.3 346.9,546.2 346.9,666.5" stroke="#3498db" stroke-width="2" fill="none" marker-end="url(#arr)" opacity="0.88"/>
<path d="M612.1,350.0 C612.1,487.4 346.9,574.1 346.9,711.5" stroke="#3498db" stroke-width="2" fill="none" marker-end="url(#arr)" opacity="0.88"/>
<path d="M612.1,350.0 C612.1,504.5 346.9,602.0 346.9,756.5" stroke="#3498db" stroke-width="2" fill="none" marker-end="url(#arr)" opacity="0.88"/>
<path d="M694.7,368.7 C694.7,543.2 264.4,653.5 264.4,828.0" stroke="#3498db" stroke-width="2" fill="none" marker-end="url(#arr)" opacity="0.88"/>
<path d="M694.7,368.7 C694.7,560.3 264.4,681.4 264.4,873.0" stroke="#3498db" stroke-width="2" fill="none" marker-end="url(#arr)" opacity="0.88"/>
<path d="M1379.0,358.0 C1379.0,382.3 1379.0,397.7 1379.0,422.0" stroke="#e67e22" stroke-width="2" fill="none" marker-end="url(#arr)" opacity="0.88"/>
<path d="M1284.3,334.0 C1082.5,334.0 955.0,395.3 753.1,395.3" stroke="#e67e22" stroke-width="2" fill="none" marker-end="url(#arr)" opacity="0.88"/>
<path d="M1284.3,334.0 C929.7,334.0 705.6,576.5 351.0,576.5" stroke="#e67e22" stroke-width="2" fill="none" marker-end="url(#arr)" opacity="0.88"/>
<path d="M1284.3,334.0 C928.1,334.0 703.1,621.5 346.9,621.5" stroke="#e67e22" stroke-width="2" fill="none" marker-end="url(#arr)" opacity="0.88"/>
<path d="M1284.3,334.0 C1091.7,334.0 970.0,304.7 777.3,304.7" stroke="#e67e22" stroke-width="2" fill="none" marker-end="url(#arr)" opacity="0.88"/>
<path d="M1379.0,310.0 C1469.2,310.0 1526.2,88.7 1616.5,88.7" stroke="#e67e22" stroke-width="2" fill="none" marker-end="url(#arr)" opacity="0.88"/>
<path d="M1284.3,334.0 C928.1,334.0 703.1,666.5 346.9,666.5" stroke="#e67e22" stroke-width="2" fill="none" marker-end="url(#arr)" opacity="0.88"/>
<path d="M1284.3,334.0 C928.1,334.0 703.1,711.5 346.9,711.5" stroke="#e67e22" stroke-width="2" fill="none" marker-end="url(#arr)" opacity="0.88"/>
<path d="M1284.3,334.0 C928.1,334.0 703.1,756.5 346.9,756.5" stroke="#e67e22" stroke-width="2" fill="none" marker-end="url(#arr)" opacity="0.88"/>
<path d="M1284.3,334.0 C928.1,334.0 703.1,891.5 346.9,891.5" stroke="#e67e22" stroke-width="2" fill="none" marker-end="url(#arr)" opacity="0.88"/>
<path d="M1284.3,390.0 C1082.5,390.0 955.0,440.7 753.1,440.7" stroke="#e67e22" stroke-width="2" fill="none" marker-end="url(#arr)" opacity="0.88"/>
<path d="M1379.0,414.0 C1379.0,417.0 1379.0,419.0 1379.0,422.0" stroke="#e67e22" stroke-width="2" fill="none" marker-end="url(#arr)" opacity="0.88"/>
<path d="M1284.3,390.0 C1091.7,390.0 970.0,304.7 777.3,304.7" stroke="#e67e22" stroke-width="2" fill="none" marker-end="url(#arr)" opacity="0.88"/>
<path d="M1284.3,390.0 C929.7,390.0 705.6,576.5 351.0,576.5" stroke="#e67e22" stroke-width="2" fill="none" marker-end="url(#arr)" opacity="0.88"/>
<path d="M1284.3,390.0 C928.1,390.0 703.1,621.5 346.9,621.5" stroke="#e67e22" stroke-width="2" fill="none" marker-end="url(#arr)" opacity="0.88"/>
<path d="M1379.0,366.0 C1379.0,260.6 1616.5,194.1 1616.5,88.7" stroke="#e67e22" stroke-width="2" fill="none" marker-end="url(#arr)" opacity="0.88"/>
<path d="M1284.3,390.0 C928.1,390.0 703.1,666.5 346.9,666.5" stroke="#e67e22" stroke-width="2" fill="none" marker-end="url(#arr)" opacity="0.88"/>
<path d="M1284.3,390.0 C928.1,390.0 703.1,711.5 346.9,711.5" stroke="#e67e22" stroke-width="2" fill="none" marker-end="url(#arr)" opacity="0.88"/>
<path d="M1284.3,390.0 C928.1,390.0 703.1,846.5 346.9,846.5" stroke="#e67e22" stroke-width="2" fill="none" marker-end="url(#arr)" opacity="0.88"/>
<path d="M1616.5,88.7 C1616.5,194.1 1379.0,260.6 1379.0,366.0" stroke="#95a5a6" stroke-width="2" fill="none" marker-end="url(#arr)" opacity="0.88"/>
<path d="M1542.0,69.3 C1083.3,69.3 793.6,418.0 334.8,418.0" stroke="#95a5a6" stroke-width="2" fill="none" marker-end="url(#arr)" opacity="0.88"/>
<path d="M1616.5,88.7 C1526.2,88.7 1469.2,310.0 1379.0,310.0" stroke="#95a5a6" stroke-width="2" fill="none" marker-end="url(#arr)" opacity="0.88"/>
<path d="M694.7,376.7 C694.7,356.4 694.7,343.6 694.7,323.3" stroke="#3498db" stroke-width="2" fill="none" marker-end="url(#arr)" opacity="0.88"/>
<path d="M636.3,395.3 C636.3,515.5 346.9,591.4 346.9,711.5" stroke="#3498db" stroke-width="2" fill="none" marker-end="url(#arr)" opacity="0.88"/>
<path d="M694.7,414.0 C694.7,588.4 264.4,698.6 264.4,873.0" stroke="#3498db" stroke-width="2" fill="none" marker-end="url(#arr)" opacity="0.88"/>
<path d="M636.3,395.3 C527.9,395.3 459.4,576.5 351.0,576.5" stroke="#3498db" stroke-width="2" fill="none" marker-end="url(#arr)" opacity="0.88"/>
<path d="M636.3,395.3 C526.3,395.3 456.9,621.5 346.9,621.5" stroke="#3498db" stroke-width="2" fill="none" marker-end="url(#arr)" opacity="0.88"/>
<path d="M636.3,395.3 C526.3,395.3 456.9,666.5 346.9,666.5" stroke="#3498db" stroke-width="2" fill="none" marker-end="url(#arr)" opacity="0.88"/>
<path d="M636.3,395.3 C636.3,532.6 346.9,619.3 346.9,756.5" stroke="#3498db" stroke-width="2" fill="none" marker-end="url(#arr)" opacity="0.88"/>
<path d="M753.1,395.3 C1052.9,395.3 1242.2,69.3 1542.0,69.3" stroke="#3498db" stroke-width="2" fill="none" marker-end="url(#arr)" opacity="0.88"/>
<path d="M1284.3,446.0 C1091.7,446.0 970.0,304.7 777.3,304.7" stroke="#e67e22" stroke-width="2" fill="none" marker-end="url(#arr)" opacity="0.88"/>
<path d="M1284.3,446.0 C929.7,446.0 705.6,576.5 351.0,576.5" stroke="#e67e22" stroke-width="2" fill="none" marker-end="url(#arr)" opacity="0.88"/>
<path d="M1284.3,446.0 C928.1,446.0 703.1,621.5 346.9,621.5" stroke="#e67e22" stroke-width="2" fill="none" marker-end="url(#arr)" opacity="0.88"/>
<path d="M636.3,440.7 C526.3,440.7 456.9,711.5 346.9,711.5" stroke="#3498db" stroke-width="2" fill="none" marker-end="url(#arr)" opacity="0.88"/>
<path d="M694.7,422.0 C694.7,384.5 694.7,360.8 694.7,323.3" stroke="#3498db" stroke-width="2" fill="none" marker-end="url(#arr)" opacity="0.88"/>
<path d="M636.3,440.7 C526.3,440.7 456.9,666.5 346.9,666.5" stroke="#3498db" stroke-width="2" fill="none" marker-end="url(#arr)" opacity="0.88"/>
<path d="M636.3,440.7 C636.3,594.9 346.9,692.3 346.9,846.5" stroke="#3498db" stroke-width="2" fill="none" marker-end="url(#arr)" opacity="0.88"/>
<path d="M636.3,440.7 C527.9,440.7 459.4,576.5 351.0,576.5" stroke="#3498db" stroke-width="2" fill="none" marker-end="url(#arr)" opacity="0.88"/>
<path d="M636.3,440.7 C526.3,440.7 456.9,621.5 346.9,621.5" stroke="#3498db" stroke-width="2" fill="none" marker-end="url(#arr)" opacity="0.88"/>
<path d="M264.4,693.0 C264.4,690.0 264.4,688.0 264.4,685.0" stroke="#f4d03f" stroke-width="2" fill="none" marker-end="url(#arr)" opacity="0.88"/>
<path d="M1002.7,334.0 C1109.7,334.0 1177.3,390.0 1284.3,390.0" stroke="#2ecc71" stroke-width="2" fill="none" marker-end="url(#arr)" opacity="0.88"/>
<path d="M1002.7,334.0 C1207.6,334.0 1337.1,69.3 1542.0,69.3" stroke="#2ecc71" stroke-width="2" fill="none" marker-end="url(#arr)" opacity="0.88"/>
<path d="M920.1,358.0 C920.1,361.0 920.1,363.0 920.1,366.0" stroke="#2ecc71" stroke-width="2" fill="none" marker-end="url(#arr)" opacity="0.88"/>
<path d="M1002.7,334.0 C1109.7,334.0 1177.3,334.0 1284.3,334.0" stroke="#2ecc71" stroke-width="2" fill="none" marker-end="url(#arr)" opacity="0.88"/>
<path d="M837.5,334.0 C652.6,334.0 535.9,576.5 351.0,576.5" stroke="#2ecc71" stroke-width="2" fill="none" marker-end="url(#arr)" opacity="0.88"/>
<path d="M837.5,334.0 C651.1,334.0 533.4,621.5 346.9,621.5" stroke="#2ecc71" stroke-width="2" fill="none" marker-end="url(#arr)" opacity="0.88"/>
<path d="M1002.7,334.0 C1109.7,334.0 1177.3,446.0 1284.3,446.0" stroke="#2ecc71" stroke-width="2" fill="none" marker-end="url(#arr)" opacity="0.88"/>
<path d="M837.5,334.0 C814.6,334.0 800.2,304.7 777.3,304.7" stroke="#2ecc71" stroke-width="2" fill="none" marker-end="url(#arr)" opacity="0.88"/>
<path d="M837.5,334.0 C837.5,374.5 753.1,400.1 753.1,440.7" stroke="#2ecc71" stroke-width="2" fill="none" marker-end="url(#arr)" opacity="0.88"/>
<path d="M837.5,334.0 C651.1,334.0 533.4,711.5 346.9,711.5" stroke="#2ecc71" stroke-width="2" fill="none" marker-end="url(#arr)" opacity="0.88"/>
<path d="M837.5,334.0 C651.1,334.0 533.4,666.5 346.9,666.5" stroke="#2ecc71" stroke-width="2" fill="none" marker-end="url(#arr)" opacity="0.88"/>
<path d="M837.5,334.0 C837.5,528.8 346.9,651.8 346.9,846.5" stroke="#2ecc71" stroke-width="2" fill="none" marker-end="url(#arr)" opacity="0.88"/>
<path d="M1002.7,334.0 C1109.7,334.0 1177.3,502.0 1284.3,502.0" stroke="#2ecc71" stroke-width="2" fill="none" marker-end="url(#arr)" opacity="0.88"/>
<path d="M920.1,358.0 C920.1,382.3 920.1,397.7 920.1,422.0" stroke="#2ecc71" stroke-width="2" fill="none" marker-end="url(#arr)" opacity="0.88"/>
<path d="M837.5,334.0 C805.5,334.0 785.2,395.3 753.1,395.3" stroke="#2ecc71" stroke-width="2" fill="none" marker-end="url(#arr)" opacity="0.88"/>
<path d="M837.5,334.0 C651.1,334.0 533.4,756.5 346.9,756.5" stroke="#2ecc71" stroke-width="2" fill="none" marker-end="url(#arr)" opacity="0.88"/>
<path d="M837.5,334.0 C837.5,545.9 346.9,679.6 346.9,891.5" stroke="#2ecc71" stroke-width="2" fill="none" marker-end="url(#arr)" opacity="0.88"/>
<path d="M920.1,358.0 C920.1,403.6 920.1,432.4 920.1,478.0" stroke="#2ecc71" stroke-width="2" fill="none" marker-end="url(#arr)" opacity="0.88"/>
<path d="M694.7,467.3 C694.7,429.8 694.7,406.2 694.7,368.7" stroke="#3498db" stroke-width="2" fill="none" marker-end="url(#arr)" opacity="0.88"/>
<path d="M612.1,486.0 C512.9,486.0 450.2,576.5 351.0,576.5" stroke="#3498db" stroke-width="2" fill="none" marker-end="url(#arr)" opacity="0.88"/>
<path d="M777.3,486.0 C970.0,486.0 1091.7,390.0 1284.3,390.0" stroke="#3498db" stroke-width="2" fill="none" marker-end="url(#arr)" opacity="0.88"/>
<path d="M777.3,486.0 C970.0,486.0 1091.7,334.0 1284.3,334.0" stroke="#3498db" stroke-width="2" fill="none" marker-end="url(#arr)" opacity="0.88"/>
<path d="M694.7,467.3 C694.7,412.6 694.7,378.1 694.7,323.3" stroke="#3498db" stroke-width="2" fill="none" marker-end="url(#arr)" opacity="0.88"/>
<path d="M612.1,486.0 C511.4,486.0 447.7,621.5 346.9,621.5" stroke="#3498db" stroke-width="2" fill="none" marker-end="url(#arr)" opacity="0.88"/>
<path d="M777.3,486.0 C1067.9,486.0 1251.4,69.3 1542.0,69.3" stroke="#3498db" stroke-width="2" fill="none" marker-end="url(#arr)" opacity="0.88"/>
<path d="M694.7,467.3 C694.7,447.1 694.7,434.3 694.7,414.0" stroke="#3498db" stroke-width="2" fill="none" marker-end="url(#arr)" opacity="0.88"/>
<path d="M777.3,486.0 C970.0,486.0 1091.7,446.0 1284.3,446.0" stroke="#3498db" stroke-width="2" fill="none" marker-end="url(#arr)" opacity="0.88"/>
<path d="M694.7,467.3 C694.7,464.3 694.7,462.4 694.7,459.3" stroke="#3498db" stroke-width="2" fill="none" marker-end="url(#arr)" opacity="0.88"/>
<path d="M612.1,486.0 C511.4,486.0 447.7,666.5 346.9,666.5" stroke="#3498db" stroke-width="2" fill="none" marker-end="url(#arr)" opacity="0.88"/>
<path d="M612.1,486.0 C511.4,486.0 447.7,711.5 346.9,711.5" stroke="#3498db" stroke-width="2" fill="none" marker-end="url(#arr)" opacity="0.88"/>
<path d="M612.1,486.0 C612.1,623.0 346.9,709.5 346.9,846.5" stroke="#3498db" stroke-width="2" fill="none" marker-end="url(#arr)" opacity="0.88"/>
<path d="M612.1,486.0 C612.1,640.1 346.9,737.4 346.9,891.5" stroke="#3498db" stroke-width="2" fill="none" marker-end="url(#arr)" opacity="0.88"/>
<path d="M612.1,486.0 C612.1,588.8 346.9,653.7 346.9,756.5" stroke="#3498db" stroke-width="2" fill="none" marker-end="url(#arr)" opacity="0.88"/>
<path d="M1260.3,418.0 C1350.5,418.0 1407.5,418.0 1497.7,418.0" stroke="#9b59b6" stroke-width="2" fill="none" marker-end="url(#arr)" opacity="0.88"/>
<path d="M264.4,442.0 C264.4,571.6 264.4,653.4 264.4,783.0" stroke="#f4d03f" stroke-width="2" fill="none" marker-end="url(#arr)" opacity="0.88"/>
<path d="M1002.7,446.0 C1109.7,446.0 1177.3,390.0 1284.3,390.0" stroke="#2ecc71" stroke-width="2" fill="none" marker-end="url(#arr)" opacity="0.88"/>
<path d="M920.1,470.0 C920.1,473.0 920.1,475.0 920.1,478.0" stroke="#2ecc71" stroke-width="2" fill="none" marker-end="url(#arr)" opacity="0.88"/>
<path d="M1002.7,446.0 C1109.7,446.0 1177.3,334.0 1284.3,334.0" stroke="#2ecc71" stroke-width="2" fill="none" marker-end="url(#arr)" opacity="0.88"/>
<path d="M837.5,446.0 C651.1,446.0 533.4,756.5 346.9,756.5" stroke="#2ecc71" stroke-width="2" fill="none" marker-end="url(#arr)" opacity="0.88"/>
<path d="M1002.7,446.0 C1109.7,446.0 1177.3,502.0 1284.3,502.0" stroke="#2ecc71" stroke-width="2" fill="none" marker-end="url(#arr)" opacity="0.88"/>
<path d="M837.5,446.0 C651.1,446.0 533.4,846.5 346.9,846.5" stroke="#2ecc71" stroke-width="2" fill="none" marker-end="url(#arr)" opacity="0.88"/>
<path d="M837.5,446.0 C652.6,446.0 535.9,576.5 351.0,576.5" stroke="#2ecc71" stroke-width="2" fill="none" marker-end="url(#arr)" opacity="0.88"/>
<path d="M837.5,446.0 C651.1,446.0 533.4,621.5 346.9,621.5" stroke="#2ecc71" stroke-width="2" fill="none" marker-end="url(#arr)" opacity="0.88"/>
<path d="M1002.7,446.0 C1109.7,446.0 1177.3,446.0 1284.3,446.0" stroke="#2ecc71" stroke-width="2" fill="none" marker-end="url(#arr)" opacity="0.88"/>
<path d="M837.5,446.0 C837.5,392.3 777.3,358.4 777.3,304.7" stroke="#2ecc71" stroke-width="2" fill="none" marker-end="url(#arr)" opacity="0.88"/>
<path d="M1002.7,446.0 C1207.6,446.0 1337.1,69.3 1542.0,69.3" stroke="#2ecc71" stroke-width="2" fill="none" marker-end="url(#arr)" opacity="0.88"/>
<path d="M837.5,446.0 C805.5,446.0 785.2,440.7 753.1,440.7" stroke="#2ecc71" stroke-width="2" fill="none" marker-end="url(#arr)" opacity="0.88"/>
<path d="M837.5,446.0 C651.1,446.0 533.4,711.5 346.9,711.5" stroke="#2ecc71" stroke-width="2" fill="none" marker-end="url(#arr)" opacity="0.88"/>
<path d="M837.5,446.0 C651.1,446.0 533.4,666.5 346.9,666.5" stroke="#2ecc71" stroke-width="2" fill="none" marker-end="url(#arr)" opacity="0.88"/>
<path d="M837.5,446.0 C805.5,446.0 785.2,395.3 753.1,395.3" stroke="#2ecc71" stroke-width="2" fill="none" marker-end="url(#arr)" opacity="0.88"/>
<path d="M837.5,446.0 C651.1,446.0 533.4,891.5 346.9,891.5" stroke="#2ecc71" stroke-width="2" fill="none" marker-end="url(#arr)" opacity="0.88"/>
<path d="M264.4,873.0 C264.4,835.8 264.4,812.2 264.4,775.0" stroke="#f4d03f" stroke-width="2" fill="none" marker-end="url(#arr)" opacity="0.88"/>
<path d="M588.1,210.0 C588.1,263.2 612.1,296.8 612.1,350.0" stroke="#e74c3c" stroke-width="2" fill="none" marker-end="url(#arr)" opacity="0.88"/>
<path d="M588.1,210.0 C950.6,210.0 1179.5,69.3 1542.0,69.3" stroke="#e74c3c" stroke-width="2" fill="none" marker-end="url(#arr)" opacity="0.88"/>
<path d="M485.4,230.0 C485.4,354.6 264.4,433.4 264.4,558.0" stroke="#e74c3c" stroke-width="2" fill="none" marker-end="url(#arr)" opacity="0.88"/>
<path d="M485.4,230.0 C485.4,371.7 264.4,461.3 264.4,603.0" stroke="#e74c3c" stroke-width="2" fill="none" marker-end="url(#arr)" opacity="0.88"/>
<path d="M588.1,210.0 C588.1,246.0 612.1,268.7 612.1,304.7" stroke="#e74c3c" stroke-width="2" fill="none" marker-end="url(#arr)" opacity="0.88"/>
<path d="M588.1,210.0 C588.1,280.4 636.3,324.9 636.3,395.3" stroke="#e74c3c" stroke-width="2" fill="none" marker-end="url(#arr)" opacity="0.88"/>
<path d="M485.4,230.0 C485.4,405.9 264.4,517.1 264.4,693.0" stroke="#e74c3c" stroke-width="2" fill="none" marker-end="url(#arr)" opacity="0.88"/>
<path d="M485.4,230.0 C485.4,474.3 264.4,628.7 264.4,873.0" stroke="#e74c3c" stroke-width="2" fill="none" marker-end="url(#arr)" opacity="0.88"/>
<path d="M485.4,230.0 C565.0,230.0 615.2,422.0 694.7,422.0" stroke="#e74c3c" stroke-width="2" fill="none" marker-end="url(#arr)" opacity="0.88"/>
<path d="M588.1,258.0 C588.1,293.0 612.1,315.0 612.1,350.0" stroke="#e74c3c" stroke-width="2" fill="none" marker-end="url(#arr)" opacity="0.88"/>
<path d="M588.1,258.0 C950.6,258.0 1179.5,69.3 1542.0,69.3" stroke="#e74c3c" stroke-width="2" fill="none" marker-end="url(#arr)" opacity="0.88"/>
<path d="M485.4,278.0 C485.4,384.4 264.4,451.6 264.4,558.0" stroke="#e74c3c" stroke-width="2" fill="none" marker-end="url(#arr)" opacity="0.88"/>
<path d="M485.4,278.0 C485.4,401.5 264.4,479.5 264.4,603.0" stroke="#e74c3c" stroke-width="2" fill="none" marker-end="url(#arr)" opacity="0.88"/>
<path d="M588.1,258.0 C588.1,275.7 612.1,286.9 612.1,304.7" stroke="#e74c3c" stroke-width="2" fill="none" marker-end="url(#arr)" opacity="0.88"/>
<path d="M588.1,258.0 C588.1,310.2 636.3,343.1 636.3,395.3" stroke="#e74c3c" stroke-width="2" fill="none" marker-end="url(#arr)" opacity="0.88"/>
<path d="M485.4,278.0 C485.4,435.7 264.4,535.3 264.4,693.0" stroke="#e74c3c" stroke-width="2" fill="none" marker-end="url(#arr)" opacity="0.88"/>
<path d="M485.4,278.0 C485.4,504.1 264.4,646.9 264.4,873.0" stroke="#e74c3c" stroke-width="2" fill="none" marker-end="url(#arr)" opacity="0.88"/>
<path d="M588.1,258.0 C588.1,327.4 636.3,371.3 636.3,440.7" stroke="#e74c3c" stroke-width="2" fill="none" marker-end="url(#arr)" opacity="0.88"/>
<path d="M777.3,531.3 C970.0,531.3 1091.7,334.0 1284.3,334.0" stroke="#3498db" stroke-width="2" fill="none" marker-end="url(#arr)" opacity="0.88"/>
<path d="M777.3,531.3 C970.0,531.3 1091.7,390.0 1284.3,390.0" stroke="#3498db" stroke-width="2" fill="none" marker-end="url(#arr)" opacity="0.88"/>
<path d="M777.3,531.3 C1067.9,531.3 1251.4,69.3 1542.0,69.3" stroke="#3498db" stroke-width="2" fill="none" marker-end="url(#arr)" opacity="0.88"/>
<path d="M694.7,512.7 C694.7,475.2 694.7,451.5 694.7,414.0" stroke="#3498db" stroke-width="2" fill="none" marker-end="url(#arr)" opacity="0.88"/>
<path d="M777.3,531.3 C970.0,531.3 1091.7,446.0 1284.3,446.0" stroke="#3498db" stroke-width="2" fill="none" marker-end="url(#arr)" opacity="0.88"/>
<path d="M694.7,512.7 C694.7,492.4 694.7,479.6 694.7,459.3" stroke="#3498db" stroke-width="2" fill="none" marker-end="url(#arr)" opacity="0.88"/>
<path d="M612.1,531.3 C511.4,531.3 447.7,666.5 346.9,666.5" stroke="#3498db" stroke-width="2" fill="none" marker-end="url(#arr)" opacity="0.88"/>
<path d="M612.1,531.3 C511.4,531.3 447.7,711.5 346.9,711.5" stroke="#3498db" stroke-width="2" fill="none" marker-end="url(#arr)" opacity="0.88"/>
<path d="M612.1,531.3 C511.4,531.3 447.7,756.5 346.9,756.5" stroke="#3498db" stroke-width="2" fill="none" marker-end="url(#arr)" opacity="0.88"/>
<path d="M612.1,531.3 C612.1,651.1 346.9,726.7 346.9,846.5" stroke="#3498db" stroke-width="2" fill="none" marker-end="url(#arr)" opacity="0.88"/>
<path d="M612.1,531.3 C612.1,668.2 346.9,754.6 346.9,891.5" stroke="#3498db" stroke-width="2" fill="none" marker-end="url(#arr)" opacity="0.88"/>
<path d="M612.1,531.3 C512.9,531.3 450.2,576.5 351.0,576.5" stroke="#3498db" stroke-width="2" fill="none" marker-end="url(#arr)" opacity="0.88"/>
<path d="M612.1,531.3 C511.4,531.3 447.7,621.5 346.9,621.5" stroke="#3498db" stroke-width="2" fill="none" marker-end="url(#arr)" opacity="0.88"/>
<path d="M694.7,512.7 C694.7,440.7 694.7,395.3 694.7,323.3" stroke="#3498db" stroke-width="2" fill="none" marker-end="url(#arr)" opacity="0.88"/>
<rect x="612.1" y="286.0" width="165.1" height="37.3" rx="6.0" fill="#3498db" stroke="#fff" stroke-width="1"/>
<text x="694.7" y="301.7" text-anchor="middle" font-weight="bold" font-size="15.0" fill="#222">mycpu</text>
<text x="694.7" y="315.1" text-anchor="middle" fill="#555" font-size="13.0">kernel/sched/proc.c</text>
<rect x="177.8" y="558.0" width="173.2" height="37.0" rx="6.0" fill="#f4d03f" stroke="#fff" stroke-width="1"/>
<text x="264.4" y="573.5" text-anchor="middle" font-weight="bold" font-size="15.0" fill="#222">cpuid</text>
<text x="264.4" y="586.9" text-anchor="middle" fill="#555" font-size="13.0">include/sched/proc.h</text>
<rect x="181.8" y="603.0" width="165.1" height="37.0" rx="6.0" fill="#f4d03f" stroke="#fff" stroke-width="1"/>
<text x="264.4" y="618.5" text-anchor="middle" font-weight="bold" font-size="15.0" fill="#222">r_tp</text>
<text x="264.4" y="631.9" text-anchor="middle" fill="#555" font-size="13.0">include/hal/riscv.h</text>
<rect x="612.1" y="331.3" width="165.1" height="37.3" rx="6.0" fill="#3498db" stroke="#fff" stroke-width="1"/>
<text x="694.7" y="347.0" text-anchor="middle" font-weight="bold" font-size="15.0" fill="#222">myproc</text>
<text x="694.7" y="360.5" text-anchor="middle" fill="#555" font-size="13.0">kernel/sched/proc.c</text>
<rect x="1284.3" y="310.0" width="189.3" height="48.0" rx="6.0" fill="#e67e22" stroke="#fff" stroke-width="1"/>
<text x="1379.0" y="327.0" text-anchor="middle" font-weight="bold" font-size="15.0" fill="#222">release</text>
<text x="1379.0" y="342.0" text-anchor="middle" fill="#555" font-size="13.0">kernel/sync/spinlock.c</text>
<rect x="1284.3" y="366.0" width="189.3" height="48.0" rx="6.0" fill="#e67e22" stroke="#fff" stroke-width="1"/>
<text x="1379.0" y="383.0" text-anchor="middle" font-weight="bold" font-size="15.0" fill="#222">acquire</text>
<text x="1379.0" y="398.0" text-anchor="middle" fill="#555" font-size="13.0">kernel/sync/spinlock.c</text>
<rect x="1542.0" y="50.0" width="149.0" height="38.7" rx="6.0" fill="#95a5a6" stroke="#fff" stroke-width="1"/>
<text x="1616.5" y="66.2" text-anchor="middle" font-weight="bold" font-size="15.0" fill="#222">printf</text>
<text x="1616.5" y="80.2" text-anchor="middle" fill="#555" font-size="13.0">xv6-user/printf.c</text>
<rect x="636.3" y="376.7" width="116.8" height="37.3" rx="6.0" fill="#3498db" stroke="#fff" stroke-width="1"/>
<text x="694.7" y="392.3" text-anchor="middle" font-weight="bold" font-size="15.0" fill="#222">pop_off</text>
<text x="694.7" y="405.8" text-anchor="middle" fill="#555" font-size="13.0">kernel/intr.c</text>
<rect x="1284.3" y="422.0" width="189.3" height="48.0" rx="6.0" fill="#e67e22" stroke="#fff" stroke-width="1"/>
<text x="1379.0" y="439.0" text-anchor="middle" font-weight="bold" font-size="15.0" fill="#222">holding</text>
<text x="1379.0" y="454.0" text-anchor="middle" fill="#555" font-size="13.0">kernel/sync/spinlock.c</text>
<rect x="636.3" y="422.0" width="116.8" height="37.3" rx="6.0" fill="#3498db" stroke="#fff" stroke-width="1"/>
<text x="694.7" y="437.7" text-anchor="middle" font-weight="bold" font-size="15.0" fill="#222">push_off</text>
<text x="694.7" y="451.1" text-anchor="middle" fill="#555" font-size="13.0">kernel/intr.c</text>
<rect x="1550.0" y="96.7" width="132.9" height="38.7" rx="6.0" fill="#95a5a6" stroke="#fff" stroke-width="1"/>
<text x="1616.5" y="112.9" text-anchor="middle" font-weight="bold" font-size="15.0" fill="#222">memset</text>
<text x="1616.5" y="126.8" text-anchor="middle" fill="#555" font-size="13.0">xv6-user/ulib.c</text>
<rect x="181.8" y="648.0" width="165.1" height="37.0" rx="6.0" fill="#f4d03f" stroke="#fff" stroke-width="1"/>
<text x="264.4" y="663.5" text-anchor="middle" font-weight="bold" font-size="15.0" fill="#222">r_sstatus</text>
<text x="264.4" y="676.9" text-anchor="middle" fill="#555" font-size="13.0">include/hal/riscv.h</text>
<rect x="1497.7" y="394.0" width="237.7" height="48.0" rx="6.0" fill="#95a5a6" stroke="#fff" stroke-width="1"/>
<text x="1616.5" y="411.0" text-anchor="middle" font-weight="bold" font-size="15.0" fill="#222">container_of</text>
<text x="1616.5" y="426.0" text-anchor="middle" fill="#555" font-size="13.0">宏（#define） · include/types.h</text>
<rect x="181.8" y="693.0" width="165.1" height="37.0" rx="6.0" fill="#f4d03f" stroke="#fff" stroke-width="1"/>
<text x="264.4" y="708.5" text-anchor="middle" font-weight="bold" font-size="15.0" fill="#222">intr_get</text>
<text x="264.4" y="721.9" text-anchor="middle" fill="#555" font-size="13.0">include/hal/riscv.h</text>
<rect x="837.5" y="310.0" width="165.1" height="48.0" rx="6.0" fill="#2ecc71" stroke="#fff" stroke-width="1"/>
<text x="920.1" y="327.0" text-anchor="middle" font-weight="bold" font-size="15.0" fill="#222">kfree</text>
<text x="920.1" y="342.0" text-anchor="middle" fill="#555" font-size="13.0">kernel/mm/kmalloc.c</text>
<rect x="612.1" y="467.3" width="165.1" height="37.3" rx="6.0" fill="#3498db" stroke="#fff" stroke-width="1"/>
<text x="694.7" y="483.0" text-anchor="middle" font-weight="bold" font-size="15.0" fill="#222">exit</text>
<text x="694.7" y="496.5" text-anchor="middle" fill="#555" font-size="13.0">kernel/sched/proc.c</text>
<rect x="181.8" y="738.0" width="165.1" height="37.0" rx="6.0" fill="#f4d03f" stroke="#fff" stroke-width="1"/>
<text x="264.4" y="753.5" text-anchor="middle" font-weight="bold" font-size="15.0" fill="#222">set_sstatus_bit</text>
<text x="264.4" y="766.9" text-anchor="middle" fill="#555" font-size="13.0">include/hal/riscv.h</text>
<rect x="1284.3" y="478.0" width="189.3" height="48.0" rx="6.0" fill="#e67e22" stroke="#fff" stroke-width="1"/>
<text x="1379.0" y="495.0" text-anchor="middle" font-weight="bold" font-size="15.0" fill="#222">initlock</text>
<text x="1379.0" y="510.0" text-anchor="middle" fill="#555" font-size="13.0">kernel/sync/spinlock.c</text>
<rect x="170.0" y="783.0" width="188.7" height="37.0" rx="6.0" fill="#f4d03f" stroke="#fff" stroke-width="1"/>
<text x="264.4" y="798.5" text-anchor="middle" font-weight="bold" font-size="15.0" fill="#222">sbi_console_putchar</text>
<text x="264.4" y="811.9" text-anchor="middle" fill="#555" font-size="13.0">include/sbi.h</text>
<rect x="1063.0" y="394.0" width="197.4" height="48.0" rx="6.0" fill="#9b59b6" stroke="#fff" stroke-width="1"/>
<text x="1161.7" y="411.0" text-anchor="middle" font-weight="bold" font-size="15.0" fill="#222">sb2fat</text>
<text x="1161.7" y="426.0" text-anchor="middle" fill="#555" font-size="13.0">kernel/fs/fat32/fat32.h</text>
<rect x="193.9" y="394.0" width="141.0" height="48.0" rx="6.0" fill="#f4d03f" stroke="#fff" stroke-width="1"/>
<text x="264.4" y="411.0" text-anchor="middle" font-weight="bold" font-size="15.0" fill="#222">consputc</text>
<text x="264.4" y="426.0" text-anchor="middle" fill="#555" font-size="13.0">kernel/console.c</text>
<rect x="181.8" y="828.0" width="165.1" height="37.0" rx="6.0" fill="#f4d03f" stroke="#fff" stroke-width="1"/>
<text x="264.4" y="843.5" text-anchor="middle" font-weight="bold" font-size="15.0" fill="#222">clr_sstatus_bit</text>
<text x="264.4" y="856.9" text-anchor="middle" fill="#555" font-size="13.0">include/hal/riscv.h</text>
<rect x="801.3" y="366.0" width="237.7" height="48.0" rx="6.0" fill="#2ecc71" stroke="#fff" stroke-width="1"/>
<text x="920.1" y="383.0" text-anchor="middle" font-weight="bold" font-size="15.0" fill="#222">freepage</text>
<text x="920.1" y="398.0" text-anchor="middle" fill="#555" font-size="13.0">宏（#define） · include/mm/pm.h</text>
<rect x="837.5" y="422.0" width="165.1" height="48.0" rx="6.0" fill="#2ecc71" stroke="#fff" stroke-width="1"/>
<text x="920.1" y="439.0" text-anchor="middle" font-weight="bold" font-size="15.0" fill="#222">kmalloc</text>
<text x="920.1" y="454.0" text-anchor="middle" fill="#555" font-size="13.0">kernel/mm/kmalloc.c</text>
<rect x="181.8" y="873.0" width="165.1" height="37.0" rx="6.0" fill="#f4d03f" stroke="#fff" stroke-width="1"/>
<text x="264.4" y="888.5" text-anchor="middle" font-weight="bold" font-size="15.0" fill="#222">intr_on</text>
<text x="264.4" y="901.9" text-anchor="middle" fill="#555" font-size="13.0">include/hal/riscv.h</text>
<rect x="1550.0" y="143.3" width="132.9" height="38.7" rx="6.0" fill="#95a5a6" stroke="#fff" stroke-width="1"/>
<text x="1616.5" y="159.6" text-anchor="middle" font-weight="bold" font-size="15.0" fill="#222">memmove</text>
<text x="1616.5" y="173.5" text-anchor="middle" fill="#555" font-size="13.0">xv6-user/ulib.c</text>
<rect x="801.3" y="478.0" width="237.7" height="48.0" rx="6.0" fill="#2ecc71" stroke="#fff" stroke-width="1"/>
<text x="920.1" y="495.0" text-anchor="middle" font-weight="bold" font-size="15.0" fill="#222">allocpage</text>
<text x="920.1" y="510.0" text-anchor="middle" fill="#555" font-size="13.0">宏（#define） · include/mm/pm.h</text>
<rect x="382.7" y="190.0" width="205.4" height="40.0" rx="6.0" fill="#e74c3c" stroke="#fff" stroke-width="1"/>
<text x="485.4" y="206.8" text-anchor="middle" font-weight="bold" font-size="15.0" fill="#222">argaddr</text>
<text x="485.4" y="221.2" text-anchor="middle" fill="#555" font-size="13.0">kernel/syscall/syscall.c</text>
<rect x="382.7" y="238.0" width="205.4" height="40.0" rx="6.0" fill="#e74c3c" stroke="#fff" stroke-width="1"/>
<text x="485.4" y="254.8" text-anchor="middle" font-weight="bold" font-size="15.0" fill="#222">argint</text>
<text x="485.4" y="269.2" text-anchor="middle" fill="#555" font-size="13.0">kernel/syscall/syscall.c</text>
<rect x="612.1" y="512.7" width="165.1" height="37.3" rx="6.0" fill="#3498db" stroke="#fff" stroke-width="1"/>
<text x="694.7" y="528.3" text-anchor="middle" font-weight="bold" font-size="15.0" fill="#222">wakeup</text>
<text x="694.7" y="541.8" text-anchor="middle" fill="#555" font-size="13.0">kernel/sched/proc.c</text>
</svg>