<svg width="1931.3400000000001" height="918.0" xmlns="http://www.w3.org/2000/svg" font-family='system-ui, -apple-system, "Segoe UI", Roboto, "Helvetica Neue", Arial, "PingFang SC", "Microsoft YaHei", sans-serif' font-size='13'>
<defs><marker id="arr" markerWidth="10" markerHeight="10" refX="9" refY="3.5" orient="auto" markerUnits="userSpaceOnUse"><path d="M0,0 L0,7 L10,3.5 z" fill="#444"/></marker></defs>
<rect width="1931.3400000000001" height="918.0" fill="#fafafa"/>
<line x1="142.0" y1="46.0" x2="1911.3400000000001" y2="46.0" stroke="#ddd" stroke-width="1"/>
<line x1="142.0" y1="86.0" x2="1911.3400000000001" y2="86.0" stroke="#ddd" stroke-width="1"/>
<line x1="142.0" y1="182.0" x2="1911.3400000000001" y2="182.0" stroke="#ddd" stroke-width="1"/>
<line x1="142.0" y1="410.0" x2="1911.3400000000001" y2="410.0" stroke="#ddd" stroke-width="1"/>
<line x1="142.0" y1="858.0" x2="1911.3400000000001" y2="858.0" stroke="#ddd" stroke-width="1"/>
<line x1="142.0" y1="898.0" x2="1911.3400000000001" y2="898.0" stroke="#ddd" stroke-width="1"/>
<line x1="158.0" y1="46.0" x2="158.0" y2="898.0" stroke="#ddd" stroke-width="1"/>
<line x1="370.7" y1="46.0" x2="370.7" y2="898.0" stroke="#ddd" stroke-width="1"/>
<line x1="600.1" y1="46.0" x2="600.1" y2="898.0" stroke="#ddd" stroke-width="1"/>
<line x1="789.3" y1="46.0" x2="789.3" y2="898.0" stroke="#ddd" stroke-width="1"/>
<line x1="1051.0" y1="46.0" x2="1051.0" y2="898.0" stroke="#ddd" stroke-width="1"/>
<line x1="1272.3" y1="46.0" x2="1272.3" y2="898.0" stroke="#ddd" stroke-width="1"/>
<line x1="1485.7" y1="46.0" x2="1485.7" y2="898.0" stroke="#ddd" stroke-width="1"/>
<line x1="1747.3" y1="46.0" x2="1747.3" y2="898.0" stroke="#ddd" stroke-width="1"/>
<line x1="1829.3" y1="46.0" x2="1829.3" y2="898.0" stroke="#ddd" stroke-width="1"/>
<line x1="1911.3" y1="46.0" x2="1911.3" y2="898.0" stroke="#ddd" stroke-width="1"/>
<text x="137.0" y="71.0" text-anchor="end" fill="#111827" font-size="12" font-weight="600">userspace</text>
<text x="137.0" y="139.0" text-anchor="end" fill="#111827" font-size="12" font-weight="600">syscall_boundary</text>
<text x="137.0" y="301.0" text-anchor="end" fill="#111827" font-size="12" font-weight="600">kernel</text>
<text x="137.0" y="639.0" text-anchor="end" fill="#111827" font-size="12" font-weight="600">hardware</text>
<text x="137.0" y="883.0" text-anchor="end" fill="#111827" font-size="12" font-weight="600">unknown</text>
<text text-anchor="middle" font-size="13" font-weight="600" fill="#111827"><tspan x="264.4" y="19.0">arch</tspan><tspan x="264.4" dy="12.0">platform</tspan></text>
<text text-anchor="middle" font-size="13" font-weight="600" fill="#111827"><tspan x="485.4" y="19.0">trap</tspan><tspan x="485.4" dy="12.0">syscall</tspan></text>
<text text-anchor="middle" font-size="13" font-weight="600" fill="#111827"><tspan x="694.7" y="19.0">process</tspan><tspan x="694.7" dy="12.0">sched</tspan></text>
<text text-anchor="middle" font-size="13" font-weight="600" fill="#111827"><tspan x="920.1" y="19.0">memory</tspan><tspan x="920.1" dy="12.0">vm</tspan></text>
<text text-anchor="middle" font-size="13" font-weight="600" fill="#111827"><tspan x="1161.7" y="19.0">fs</tspan><tspan x="1161.7" dy="12.0">storage</tspan></text>
<text text-anchor="middle" font-size="13" font-weight="600" fill="#111827"><tspan x="1379.0" y="19.0">sync</tspan><tspan x="1379.0" dy="12.0">ipc</tspan></text>
<text text-anchor="middle" font-size="13" font-weight="600" fill="#111827"><tspan x="1616.5" y="19.0">runtime</tspan><tspan x="1616.5" dy="12.0">common</tspan></text>
<text text-anchor="middle" font-size="12" font-weight="600" fill="#111827"><tspan x="1788.3" y="19.0">user</tspan><tspan x="1788.3" dy="12.0">programs</tspan></text>
<text x="1870.3" y="30.0" text-anchor="middle" font-size="12" font-weight="600" fill="#111827">unknown</text>
<path d="M264.4,450.8 C264.4,453.8 264.4,455.8 264.4,458.8" stroke="#f4d03f" stroke-width="2" fill="none" marker-end="url(#arr)" opacity="0.88"/>
<path d="M612.1,212.0 C512.9,212.0 450.2,432.4 351.0,432.4" stroke="#3498db" stroke-width="2" fill="none" marker-end="url(#arr)" opacity="0.88"/>
<path d="M612.1,212.0 C511.4,212.0 447.7,477.2 346.9,477.2" stroke="#3498db" stroke-width="2" fill="none" marker-end="url(#arr)" opacity="0.88"/>
<path d="M1320.6,204.8 C1114.1,204.8 983.7,212.0 777.3,212.0" stroke="#e67e22" stroke-width="2" fill="none" marker-end="url(#arr)" opacity="0.88"/>
<path d="M1320.6,204.8 C950.6,204.8 716.9,566.8 346.9,566.8" stroke="#e67e22" stroke-width="2" fill="none" marker-end="url(#arr)" opacity="0.88"/>
<path d="M1320.6,204.8 C950.6,204.8 716.9,522.0 346.9,522.0" stroke="#e67e22" stroke-width="2" fill="none" marker-end="url(#arr)" opacity="0.88"/>
<path d="M1320.6,204.8 C952.1,204.8 719.4,432.4 351.0,432.4" stroke="#e67e22" stroke-width="2" fill="none" marker-end="url(#arr)" opacity="0.88"/>
<path d="M1320.6,204.8 C950.6,204.8 716.9,477.2 346.9,477.2" stroke="#e67e22" stroke-width="2" fill="none" marker-end="url(#arr)" opacity="0.88"/>
<path d="M777.3,268.0 C983.7,268.0 1114.1,341.6 1320.6,341.6" stroke="#3498db" stroke-width="2" fill="none" marker-end="url(#arr)" opacity="0.88"/>
<path d="M694.7,244.0 C694.7,241.0 694.7,239.0 694.7,236.0" stroke="#3498db" stroke-width="2" fill="none" marker-end="url(#arr)" opacity="0.88"/>
<path d="M777.3,268.0 C983.7,268.0 1114.1,204.8 1320.6,204.8" stroke="#3498db" stroke-width="2" fill="none" marker-end="url(#arr)" opacity="0.88"/>
<path d="M612.1,268.0 C512.9,268.0 450.2,432.4 351.0,432.4" stroke="#3498db" stroke-width="2" fill="none" marker-end="url(#arr)" opacity="0.88"/>
<path d="M612.1,268.0 C511.4,268.0 447.7,477.2 346.9,477.2" stroke="#3498db" stroke-width="2" fill="none" marker-end="url(#arr)" opacity="0.88"/>
<path d="M612.1,268.0 C612.1,381.5 346.9,453.3 346.9,566.8" stroke="#3498db" stroke-width="2" fill="none" marker-end="url(#arr)" opacity="0.88"/>
<path d="M612.1,268.0 C511.4,268.0 447.7,522.0 346.9,522.0" stroke="#3498db" stroke-width="2" fill="none" marker-end="url(#arr)" opacity="0.88"/>
<path d="M694.7,292.0 C694.7,491.6 264.4,617.6 264.4,817.2" stroke="#3498db" stroke-width="2" fill="none" marker-end="url(#arr)" opacity="0.88"/>
<path d="M612.1,268.0 C612.1,415.6 346.9,508.8 346.9,656.4" stroke="#3498db" stroke-width="2" fill="none" marker-end="url(#arr)" opacity="0.88"/>
<path d="M694.7,292.0 C694.7,457.5 264.4,562.1 264.4,727.6" stroke="#3498db" stroke-width="2" fill="none" marker-end="url(#arr)" opacity="0.88"/>
<path d="M612.1,268.0 C612.1,398.6 346.9,481.0 346.9,611.6" stroke="#3498db" stroke-width="2" fill="none" marker-end="url(#arr)" opacity="0.88"/>
<path d="M1379.0,231.6 C1379.0,228.6 1379.0,226.6 1379.0,223.6" stroke="#e67e22" stroke-width="2" fill="none" marker-end="url(#arr)" opacity="0.88"/>
<path d="M1284.3,250.4 C928.1,250.4 703.1,566.8 346.9,566.8" stroke="#e67e22" stroke-width="2" fill="none" marker-end="url(#arr)" opacity="0.88"/>
<path d="M1284.3,250.4 C928.1,250.4 703.1,522.0 346.9,522.0" stroke="#e67e22" stroke-width="2" fill="none" marker-end="url(#arr)" opacity="0.88"/>
<path d="M1284.3,250.4 C1091.7,250.4 970.0,212.0 777.3,212.0" stroke="#e67e22" stroke-width="2" fill="none" marker-end="url(#arr)" opacity="0.88"/>
<path d="M1284.3,250.4 C929.7,250.4 705.6,432.4 351.0,432.4" stroke="#e67e22" stroke-width="2" fill="none" marker-end="url(#arr)" opacity="0.88"/>
<path d="M1284.3,250.4 C928.1,250.4 703.1,477.2 346.9,477.2" stroke="#e67e22" stroke-width="2" fill="none" marker-end="url(#arr)" opacity="0.88"/>
<path d="M1379.0,314.8 C1379.0,317.8 1379.0,319.8 1379.0,322.8" stroke="#e67e22" stroke-width="2" fill="none" marker-end="url(#arr)" opacity="0.88"/>
<path d="M1284.3,296.0 C1091.7,296.0 970.0,212.0 777.3,212.0" stroke="#e67e22" stroke-width="2" fill="none" marker-end="url(#arr)" opacity="0.88"/>
<path d="M1284.3,296.0 C929.7,296.0 705.6,432.4 351.0,432.4" stroke="#e67e22" stroke-width="2" fill="none" marker-end="url(#arr)" opacity="0.88"/>
<path d="M1284.3,296.0 C928.1,296.0 703.1,477.2 346.9,477.2" stroke="#e67e22" stroke-width="2" fill="none" marker-end="url(#arr)" opacity="0.88"/>
<path d="M1284.3,296.0 C928.1,296.0 703.1,835.6 346.9,835.6" stroke="#e67e22" stroke-width="2" fill="none" marker-end="url(#arr)" opacity="0.88"/>
<path d="M1284.3,296.0 C928.1,296.0 703.1,656.4 346.9,656.4" stroke="#e67e22" stroke-width="2" fill="none" marker-end="url(#arr)" opacity="0.88"/>
<path d="M1284.3,296.0 C928.1,296.0 703.1,746.0 346.9,746.0" stroke="#e67e22" stroke-width="2" fill="none" marker-end="url(#arr)" opacity="0.88"/>
<path d="M1284.3,296.0 C928.1,296.0 703.1,611.6 346.9,611.6" stroke="#e67e22" stroke-width="2" fill="none" marker-end="url(#arr)" opacity="0.88"/>
<path d="M1550.0,212.0 C1550.0,243.9 1473.7,264.1 1473.7,296.0" stroke="#95a5a6" stroke-width="2" fill="none" marker-end="url(#arr)" opacity="0.88"/>
<path d="M1550.0,212.0 C1088.3,212.0 796.6,790.8 334.8,790.8" stroke="#95a5a6" stroke-width="2" fill="none" marker-end="url(#arr)" opacity="0.88"/>
<path d="M1550.0,212.0 C1521.0,212.0 1502.7,250.4 1473.7,250.4" stroke="#95a5a6" stroke-width="2" fill="none" marker-end="url(#arr)" opacity="0.88"/>
<path d="M1550.0,212.0 C1256.4,212.0 1070.9,212.0 777.3,212.0" stroke="#95a5a6" stroke-width="2" fill="none" marker-end="url(#arr)" opacity="0.88"/>
<path d="M1550.0,212.0 C1094.4,212.0 806.6,432.4 351.0,432.4" stroke="#95a5a6" stroke-width="2" fill="none" marker-end="url(#arr)" opacity="0.88"/>
<path d="M1550.0,212.0 C1092.9,212.0 804.1,477.2 346.9,477.2" stroke="#95a5a6" stroke-width="2" fill="none" marker-end="url(#arr)" opacity="0.88"/>
<path d="M1550.0,212.0 C1550.0,261.2 1437.4,292.4 1437.4,341.6" stroke="#95a5a6" stroke-width="2" fill="none" marker-end="url(#arr)" opacity="0.88"/>
<path d="M1550.0,212.0 C1092.9,212.0 804.1,835.6 346.9,835.6" stroke="#95a5a6" stroke-width="2" fill="none" marker-end="url(#arr)" opacity="0.88"/>
<path d="M1550.0,212.0 C1092.9,212.0 804.1,656.4 346.9,656.4" stroke="#95a5a6" stroke-width="2" fill="none" marker-end="url(#arr)" opacity="0.88"/>
<path d="M1550.0,212.0 C1092.9,212.0 804.1,746.0 346.9,746.0" stroke="#95a5a6" stroke-width="2" fill="none" marker-end="url(#arr)" opacity="0.88"/>
<path d="M1550.0,212.0 C1092.9,212.0 804.1,611.6 346.9,611.6" stroke="#95a5a6" stroke-width="2" fill="none" marker-end="url(#arr)" opacity="0.88"/>
<path d="M1550.0,212.0 C1507.2,212.0 1480.2,204.8 1437.4,204.8" stroke="#95a5a6" stroke-width="2" fill="none" marker-end="url(#arr)" opacity="0.88"/>
<path d="M1550.0,212.0 C1092.9,212.0 804.1,566.8 346.9,566.8" stroke="#95a5a6" stroke-width="2" fill="none" marker-end="url(#arr)" opacity="0.88"/>
<path d="M1550.0,212.0 C1092.9,212.0 804.1,522.0 346.9,522.0" stroke="#95a5a6" stroke-width="2" fill="none" marker-end="url(#arr)" opacity="0.88"/>
<path d="M1320.6,341.6 C950.6,341.6 716.9,835.6 346.9,835.6" stroke="#e67e22" stroke-width="2" fill="none" marker-end="url(#arr)" opacity="0.88"/>
<path d="M1320.6,341.6 C950.6,341.6 716.9,746.0 346.9,746.0" stroke="#e67e22" stroke-width="2" fill="none" marker-end="url(#arr)" opacity="0.88"/>
<path d="M1320.6,341.6 C1114.1,341.6 983.7,212.0 777.3,212.0" stroke="#e67e22" stroke-width="2" fill="none" marker-end="url(#arr)" opacity="0.88"/>
<path d="M1320.6,341.6 C950.6,341.6 716.9,656.4 346.9,656.4" stroke="#e67e22" stroke-width="2" fill="none" marker-end="url(#arr)" opacity="0.88"/>
<path d="M1320.6,341.6 C950.6,341.6 716.9,611.6 346.9,611.6" stroke="#e67e22" stroke-width="2" fill="none" marker-end="url(#arr)" opacity="0.88"/>
<path d="M1320.6,341.6 C952.1,341.6 719.4,432.4 351.0,432.4" stroke="#e67e22" stroke-width="2" fill="none" marker-end="url(#arr)" opacity="0.88"/>
<path d="M1320.6,341.6 C950.6,341.6 716.9,477.2 346.9,477.2" stroke="#e67e22" stroke-width="2" fill="none" marker-end="url(#arr)" opacity="0.88"/>
<path d="M264.4,548.4 C264.4,545.4 264.4,543.4 264.4,540.4" stroke="#f4d03f" stroke-width="2" fill="none" marker-end="url(#arr)" opacity="0.88"/>
<path d="M1002.7,212.0 C1109.7,212.0 1177.3,296.0 1284.3,296.0" stroke="#2ecc71" stroke-width="2" fill="none" marker-end="url(#arr)" opacity="0.88"/>
<path d="M1002.7,212.0 C1210.7,212.0 1342.1,212.0 1550.0,212.0" stroke="#2ecc71" stroke-width="2" fill="none" marker-end="url(#arr)" opacity="0.88"/>
<path d="M920.1,236.0 C920.1,239.0 920.1,241.0 920.1,244.0" stroke="#2ecc71" stroke-width="2" fill="none" marker-end="url(#arr)" opacity="0.88"/>
<path d="M1002.7,212.0 C1109.7,212.0 1177.3,250.4 1284.3,250.4" stroke="#2ecc71" stroke-width="2" fill="none" marker-end="url(#arr)" opacity="0.88"/>
<path d="M1002.7,212.0 C1123.5,212.0 1199.8,341.6 1320.6,341.6" stroke="#2ecc71" stroke-width="2" fill="none" marker-end="url(#arr)" opacity="0.88"/>
<path d="M837.5,212.0 C651.1,212.0 533.4,522.0 346.9,522.0" stroke="#2ecc71" stroke-width="2" fill="none" marker-end="url(#arr)" opacity="0.88"/>
<path d="M837.5,212.0 C651.1,212.0 533.4,566.8 346.9,566.8" stroke="#2ecc71" stroke-width="2" fill="none" marker-end="url(#arr)" opacity="0.88"/>
<path d="M837.5,212.0 C814.6,212.0 800.2,212.0 777.3,212.0" stroke="#2ecc71" stroke-width="2" fill="none" marker-end="url(#arr)" opacity="0.88"/>
<path d="M837.5,212.0 C652.6,212.0 535.9,432.4 351.0,432.4" stroke="#2ecc71" stroke-width="2" fill="none" marker-end="url(#arr)" opacity="0.88"/>
<path d="M837.5,212.0 C837.5,449.0 346.9,598.6 346.9,835.6" stroke="#2ecc71" stroke-width="2" fill="none" marker-end="url(#arr)" opacity="0.88"/>
<path d="M837.5,212.0 C837.5,414.9 346.9,543.1 346.9,746.0" stroke="#2ecc71" stroke-width="2" fill="none" marker-end="url(#arr)" opacity="0.88"/>
<path d="M1002.7,212.0 C1123.5,212.0 1199.8,204.8 1320.6,204.8" stroke="#2ecc71" stroke-width="2" fill="none" marker-end="url(#arr)" opacity="0.88"/>
<path d="M1002.7,212.0 C1109.7,212.0 1177.3,387.2 1284.3,387.2" stroke="#2ecc71" stroke-width="2" fill="none" marker-end="url(#arr)" opacity="0.88"/>
<path d="M920.1,236.0 C920.1,260.3 920.1,275.7 920.1,300.0" stroke="#2ecc71" stroke-width="2" fill="none" marker-end="url(#arr)" opacity="0.88"/>
<path d="M837.5,212.0 C837.5,431.9 334.8,570.9 334.8,790.8" stroke="#2ecc71" stroke-width="2" fill="none" marker-end="url(#arr)" opacity="0.88"/>
<path d="M837.5,212.0 C651.1,212.0 533.4,611.6 346.9,611.6" stroke="#2ecc71" stroke-width="2" fill="none" marker-end="url(#arr)" opacity="0.88"/>
<path d="M837.5,212.0 C651.1,212.0 533.4,656.4 346.9,656.4" stroke="#2ecc71" stroke-width="2" fill="none" marker-end="url(#arr)" opacity="0.88"/>
<path d="M694.7,300.0 C694.7,297.0 694.7,295.0 694.7,292.0" stroke="#3498db" stroke-width="2" fill="none" marker-end="url(#arr)" opacity="0.88"/>
<path d="M612.1,324.0 C512.9,324.0 450.2,432.4 351.0,432.4" stroke="#3498db" stroke-width="2" fill="none" marker-end="url(#arr)" opacity="0.88"/>
<path d="M777.3,324.0 C970.0,324.0 1091.7,296.0 1284.3,296.0" stroke="#3498db" stroke-width="2" fill="none" marker-end="url(#arr)" opacity="0.88"/>
<path d="M777.3,324.0 C970.0,324.0 1091.7,250.4 1284.3,250.4" stroke="#3498db" stroke-width="2" fill="none" marker-end="url(#arr)" opacity="0.88"/>
<path d="M694.7,300.0 C694.7,275.7 694.7,260.3 694.7,236.0" stroke="#3498db" stroke-width="2" fill="none" marker-end="url(#arr)" opacity="0.88"/>
<path d="M612.1,324.0 C511.4,324.0 447.7,477.2 346.9,477.2" stroke="#3498db" stroke-width="2" fill="none" marker-end="url(#arr)" opacity="0.88"/>
<path d="M777.3,324.0 C983.7,324.0 1114.1,204.8 1320.6,204.8" stroke="#3498db" stroke-width="2" fill="none" marker-end="url(#arr)" opacity="0.88"/>
<path d="M777.3,324.0 C1070.9,324.0 1256.4,212.0 1550.0,212.0" stroke="#3498db" stroke-width="2" fill="none" marker-end="url(#arr)" opacity="0.88"/>
<path d="M777.3,324.0 C983.7,324.0 1114.1,341.6 1320.6,341.6" stroke="#3498db" stroke-width="2" fill="none" marker-end="url(#arr)" opacity="0.88"/>
<path d="M612.1,324.0 C511.4,324.0 447.7,522.0 346.9,522.0" stroke="#3498db" stroke-width="2" fill="none" marker-end="url(#arr)" opacity="0.88"/>
<path d="M612.1,324.0 C511.4,324.0 447.7,566.8 346.9,566.8" stroke="#3498db" stroke-width="2" fill="none" marker-end="url(#arr)" opacity="0.88"/>
<path d="M777.3,324.0 C777.3,281.4 837.5,254.6 837.5,212.0" stroke="#3498db" stroke-width="2" fill="none" marker-end="url(#arr)" opacity="0.88"/>
<path d="M694.7,348.0 C531.2,348.0 427.9,772.4 264.4,772.4" stroke="#3498db" stroke-width="2" fill="none" marker-end="url(#arr)" opacity="0.88"/>
<path d="M612.1,324.0 C612.1,484.4 346.9,585.6 346.9,746.0" stroke="#3498db" stroke-width="2" fill="none" marker-end="url(#arr)" opacity="0.88"/>
<path d="M612.1,324.0 C612.1,433.3 346.9,502.3 346.9,611.6" stroke="#3498db" stroke-width="2" fill="none" marker-end="url(#arr)" opacity="0.88"/>
<path d="M694.7,348.0 C694.7,526.3 264.4,638.9 264.4,817.2" stroke="#3498db" stroke-width="2" fill="none" marker-end="url(#arr)" opacity="0.88"/>
<path d="M612.1,324.0 C612.1,450.3 346.9,530.1 346.9,656.4" stroke="#3498db" stroke-width="2" fill="none" marker-end="url(#arr)" opacity="0.88"/>
<path d="M777.3,324.0 C777.3,302.7 801.3,289.3 801.3,268.0" stroke="#3498db" stroke-width="2" fill="none" marker-end="url(#arr)" opacity="0.88"/>
<path d="M1260.3,296.0 C1350.5,296.0 1407.5,324.0 1497.7,324.0" stroke="#9b59b6" stroke-width="2" fill="none" marker-end="url(#arr)" opacity="0.88"/>
<path d="M1039.0,268.0 C1132.2,268.0 1191.1,296.0 1284.3,296.0" stroke="#2ecc71" stroke-width="2" fill="none" marker-end="url(#arr)" opacity="0.88"/>
<path d="M801.3,268.0 C801.3,246.7 777.3,233.3 777.3,212.0" stroke="#2ecc71" stroke-width="2" fill="none" marker-end="url(#arr)" opacity="0.88"/>
<path d="M801.3,268.0 C630.2,268.0 522.1,432.4 351.0,432.4" stroke="#2ecc71" stroke-width="2" fill="none" marker-end="url(#arr)" opacity="0.88"/>
<path d="M801.3,268.0 C628.6,268.0 519.6,477.2 346.9,477.2" stroke="#2ecc71" stroke-width="2" fill="none" marker-end="url(#arr)" opacity="0.88"/>
<path d="M1039.0,268.0 C1146.0,268.0 1213.6,341.6 1320.6,341.6" stroke="#2ecc71" stroke-width="2" fill="none" marker-end="url(#arr)" opacity="0.88"/>
<path d="M801.3,268.0 C801.3,483.7 346.9,619.9 346.9,835.6" stroke="#2ecc71" stroke-width="2" fill="none" marker-end="url(#arr)" opacity="0.88"/>
<path d="M801.3,268.0 C628.6,268.0 519.6,656.4 346.9,656.4" stroke="#2ecc71" stroke-width="2" fill="none" marker-end="url(#arr)" opacity="0.88"/>
<path d="M801.3,268.0 C801.3,449.6 346.9,564.4 346.9,746.0" stroke="#2ecc71" stroke-width="2" fill="none" marker-end="url(#arr)" opacity="0.88"/>
<path d="M801.3,268.0 C628.6,268.0 519.6,611.6 346.9,611.6" stroke="#2ecc71" stroke-width="2" fill="none" marker-end="url(#arr)" opacity="0.88"/>
<path d="M1039.0,268.0 C1132.2,268.0 1191.1,250.4 1284.3,250.4" stroke="#2ecc71" stroke-width="2" fill="none" marker-end="url(#arr)" opacity="0.88"/>
<path d="M1039.0,268.0 C1146.0,268.0 1213.6,204.8 1320.6,204.8" stroke="#2ecc71" stroke-width="2" fill="none" marker-end="url(#arr)" opacity="0.88"/>
<path d="M801.3,268.0 C628.6,268.0 519.6,566.8 346.9,566.8" stroke="#2ecc71" stroke-width="2" fill="none" marker-end="url(#arr)" opacity="0.88"/>
<path d="M801.3,268.0 C628.6,268.0 519.6,522.0 346.9,522.0" stroke="#2ecc71" stroke-width="2" fill="none" marker-end="url(#arr)" opacity="0.88"/>
<path d="M264.4,727.6 C264.4,690.5 264.4,667.1 264.4,630.0" stroke="#f4d03f" stroke-width="2" fill="none" marker-end="url(#arr)" opacity="0.88"/>
<path d="M264.4,772.4 C264.4,752.3 264.4,739.7 264.4,719.6" stroke="#f4d03f" stroke-width="2" fill="none" marker-end="url(#arr)" opacity="0.88"/>
<path d="M264.4,817.2 C264.4,763.1 264.4,728.9 264.4,674.8" stroke="#f4d03f" stroke-width="2" fill="none" marker-end="url(#arr)" opacity="0.88"/>
<path d="M612.1,380.0 C512.9,380.0 450.2,432.4 351.0,432.4" stroke="#3498db" stroke-width="2" fill="none" marker-end="url(#arr)" opacity="0.88"/>
<path d="M612.1,380.0 C511.4,380.0 447.7,477.2 346.9,477.2" stroke="#3498db" stroke-width="2" fill="none" marker-end="url(#arr)" opacity="0.88"/>
<path d="M777.3,380.0 C970.0,380.0 1091.7,250.4 1284.3,250.4" stroke="#3498db" stroke-width="2" fill="none" marker-end="url(#arr)" opacity="0.88"/>
<path d="M777.3,380.0 C970.0,380.0 1091.7,296.0 1284.3,296.0" stroke="#3498db" stroke-width="2" fill="none" marker-end="url(#arr)" opacity="0.88"/>
<path d="M777.3,380.0 C983.7,380.0 1114.1,341.6 1320.6,341.6" stroke="#3498db" stroke-width="2" fill="none" marker-end="url(#arr)" opacity="0.88"/>
<path d="M612.1,380.0 C511.4,380.0 447.7,522.0 346.9,522.0" stroke="#3498db" stroke-width="2" fill="none" marker-end="url(#arr)" opacity="0.88"/>
<path d="M612.1,380.0 C511.4,380.0 447.7,566.8 346.9,566.8" stroke="#3498db" stroke-width="2" fill="none" marker-end="url(#arr)" opacity="0.88"/>
<path d="M612.1,380.0 C511.4,380.0 447.7,611.6 346.9,611.6" stroke="#3498db" stroke-width="2" fill="none" marker-end="url(#arr)" opacity="0.88"/>
<path d="M612.1,380.0 C612.1,485.0 346.9,551.4 346.9,656.4" stroke="#3498db" stroke-width="2" fill="none" marker-end="url(#arr)" opacity="0.88"/>
<path d="M612.1,380.0 C612.1,519.1 346.9,606.9 346.9,746.0" stroke="#3498db" stroke-width="2" fill="none" marker-end="url(#arr)" opacity="0.88"/>
<path d="M694.7,404.0 C531.2,404.0 427.9,817.2 264.4,817.2" stroke="#3498db" stroke-width="2" fill="none" marker-end="url(#arr)" opacity="0.88"/>
<path d="M694.7,356.0 C694.7,310.4 694.7,281.6 694.7,236.0" stroke="#3498db" stroke-width="2" fill="none" marker-end="url(#arr)" opacity="0.88"/>
<path d="M777.3,380.0 C983.7,380.0 1114.1,204.8 1320.6,204.8" stroke="#3498db" stroke-width="2" fill="none" marker-end="url(#arr)" opacity="0.88"/>
<path d="M1002.7,324.0 C1109.7,324.0 1177.3,296.0 1284.3,296.0" stroke="#2ecc71" stroke-width="2" fill="none" marker-end="url(#arr)" opacity="0.88"/>
<path d="M1002.7,324.0 C1109.7,324.0 1177.3,250.4 1284.3,250.4" stroke="#2ecc71" stroke-width="2" fill="none" marker-end="url(#arr)" opacity="0.88"/>
<path d="M1002.7,324.0 C1210.7,324.0 1342.1,212.0 1550.0,212.0" stroke="#2ecc71" stroke-width="2" fill="none" marker-end="url(#arr)" opacity="0.88"/>
<path d="M1002.7,324.0 C1123.5,324.0 1199.8,341.6 1320.6,341.6" stroke="#2ecc71" stroke-width="2" fill="none" marker-end="url(#arr)" opacity="0.88"/>
<path d="M837.5,324.0 C651.1,324.0 533.4,522.0 346.9,522.0" stroke="#2ecc71" stroke-width="2" fill="none" marker-end="url(#arr)" opacity="0.88"/>
<path d="M837.5,324.0 C651.1,324.0 533.4,566.8 346.9,566.8" stroke="#2ecc71" stroke-width="2" fill="none" marker-end="url(#arr)" opacity="0.88"/>
<path d="M837.5,324.0 C651.1,324.0 533.4,611.6 346.9,611.6" stroke="#2ecc71" stroke-width="2" fill="none" marker-end="url(#arr)" opacity="0.88"/>
<path d="M1002.7,324.0 C1109.7,324.0 1177.3,387.2 1284.3,387.2" stroke="#2ecc71" stroke-width="2" fill="none" marker-end="url(#arr)" opacity="0.88"/>
<path d="M837.5,324.0 C651.1,324.0 533.4,656.4 346.9,656.4" stroke="#2ecc71" stroke-width="2" fill="none" marker-end="url(#arr)" opacity="0.88"/>
<path d="M837.5,324.0 C651.1,324.0 533.4,746.0 346.9,746.0" stroke="#2ecc71" stroke-width="2" fill="none" marker-end="url(#arr)" opacity="0.88"/>
<path d="M837.5,324.0 C646.5,324.0 525.9,790.8 334.8,790.8" stroke="#2ecc71" stroke-width="2" fill="none" marker-end="url(#arr)" opacity="0.88"/>
<path d="M837.5,324.0 C837.5,518.4 346.9,641.2 346.9,835.6" stroke="#2ecc71" stroke-width="2" fill="none" marker-end="url(#arr)" opacity="0.88"/>
<path d="M837.5,324.0 C837.5,281.4 777.3,254.6 777.3,212.0" stroke="#2ecc71" stroke-width="2" fill="none" marker-end="url(#arr)" opacity="0.88"/>
<path d="M837.5,324.0 C652.6,324.0 535.9,432.4 351.0,432.4" stroke="#2ecc71" stroke-width="2" fill="none" marker-end="url(#arr)" opacity="0.88"/>
<path d="M1002.7,324.0 C1123.5,324.0 1199.8,204.8 1320.6,204.8" stroke="#2ecc71" stroke-width="2" fill="none" marker-end="url(#arr)" opacity="0.88"/>
<path d="M837.5,324.0 C655.6,324.0 540.7,701.2 358.7,701.2" stroke="#2ecc71" stroke-width="2" fill="none" marker-end="url(#arr)" opacity="0.88"/>
<path d="M588.1,110.0 C588.1,170.0 612.1,208.0 612.1,268.0" stroke="#e74c3c" stroke-width="2" fill="none" marker-end="url(#arr)" opacity="0.88"/>
<path d="M588.1,110.0 C953.7,110.0 1184.5,212.0 1550.0,212.0" stroke="#e74c3c" stroke-width="2" fill="none" marker-end="url(#arr)" opacity="0.88"/>
<path d="M485.4,130.0 C485.4,357.1 264.4,500.5 264.4,727.6" stroke="#e74c3c" stroke-width="2" fill="none" marker-end="url(#arr)" opacity="0.88"/>
<path d="M485.4,130.0 C485.4,306.0 264.4,417.2 264.4,593.2" stroke="#e74c3c" stroke-width="2" fill="none" marker-end="url(#arr)" opacity="0.88"/>
<path d="M485.4,130.0 C485.4,237.9 264.4,306.1 264.4,414.0" stroke="#e74c3c" stroke-width="2" fill="none" marker-end="url(#arr)" opacity="0.88"/>
<path d="M485.4,130.0 C485.4,254.9 264.4,333.9 264.4,458.8" stroke="#e74c3c" stroke-width="2" fill="none" marker-end="url(#arr)" opacity="0.88"/>
<path d="M588.1,110.0 C588.1,148.8 612.1,173.2 612.1,212.0" stroke="#e74c3c" stroke-width="2" fill="none" marker-end="url(#arr)" opacity="0.88"/>
<path d="M588.1,110.0 C866.5,110.0 1042.3,204.8 1320.6,204.8" stroke="#e74c3c" stroke-width="2" fill="none" marker-end="url(#arr)" opacity="0.88"/>
<path d="M485.4,130.0 C485.4,289.0 264.4,389.4 264.4,548.4" stroke="#e74c3c" stroke-width="2" fill="none" marker-end="url(#arr)" opacity="0.88"/>
<path d="M588.1,110.0 C866.5,110.0 1042.3,341.6 1320.6,341.6" stroke="#e74c3c" stroke-width="2" fill="none" marker-end="url(#arr)" opacity="0.88"/>
<path d="M485.4,130.0 C485.4,391.1 264.4,556.1 264.4,817.2" stroke="#e74c3c" stroke-width="2" fill="none" marker-end="url(#arr)" opacity="0.88"/>
<path d="M857.7,380.0 C857.7,337.4 777.3,310.6 777.3,268.0" stroke="#2ecc71" stroke-width="2" fill="none" marker-end="url(#arr)" opacity="0.88"/>
<path d="M857.7,380.0 C665.1,380.0 543.5,432.4 351.0,432.4" stroke="#2ecc71" stroke-width="2" fill="none" marker-end="url(#arr)" opacity="0.88"/>
<path d="M857.7,380.0 C857.7,316.2 777.3,275.8 777.3,212.0" stroke="#2ecc71" stroke-width="2" fill="none" marker-end="url(#arr)" opacity="0.88"/>
<path d="M857.7,380.0 C663.6,380.0 541.0,477.2 346.9,477.2" stroke="#2ecc71" stroke-width="2" fill="none" marker-end="url(#arr)" opacity="0.88"/>
<path d="M982.5,380.0 C1111.0,380.0 1192.1,204.8 1320.6,204.8" stroke="#2ecc71" stroke-width="2" fill="none" marker-end="url(#arr)" opacity="0.88"/>
<path d="M982.5,380.0 C1111.0,380.0 1192.1,341.6 1320.6,341.6" stroke="#2ecc71" stroke-width="2" fill="none" marker-end="url(#arr)" opacity="0.88"/>
<path d="M857.7,380.0 C663.6,380.0 541.0,522.0 346.9,522.0" stroke="#2ecc71" stroke-width="2" fill="none" marker-end="url(#arr)" opacity="0.88"/>
<path d="M857.7,380.0 C663.6,380.0 541.0,566.8 346.9,566.8" stroke="#2ecc71" stroke-width="2" fill="none" marker-end="url(#arr)" opacity="0.88"/>
<path d="M857.7,380.0 C663.6,380.0 541.0,611.6 346.9,611.6" stroke="#2ecc71" stroke-width="2" fill="none" marker-end="url(#arr)" opacity="0.88"/>
<path d="M857.7,380.0 C663.6,380.0 541.0,656.4 346.9,656.4" stroke="#2ecc71" stroke-width="2" fill="none" marker-end="url(#arr)" opacity="0.88"/>
<path d="M857.7,380.0 C663.6,380.0 541.0,746.0 346.9,746.0" stroke="#2ecc71" stroke-width="2" fill="none" marker-end="url(#arr)" opacity="0.88"/>
<path d="M857.7,380.0 C663.6,380.0 541.0,835.6 346.9,835.6" stroke="#2ecc71" stroke-width="2" fill="none" marker-end="url(#arr)" opacity="0.88"/>
<path d="M588.1,158.0 C588.1,199.8 612.1,226.2 612.1,268.0" stroke="#e74c3c" stroke-width="2" fill="none" marker-end="url(#arr)" opacity="0.88"/>
<path d="M588.1,158.0 C953.7,158.0 1184.5,212.0 1550.0,212.0" stroke="#e74c3c" stroke-width="2" fill="none" marker-end="url(#arr)" opacity="0.88"/>
<path d="M485.4,178.0 C485.4,386.8 264.4,518.8 264.4,727.6" stroke="#e74c3c" stroke-width="2" fill="none" marker-end="url(#arr)" opacity="0.88"/>
<path d="M485.4,178.0 C485.4,335.8 264.4,435.4 264.4,593.2" stroke="#e74c3c" stroke-width="2" fill="none" marker-end="url(#arr)" opacity="0.88"/>
<path d="M485.4,178.0 C485.4,267.7 264.4,324.3 264.4,414.0" stroke="#e74c3c" stroke-width="2" fill="none" marker-end="url(#arr)" opacity="0.88"/>
<path d="M485.4,178.0 C485.4,284.7 264.4,352.1 264.4,458.8" stroke="#e74c3c" stroke-width="2" fill="none" marker-end="url(#arr)" opacity="0.88"/>
<path d="M588.1,158.0 C588.1,178.5 612.1,191.5 612.1,212.0" stroke="#e74c3c" stroke-width="2" fill="none" marker-end="url(#arr)" opacity="0.88"/>
<path d="M588.1,158.0 C866.5,158.0 1042.3,204.8 1320.6,204.8" stroke="#e74c3c" stroke-width="2" fill="none" marker-end="url(#arr)" opacity="0.88"/>
<path d="M485.4,178.0 C485.4,318.8 264.4,407.6 264.4,548.4" stroke="#e74c3c" stroke-width="2" fill="none" marker-end="url(#arr)" opacity="0.88"/>
<path d="M588.1,158.0 C866.5,158.0 1042.3,341.6 1320.6,341.6" stroke="#e74c3c" stroke-width="2" fill="none" marker-end="url(#arr)" opacity="0.88"/>
<path d="M485.4,178.0 C485.4,420.9 264.4,574.3 264.4,817.2" stroke="#e74c3c" stroke-width="2" fill="none" marker-end="url(#arr)" opacity="0.88"/>
<rect x="177.8" y="414.0" width="173.2" height="36.8" rx="6.0" fill="#f4d03f" stroke="#fff" stroke-width="1"/>
<text x="264.4" y="429.5" text-anchor="middle" font-weight="bold" font-size="15.0" fill="#222">cpuid</text>
<text x="264.4" y="442.7" text-anchor="middle" fill="#555" font-size="13.0">include/sched/proc.h</text>
<rect x="612.1" y="188.0" width="165.1" height="48.0" rx="6.0" fill="#3498db" stroke="#fff" stroke-width="1"/>
<text x="694.7" y="205.0" text-anchor="middle" font-weight="bold" font-size="15.0" fill="#222">mycpu</text>
<text x="694.7" y="220.0" text-anchor="middle" fill="#555" font-size="13.0">kernel/sched/proc.c</text>
<rect x="181.8" y="458.8" width="165.1" height="36.8" rx="6.0" fill="#f4d03f" stroke="#fff" stroke-width="1"/>
<text x="264.4" y="474.3" text-anchor="middle" font-weight="bold" font-size="15.0" fill="#222">r_tp</text>
<text x="264.4" y="487.5" text-anchor="middle" fill="#555" font-size="13.0">include/hal/riscv.h</text>
<rect x="1320.6" y="186.0" width="116.8" height="37.6" rx="6.0" fill="#e67e22" stroke="#fff" stroke-width="1"/>
<text x="1379.0" y="201.8" text-anchor="middle" font-weight="bold" font-size="15.0" fill="#222">pop_off</text>
<text x="1379.0" y="215.3" text-anchor="middle" fill="#555" font-size="13.0">kernel/intr.c</text>
<rect x="612.1" y="244.0" width="165.1" height="48.0" rx="6.0" fill="#3498db" stroke="#fff" stroke-width="1"/>
<text x="694.7" y="261.0" text-anchor="middle" font-weight="bold" font-size="15.0" fill="#222">myproc</text>
<text x="694.7" y="276.0" text-anchor="middle" fill="#555" font-size="13.0">kernel/sched/proc.c</text>
<rect x="1284.3" y="231.6" width="189.3" height="37.6" rx="6.0" fill="#e67e22" stroke="#fff" stroke-width="1"/>
<text x="1379.0" y="247.4" text-anchor="middle" font-weight="bold" font-size="15.0" fill="#222">release</text>
<text x="1379.0" y="260.9" text-anchor="middle" fill="#555" font-size="13.0">kernel/sync/spinlock.c</text>
<rect x="1284.3" y="277.2" width="189.3" height="37.6" rx="6.0" fill="#e67e22" stroke="#fff" stroke-width="1"/>
<text x="1379.0" y="293.0" text-anchor="middle" font-weight="bold" font-size="15.0" fill="#222">acquire</text>
<text x="1379.0" y="306.5" text-anchor="middle" fill="#555" font-size="13.0">kernel/sync/spinlock.c</text>
<rect x="1550.0" y="188.0" width="132.9" height="48.0" rx="6.0" fill="#95a5a6" stroke="#fff" stroke-width="1"/>
<text x="1616.5" y="205.0" text-anchor="middle" font-weight="bold" font-size="15.0" fill="#222">printf</text>
<text x="1616.5" y="220.0" text-anchor="middle" fill="#555" font-size="13.0">kernel/printf.c</text>
<rect x="1320.6" y="322.8" width="116.8" height="37.6" rx="6.0" fill="#e67e22" stroke="#fff" stroke-width="1"/>
<text x="1379.0" y="338.6" text-anchor="middle" font-weight="bold" font-size="15.0" fill="#222">push_off</text>
<text x="1379.0" y="352.1" text-anchor="middle" fill="#555" font-size="13.0">kernel/intr.c</text>
<rect x="181.8" y="503.6" width="165.1" height="36.8" rx="6.0" fill="#f4d03f" stroke="#fff" stroke-width="1"/>
<text x="264.4" y="519.1" text-anchor="middle" font-weight="bold" font-size="15.0" fill="#222">set_sstatus_bit</text>
<text x="264.4" y="532.3" text-anchor="middle" fill="#555" font-size="13.0">include/hal/riscv.h</text>
<rect x="181.8" y="548.4" width="165.1" height="36.8" rx="6.0" fill="#f4d03f" stroke="#fff" stroke-width="1"/>
<text x="264.4" y="563.9" text-anchor="middle" font-weight="bold" font-size="15.0" fill="#222">intr_on</text>
<text x="264.4" y="577.1" text-anchor="middle" fill="#555" font-size="13.0">include/hal/riscv.h</text>
<rect x="1525.9" y="244.0" width="181.3" height="48.0" rx="6.0" fill="#95a5a6" stroke="#fff" stroke-width="1"/>
<text x="1616.5" y="261.0" text-anchor="middle" font-weight="bold" font-size="15.0" fill="#222">memset</text>
<text x="1616.5" y="276.0" text-anchor="middle" fill="#555" font-size="13.0">kernel/utils/string.c</text>
<rect x="1497.7" y="300.0" width="237.7" height="48.0" rx="6.0" fill="#95a5a6" stroke="#fff" stroke-width="1"/>
<text x="1616.5" y="317.0" text-anchor="middle" font-weight="bold" font-size="15.0" fill="#222">container_of</text>
<text x="1616.5" y="332.0" text-anchor="middle" fill="#555" font-size="13.0">宏（#define） · include/types.h</text>
<rect x="837.5" y="188.0" width="165.1" height="48.0" rx="6.0" fill="#2ecc71" stroke="#fff" stroke-width="1"/>
<text x="920.1" y="205.0" text-anchor="middle" font-weight="bold" font-size="15.0" fill="#222">kfree</text>
<text x="920.1" y="220.0" text-anchor="middle" fill="#555" font-size="13.0">kernel/mm/kmalloc.c</text>
<rect x="612.1" y="300.0" width="165.1" height="48.0" rx="6.0" fill="#3498db" stroke="#fff" stroke-width="1"/>
<text x="694.7" y="317.0" text-anchor="middle" font-weight="bold" font-size="15.0" fill="#222">exit</text>
<text x="694.7" y="332.0" text-anchor="middle" fill="#555" font-size="13.0">kernel/sched/proc.c</text>
<rect x="181.8" y="593.2" width="165.1" height="36.8" rx="6.0" fill="#f4d03f" stroke="#fff" stroke-width="1"/>
<text x="264.4" y="608.7" text-anchor="middle" font-weight="bold" font-size="15.0" fill="#222">clr_sstatus_bit</text>
<text x="264.4" y="621.9" text-anchor="middle" fill="#555" font-size="13.0">include/hal/riscv.h</text>
<rect x="1284.3" y="368.4" width="189.3" height="37.6" rx="6.0" fill="#e67e22" stroke="#fff" stroke-width="1"/>
<text x="1379.0" y="384.2" text-anchor="middle" font-weight="bold" font-size="15.0" fill="#222">initlock</text>
<text x="1379.0" y="397.7" text-anchor="middle" fill="#555" font-size="13.0">kernel/sync/spinlock.c</text>
<rect x="181.8" y="638.0" width="165.1" height="36.8" rx="6.0" fill="#f4d03f" stroke="#fff" stroke-width="1"/>
<text x="264.4" y="653.5" text-anchor="middle" font-weight="bold" font-size="15.0" fill="#222">r_sstatus</text>
<text x="264.4" y="666.7" text-anchor="middle" fill="#555" font-size="13.0">include/hal/riscv.h</text>
<rect x="1063.0" y="272.0" width="197.4" height="48.0" rx="6.0" fill="#9b59b6" stroke="#fff" stroke-width="1"/>
<text x="1161.7" y="289.0" text-anchor="middle" font-weight="bold" font-size="15.0" fill="#222">sb2fat</text>
<text x="1161.7" y="304.0" text-anchor="middle" fill="#555" font-size="13.0">kernel/fs/fat32/fat32.h</text>
<rect x="801.3" y="244.0" width="237.7" height="48.0" rx="6.0" fill="#2ecc71" stroke="#fff" stroke-width="1"/>
<text x="920.1" y="261.0" text-anchor="middle" font-weight="bold" font-size="15.0" fill="#222">freepage</text>
<text x="920.1" y="276.0" text-anchor="middle" fill="#555" font-size="13.0">宏（#define） · include/mm/pm.h</text>
<rect x="170.0" y="682.8" width="188.7" height="36.8" rx="6.0" fill="#f4d03f" stroke="#fff" stroke-width="1"/>
<text x="264.4" y="698.3" text-anchor="middle" font-weight="bold" font-size="15.0" fill="#222">sbi_console_putchar</text>
<text x="264.4" y="711.5" text-anchor="middle" fill="#555" font-size="13.0">include/sbi.h</text>
<rect x="181.8" y="727.6" width="165.1" height="36.8" rx="6.0" fill="#f4d03f" stroke="#fff" stroke-width="1"/>
<text x="264.4" y="743.1" text-anchor="middle" font-weight="bold" font-size="15.0" fill="#222">intr_off</text>
<text x="264.4" y="756.3" text-anchor="middle" fill="#555" font-size="13.0">include/hal/riscv.h</text>
<rect x="193.9" y="772.4" width="141.0" height="36.8" rx="6.0" fill="#f4d03f" stroke="#fff" stroke-width="1"/>
<text x="264.4" y="787.9" text-anchor="middle" font-weight="bold" font-size="15.0" fill="#222">consputc</text>
<text x="264.4" y="801.1" text-anchor="middle" fill="#555" font-size="13.0">kernel/console.c</text>
<rect x="181.8" y="817.2" width="165.1" height="36.8" rx="6.0" fill="#f4d03f" stroke="#fff" stroke-width="1"/>
<text x="264.4" y="832.7" text-anchor="middle" font-weight="bold" font-size="15.0" fill="#222">intr_get</text>
<text x="264.4" y="845.9" text-anchor="middle" fill="#555" font-size="13.0">include/hal/riscv.h</text>
<rect x="1525.9" y="356.0" width="181.3" height="48.0" rx="6.0" fill="#95a5a6" stroke="#fff" stroke-width="1"/>
<text x="1616.5" y="373.0" text-anchor="middle" font-weight="bold" font-size="15.0" fill="#222">memmove</text>
<text x="1616.5" y="388.0" text-anchor="middle" fill="#555" font-size="13.0">kernel/utils/string.c</text>
<rect x="612.1" y="356.0" width="165.1" height="48.0" rx="6.0" fill="#3498db" stroke="#fff" stroke-width="1"/>
<text x="694.7" y="373.0" text-anchor="middle" font-weight="bold" font-size="15.0" fill="#222">wakeup</text>
<text x="694.7" y="388.0" text-anchor="middle" fill="#555" font-size="13.0">kernel/sched/proc.c</text>
<rect x="837.5" y="300.0" width="165.1" height="48.0" rx="6.0" fill="#2ecc71" stroke="#fff" stroke-width="1"/>
<text x="920.1" y="317.0" text-anchor="middle" font-weight="bold" font-size="15.0" fill="#222">kmalloc</text>
<text x="920.1" y="332.0" text-anchor="middle" fill="#555" font-size="13.0">kernel/mm/kmalloc.c</text>
<rect x="382.7" y="90.0" width="205.4" height="40.0" rx="6.0" fill="#e74c3c" stroke="#fff" stroke-width="1"/>
<text x="485.4" y="106.8" text-anchor="middle" font-weight="bold" font-size="15.0" fill="#222">argaddr</text>
<text x="485.4" y="121.2" text-anchor="middle" fill="#555" font-size="13.0">kernel/syscall/syscall.c</text>
<rect x="857.7" y="356.0" width="124.8" height="48.0" rx="6.0" fill="#2ecc71" stroke="#fff" stroke-width="1"/>
<text x="920.1" y="373.0" text-anchor="middle" font-weight="bold" font-size="15.0" fill="#222">safememmove</text>
<text x="920.1" y="388.0" text-anchor="middle" fill="#555" font-size="13.0">kernel/mm/vm.c</text>
<rect x="382.7" y="138.0" width="205.4" height="40.0" rx="6.0" fill="#e74c3c" stroke="#fff" stroke-width="1"/>
<text x="485.4" y="154.8" text-anchor="middle" font-weight="bold" font-size="15.0" fill="#222">argint</text>
<text x="485.4" y="169.2" text-anchor="middle" fill="#555" font-size="13.0">kernel/syscall/syscall.c</text>
</svg>