<svg width="1939.4" height="930.0" xmlns="http://www.w3.org/2000/svg" font-family='system-ui, -apple-system, "Segoe UI", Roboto, "Helvetica Neue", Arial, "PingFang SC", "Microsoft YaHei", sans-serif' font-size='13'>
<defs><marker id="arr" markerWidth="10" markerHeight="10" refX="9" refY="3.5" orient="auto" markerUnits="userSpaceOnUse"><path d="M0,0 L0,7 L10,3.5 z" fill="#444"/></marker></defs>
<rect width="1939.4" height="930.0" fill="#fafafa"/>
<line x1="142.0" y1="46.0" x2="1919.4" y2="46.0" stroke="#ddd" stroke-width="1"/>
<line x1="142.0" y1="186.0" x2="1919.4" y2="186.0" stroke="#ddd" stroke-width="1"/>
<line x1="142.0" y1="282.0" x2="1919.4" y2="282.0" stroke="#ddd" stroke-width="1"/>
<line x1="142.0" y1="510.0" x2="1919.4" y2="510.0" stroke="#ddd" stroke-width="1"/>
<line x1="142.0" y1="870.0" x2="1919.4" y2="870.0" stroke="#ddd" stroke-width="1"/>
<line x1="142.0" y1="910.0" x2="1919.4" y2="910.0" stroke="#ddd" stroke-width="1"/>
<line x1="158.0" y1="46.0" x2="158.0" y2="910.0" stroke="#ddd" stroke-width="1"/>
<line x1="370.7" y1="46.0" x2="370.7" y2="910.0" stroke="#ddd" stroke-width="1"/>
<line x1="600.1" y1="46.0" x2="600.1" y2="910.0" stroke="#ddd" stroke-width="1"/>
<line x1="797.3" y1="46.0" x2="797.3" y2="910.0" stroke="#ddd" stroke-width="1"/>
<line x1="1059.0" y1="46.0" x2="1059.0" y2="910.0" stroke="#ddd" stroke-width="1"/>
<line x1="1280.4" y1="46.0" x2="1280.4" y2="910.0" stroke="#ddd" stroke-width="1"/>
<line x1="1493.7" y1="46.0" x2="1493.7" y2="910.0" stroke="#ddd" stroke-width="1"/>
<line x1="1755.4" y1="46.0" x2="1755.4" y2="910.0" stroke="#ddd" stroke-width="1"/>
<line x1="1837.4" y1="46.0" x2="1837.4" y2="910.0" stroke="#ddd" stroke-width="1"/>
<line x1="1919.4" y1="46.0" x2="1919.4" y2="910.0" stroke="#ddd" stroke-width="1"/>
<text x="137.0" y="121.0" text-anchor="end" fill="#111827" font-size="12" font-weight="600">userspace</text>
<text x="137.0" y="239.0" text-anchor="end" fill="#111827" font-size="12" font-weight="600">syscall_boundary</text>
<text x="137.0" y="401.0" text-anchor="end" fill="#111827" font-size="12" font-weight="600">kernel</text>
<text x="137.0" y="695.0" text-anchor="end" fill="#111827" font-size="12" font-weight="600">hardware</text>
<text x="137.0" y="895.0" text-anchor="end" fill="#111827" font-size="12" font-weight="600">unknown</text>
<text text-anchor="middle" font-size="13" font-weight="600" fill="#111827"><tspan x="264.4" y="19.0">arch</tspan><tspan x="264.4" dy="12.0">platform</tspan></text>
<text text-anchor="middle" font-size="13" font-weight="600" fill="#111827"><tspan x="485.4" y="19.0">trap</tspan><tspan x="485.4" dy="12.0">syscall</tspan></text>
<text text-anchor="middle" font-size="13" font-weight="600" fill="#111827"><tspan x="698.7" y="19.0">process</tspan><tspan x="698.7" dy="12.0">sched</tspan></text>
<text text-anchor="middle" font-size="13" font-weight="600" fill="#111827"><tspan x="928.2" y="19.0">memory</tspan><tspan x="928.2" dy="12.0">vm</tspan></text>
<text text-anchor="middle" font-size="13" font-weight="600" fill="#111827"><tspan x="1169.7" y="19.0">fs</tspan><tspan x="1169.7" dy="12.0">storage</tspan></text>
<text text-anchor="middle" font-size="13" font-weight="600" fill="#111827"><tspan x="1387.1" y="19.0">sync</tspan><tspan x="1387.1" dy="12.0">ipc</tspan></text>
<text text-anchor="middle" font-size="13" font-weight="600" fill="#111827"><tspan x="1624.6" y="19.0">runtime</tspan><tspan x="1624.6" dy="12.0">common</tspan></text>
<text text-anchor="middle" font-size="12" font-weight="600" fill="#111827"><tspan x="1796.4" y="19.0">user</tspan><tspan x="1796.4" dy="12.0">programs</tspan></text>
<text x="1878.4" y="30.0" text-anchor="middle" font-size="12" font-weight="600" fill="#111827">unknown</text>
<path d="M612.1,304.8 C511.4,304.8 447.7,532.5 346.9,532.5" stroke="#3498db" stroke-width="2" fill="none" marker-end="url(#arr)" opacity="0.88"/>
<path d="M698.7,331.6 C698.7,328.6 698.7,326.6 698.7,323.6" stroke="#3498db" stroke-width="2" fill="none" marker-end="url(#arr)" opacity="0.88"/>
<path d="M616.2,350.4 C513.9,350.4 449.2,532.5 346.9,532.5" stroke="#3498db" stroke-width="2" fill="none" marker-end="url(#arr)" opacity="0.88"/>
<path d="M543.8,368.0 C571.3,368.0 588.7,350.4 616.2,350.4" stroke="#e74c3c" stroke-width="2" fill="none" marker-end="url(#arr)" opacity="0.88"/>
<path d="M485.4,392.0 C401.4,392.0 348.4,604.0 264.4,604.0" stroke="#e74c3c" stroke-width="2" fill="none" marker-end="url(#arr)" opacity="0.88"/>
<path d="M427.0,368.0 C427.0,447.6 346.9,497.9 346.9,577.5" stroke="#e74c3c" stroke-width="2" fill="none" marker-end="url(#arr)" opacity="0.88"/>
<path d="M543.8,368.0 C569.8,368.0 586.2,304.8 612.1,304.8" stroke="#e74c3c" stroke-width="2" fill="none" marker-end="url(#arr)" opacity="0.88"/>
<path d="M427.0,368.0 C427.0,430.5 346.9,470.0 346.9,532.5" stroke="#e74c3c" stroke-width="2" fill="none" marker-end="url(#arr)" opacity="0.88"/>
<path d="M616.2,396.0 C588.7,396.0 571.3,424.0 543.8,424.0" stroke="#3498db" stroke-width="2" fill="none" marker-end="url(#arr)" opacity="0.88"/>
<path d="M698.7,377.2 C698.7,374.2 698.7,372.2 698.7,369.2" stroke="#3498db" stroke-width="2" fill="none" marker-end="url(#arr)" opacity="0.88"/>
<path d="M616.2,396.0 C588.7,396.0 571.3,368.0 543.8,368.0" stroke="#3498db" stroke-width="2" fill="none" marker-end="url(#arr)" opacity="0.88"/>
<path d="M616.2,396.0 C513.9,396.0 449.2,532.5 346.9,532.5" stroke="#3498db" stroke-width="2" fill="none" marker-end="url(#arr)" opacity="0.88"/>
<path d="M698.7,377.2 C698.7,356.8 698.7,344.0 698.7,323.6" stroke="#3498db" stroke-width="2" fill="none" marker-end="url(#arr)" opacity="0.88"/>
<path d="M616.2,396.0 C513.9,396.0 449.2,622.5 346.9,622.5" stroke="#3498db" stroke-width="2" fill="none" marker-end="url(#arr)" opacity="0.88"/>
<path d="M616.2,396.0 C513.9,396.0 449.2,577.5 346.9,577.5" stroke="#3498db" stroke-width="2" fill="none" marker-end="url(#arr)" opacity="0.88"/>
<path d="M698.7,414.8 C533.7,414.8 429.4,829.0 264.4,829.0" stroke="#3498db" stroke-width="2" fill="none" marker-end="url(#arr)" opacity="0.88"/>
<path d="M616.2,396.0 C616.2,516.3 346.9,592.2 346.9,712.5" stroke="#3498db" stroke-width="2" fill="none" marker-end="url(#arr)" opacity="0.88"/>
<path d="M616.2,396.0 C616.2,550.5 346.9,648.0 346.9,802.5" stroke="#3498db" stroke-width="2" fill="none" marker-end="url(#arr)" opacity="0.88"/>
<path d="M616.2,396.0 C616.2,499.2 346.9,564.3 346.9,667.5" stroke="#3498db" stroke-width="2" fill="none" marker-end="url(#arr)" opacity="0.88"/>
<path d="M1292.4,340.0 C1007.9,340.0 828.3,368.0 543.8,368.0" stroke="#e67e22" stroke-width="2" fill="none" marker-end="url(#arr)" opacity="0.88"/>
<path d="M1292.4,340.0 C933.1,340.0 706.2,622.5 346.9,622.5" stroke="#e67e22" stroke-width="2" fill="none" marker-end="url(#arr)" opacity="0.88"/>
<path d="M1292.4,340.0 C933.1,340.0 706.2,577.5 346.9,577.5" stroke="#e67e22" stroke-width="2" fill="none" marker-end="url(#arr)" opacity="0.88"/>
<path d="M1292.4,340.0 C1098.2,340.0 975.5,350.4 781.3,350.4" stroke="#e67e22" stroke-width="2" fill="none" marker-end="url(#arr)" opacity="0.88"/>
<path d="M1292.4,340.0 C1099.7,340.0 978.0,304.8 785.3,304.8" stroke="#e67e22" stroke-width="2" fill="none" marker-end="url(#arr)" opacity="0.88"/>
<path d="M1292.4,340.0 C933.1,340.0 706.2,532.5 346.9,532.5" stroke="#e67e22" stroke-width="2" fill="none" marker-end="url(#arr)" opacity="0.88"/>
<path d="M1292.4,396.0 C1007.9,396.0 828.3,424.0 543.8,424.0" stroke="#e67e22" stroke-width="2" fill="none" marker-end="url(#arr)" opacity="0.88"/>
<path d="M1292.4,396.0 C1098.2,396.0 975.5,350.4 781.3,350.4" stroke="#e67e22" stroke-width="2" fill="none" marker-end="url(#arr)" opacity="0.88"/>
<path d="M1292.4,396.0 C1099.7,396.0 978.0,304.8 785.3,304.8" stroke="#e67e22" stroke-width="2" fill="none" marker-end="url(#arr)" opacity="0.88"/>
<path d="M1292.4,396.0 C933.1,396.0 706.2,532.5 346.9,532.5" stroke="#e67e22" stroke-width="2" fill="none" marker-end="url(#arr)" opacity="0.88"/>
<path d="M1292.4,396.0 C933.1,396.0 706.2,847.5 346.9,847.5" stroke="#e67e22" stroke-width="2" fill="none" marker-end="url(#arr)" opacity="0.88"/>
<path d="M1292.4,396.0 C933.1,396.0 706.2,712.5 346.9,712.5" stroke="#e67e22" stroke-width="2" fill="none" marker-end="url(#arr)" opacity="0.88"/>
<path d="M1292.4,396.0 C933.1,396.0 706.2,802.5 346.9,802.5" stroke="#e67e22" stroke-width="2" fill="none" marker-end="url(#arr)" opacity="0.88"/>
<path d="M1292.4,396.0 C933.1,396.0 706.2,667.5 346.9,667.5" stroke="#e67e22" stroke-width="2" fill="none" marker-end="url(#arr)" opacity="0.88"/>
<path d="M1624.6,88.7 C1624.6,196.3 1387.1,264.3 1387.1,372.0" stroke="#95a5a6" stroke-width="2" fill="none" marker-end="url(#arr)" opacity="0.88"/>
<path d="M1550.0,69.3 C1088.3,69.3 796.6,396.0 334.8,396.0" stroke="#95a5a6" stroke-width="2" fill="none" marker-end="url(#arr)" opacity="0.88"/>
<path d="M1624.6,88.7 C1534.3,88.7 1477.3,316.0 1387.1,316.0" stroke="#95a5a6" stroke-width="2" fill="none" marker-end="url(#arr)" opacity="0.88"/>
<path d="M485.4,448.0 C485.4,592.8 264.4,684.2 264.4,829.0" stroke="#e74c3c" stroke-width="2" fill="none" marker-end="url(#arr)" opacity="0.88"/>
<path d="M485.4,448.0 C485.4,575.7 264.4,656.3 264.4,784.0" stroke="#e74c3c" stroke-width="2" fill="none" marker-end="url(#arr)" opacity="0.88"/>
<path d="M543.8,424.0 C543.8,396.0 616.2,378.4 616.2,350.4" stroke="#e74c3c" stroke-width="2" fill="none" marker-end="url(#arr)" opacity="0.88"/>
<path d="M485.4,448.0 C485.4,541.5 264.4,600.5 264.4,694.0" stroke="#e74c3c" stroke-width="2" fill="none" marker-end="url(#arr)" opacity="0.88"/>
<path d="M485.4,448.0 C401.4,448.0 348.4,649.0 264.4,649.0" stroke="#e74c3c" stroke-width="2" fill="none" marker-end="url(#arr)" opacity="0.88"/>
<path d="M543.8,424.0 C543.8,378.7 612.1,350.1 612.1,304.8" stroke="#e74c3c" stroke-width="2" fill="none" marker-end="url(#arr)" opacity="0.88"/>
<path d="M427.0,424.0 C427.0,465.2 346.9,491.3 346.9,532.5" stroke="#e74c3c" stroke-width="2" fill="none" marker-end="url(#arr)" opacity="0.88"/>
<path d="M264.4,604.0 C264.4,601.0 264.4,599.0 264.4,596.0" stroke="#f4d03f" stroke-width="2" fill="none" marker-end="url(#arr)" opacity="0.88"/>
<path d="M1010.8,312.0 C1117.8,312.0 1185.4,396.0 1292.4,396.0" stroke="#2ecc71" stroke-width="2" fill="none" marker-end="url(#arr)" opacity="0.88"/>
<path d="M1010.8,312.0 C1215.7,312.0 1345.1,69.3 1550.0,69.3" stroke="#2ecc71" stroke-width="2" fill="none" marker-end="url(#arr)" opacity="0.88"/>
<path d="M928.2,336.0 C928.2,339.0 928.2,341.0 928.2,344.0" stroke="#2ecc71" stroke-width="2" fill="none" marker-end="url(#arr)" opacity="0.88"/>
<path d="M1010.8,312.0 C1117.8,312.0 1185.4,340.0 1292.4,340.0" stroke="#2ecc71" stroke-width="2" fill="none" marker-end="url(#arr)" opacity="0.88"/>
<path d="M845.6,312.0 C821.2,312.0 805.7,350.4 781.3,350.4" stroke="#2ecc71" stroke-width="2" fill="none" marker-end="url(#arr)" opacity="0.88"/>
<path d="M845.6,312.0 C822.7,312.0 808.2,304.8 785.3,304.8" stroke="#2ecc71" stroke-width="2" fill="none" marker-end="url(#arr)" opacity="0.88"/>
<path d="M845.6,312.0 C656.1,312.0 536.4,532.5 346.9,532.5" stroke="#2ecc71" stroke-width="2" fill="none" marker-end="url(#arr)" opacity="0.88"/>
<path d="M845.6,312.0 C730.9,312.0 658.5,424.0 543.8,424.0" stroke="#2ecc71" stroke-width="2" fill="none" marker-end="url(#arr)" opacity="0.88"/>
<path d="M845.6,312.0 C845.6,515.5 346.9,644.0 346.9,847.5" stroke="#2ecc71" stroke-width="2" fill="none" marker-end="url(#arr)" opacity="0.88"/>
<path d="M845.6,312.0 C656.1,312.0 536.4,712.5 346.9,712.5" stroke="#2ecc71" stroke-width="2" fill="none" marker-end="url(#arr)" opacity="0.88"/>
<path d="M845.6,312.0 C656.1,312.0 536.4,802.5 346.9,802.5" stroke="#2ecc71" stroke-width="2" fill="none" marker-end="url(#arr)" opacity="0.88"/>
<path d="M845.6,312.0 C656.1,312.0 536.4,667.5 346.9,667.5" stroke="#2ecc71" stroke-width="2" fill="none" marker-end="url(#arr)" opacity="0.88"/>
<path d="M1010.8,312.0 C1117.8,312.0 1185.4,452.0 1292.4,452.0" stroke="#2ecc71" stroke-width="2" fill="none" marker-end="url(#arr)" opacity="0.88"/>
<path d="M928.2,336.0 C928.2,360.3 928.2,375.7 928.2,400.0" stroke="#2ecc71" stroke-width="2" fill="none" marker-end="url(#arr)" opacity="0.88"/>
<path d="M845.6,312.0 C730.9,312.0 658.5,368.0 543.8,368.0" stroke="#2ecc71" stroke-width="2" fill="none" marker-end="url(#arr)" opacity="0.88"/>
<path d="M698.7,422.8 C698.7,419.8 698.7,417.8 698.7,414.8" stroke="#3498db" stroke-width="2" fill="none" marker-end="url(#arr)" opacity="0.88"/>
<path d="M698.7,422.8 C698.7,385.1 698.7,361.3 698.7,323.6" stroke="#3498db" stroke-width="2" fill="none" marker-end="url(#arr)" opacity="0.88"/>
<path d="M781.3,441.6 C975.5,441.6 1098.2,396.0 1292.4,396.0" stroke="#3498db" stroke-width="2" fill="none" marker-end="url(#arr)" opacity="0.88"/>
<path d="M781.3,441.6 C975.5,441.6 1098.2,340.0 1292.4,340.0" stroke="#3498db" stroke-width="2" fill="none" marker-end="url(#arr)" opacity="0.88"/>
<path d="M698.7,422.8 C698.7,402.4 698.7,389.6 698.7,369.2" stroke="#3498db" stroke-width="2" fill="none" marker-end="url(#arr)" opacity="0.88"/>
<path d="M616.2,441.6 C513.9,441.6 449.2,532.5 346.9,532.5" stroke="#3498db" stroke-width="2" fill="none" marker-end="url(#arr)" opacity="0.88"/>
<path d="M616.2,441.6 C616.2,413.6 543.8,396.0 543.8,368.0" stroke="#3498db" stroke-width="2" fill="none" marker-end="url(#arr)" opacity="0.88"/>
<path d="M781.3,441.6 C1073.4,441.6 1257.9,69.3 1550.0,69.3" stroke="#3498db" stroke-width="2" fill="none" marker-end="url(#arr)" opacity="0.88"/>
<path d="M616.2,441.6 C588.7,441.6 571.3,424.0 543.8,424.0" stroke="#3498db" stroke-width="2" fill="none" marker-end="url(#arr)" opacity="0.88"/>
<path d="M616.2,441.6 C513.9,441.6 449.2,577.5 346.9,577.5" stroke="#3498db" stroke-width="2" fill="none" marker-end="url(#arr)" opacity="0.88"/>
<path d="M616.2,441.6 C513.9,441.6 449.2,622.5 346.9,622.5" stroke="#3498db" stroke-width="2" fill="none" marker-end="url(#arr)" opacity="0.88"/>
<path d="M616.2,441.6 C616.2,595.8 346.9,693.3 346.9,847.5" stroke="#3498db" stroke-width="2" fill="none" marker-end="url(#arr)" opacity="0.88"/>
<path d="M616.2,441.6 C616.2,544.5 346.9,609.6 346.9,712.5" stroke="#3498db" stroke-width="2" fill="none" marker-end="url(#arr)" opacity="0.88"/>
<path d="M616.2,441.6 C616.2,578.7 346.9,665.4 346.9,802.5" stroke="#3498db" stroke-width="2" fill="none" marker-end="url(#arr)" opacity="0.88"/>
<path d="M616.2,441.6 C513.9,441.6 449.2,667.5 346.9,667.5" stroke="#3498db" stroke-width="2" fill="none" marker-end="url(#arr)" opacity="0.88"/>
<path d="M1268.4,396.0 C1358.6,396.0 1415.5,396.0 1505.7,396.0" stroke="#9b59b6" stroke-width="2" fill="none" marker-end="url(#arr)" opacity="0.88"/>
<path d="M264.4,784.0 C264.4,746.8 264.4,723.2 264.4,686.0" stroke="#f4d03f" stroke-width="2" fill="none" marker-end="url(#arr)" opacity="0.88"/>
<path d="M264.4,420.0 C264.4,541.2 264.4,617.8 264.4,739.0" stroke="#f4d03f" stroke-width="2" fill="none" marker-end="url(#arr)" opacity="0.88"/>
<path d="M264.4,829.0 C264.4,791.8 264.4,768.2 264.4,731.0" stroke="#f4d03f" stroke-width="2" fill="none" marker-end="url(#arr)" opacity="0.88"/>
<path d="M698.7,468.4 C698.7,413.4 698.7,378.6 698.7,323.6" stroke="#3498db" stroke-width="2" fill="none" marker-end="url(#arr)" opacity="0.88"/>
<path d="M616.2,487.2 C513.9,487.2 449.2,532.5 346.9,532.5" stroke="#3498db" stroke-width="2" fill="none" marker-end="url(#arr)" opacity="0.88"/>
<path d="M781.3,487.2 C975.5,487.2 1098.2,340.0 1292.4,340.0" stroke="#3498db" stroke-width="2" fill="none" marker-end="url(#arr)" opacity="0.88"/>
<path d="M781.3,487.2 C975.5,487.2 1098.2,396.0 1292.4,396.0" stroke="#3498db" stroke-width="2" fill="none" marker-end="url(#arr)" opacity="0.88"/>
<path d="M616.2,487.2 C588.7,487.2 571.3,424.0 543.8,424.0" stroke="#3498db" stroke-width="2" fill="none" marker-end="url(#arr)" opacity="0.88"/>
<path d="M616.2,487.2 C513.9,487.2 449.2,577.5 346.9,577.5" stroke="#3498db" stroke-width="2" fill="none" marker-end="url(#arr)" opacity="0.88"/>
<path d="M616.2,487.2 C513.9,487.2 449.2,622.5 346.9,622.5" stroke="#3498db" stroke-width="2" fill="none" marker-end="url(#arr)" opacity="0.88"/>
<path d="M616.2,487.2 C513.9,487.2 449.2,667.5 346.9,667.5" stroke="#3498db" stroke-width="2" fill="none" marker-end="url(#arr)" opacity="0.88"/>
<path d="M616.2,487.2 C513.9,487.2 449.2,712.5 346.9,712.5" stroke="#3498db" stroke-width="2" fill="none" marker-end="url(#arr)" opacity="0.88"/>
<path d="M616.2,487.2 C616.2,607.0 346.9,682.7 346.9,802.5" stroke="#3498db" stroke-width="2" fill="none" marker-end="url(#arr)" opacity="0.88"/>
<path d="M616.2,487.2 C616.2,624.1 346.9,710.6 346.9,847.5" stroke="#3498db" stroke-width="2" fill="none" marker-end="url(#arr)" opacity="0.88"/>
<path d="M698.7,468.4 C698.7,430.7 698.7,406.9 698.7,369.2" stroke="#3498db" stroke-width="2" fill="none" marker-end="url(#arr)" opacity="0.88"/>
<path d="M616.2,487.2 C616.2,441.9 543.8,413.3 543.8,368.0" stroke="#3498db" stroke-width="2" fill="none" marker-end="url(#arr)" opacity="0.88"/>
<path d="M1010.8,424.0 C1117.8,424.0 1185.4,396.0 1292.4,396.0" stroke="#2ecc71" stroke-width="2" fill="none" marker-end="url(#arr)" opacity="0.88"/>
<path d="M1010.8,424.0 C1117.8,424.0 1185.4,340.0 1292.4,340.0" stroke="#2ecc71" stroke-width="2" fill="none" marker-end="url(#arr)" opacity="0.88"/>
<path d="M845.6,424.0 C656.1,424.0 536.4,667.5 346.9,667.5" stroke="#2ecc71" stroke-width="2" fill="none" marker-end="url(#arr)" opacity="0.88"/>
<path d="M1010.8,424.0 C1117.8,424.0 1185.4,452.0 1292.4,452.0" stroke="#2ecc71" stroke-width="2" fill="none" marker-end="url(#arr)" opacity="0.88"/>
<path d="M845.6,424.0 C656.1,424.0 536.4,712.5 346.9,712.5" stroke="#2ecc71" stroke-width="2" fill="none" marker-end="url(#arr)" opacity="0.88"/>
<path d="M845.6,424.0 C656.1,424.0 536.4,802.5 346.9,802.5" stroke="#2ecc71" stroke-width="2" fill="none" marker-end="url(#arr)" opacity="0.88"/>
<path d="M845.6,424.0 C656.1,424.0 536.4,847.5 346.9,847.5" stroke="#2ecc71" stroke-width="2" fill="none" marker-end="url(#arr)" opacity="0.88"/>
<path d="M845.6,424.0 C845.6,396.0 781.3,378.4 781.3,350.4" stroke="#2ecc71" stroke-width="2" fill="none" marker-end="url(#arr)" opacity="0.88"/>
<path d="M845.6,424.0 C845.6,378.7 785.3,350.1 785.3,304.8" stroke="#2ecc71" stroke-width="2" fill="none" marker-end="url(#arr)" opacity="0.88"/>
<path d="M845.6,424.0 C656.1,424.0 536.4,532.5 346.9,532.5" stroke="#2ecc71" stroke-width="2" fill="none" marker-end="url(#arr)" opacity="0.88"/>
<path d="M845.6,424.0 C730.9,424.0 658.5,424.0 543.8,424.0" stroke="#2ecc71" stroke-width="2" fill="none" marker-end="url(#arr)" opacity="0.88"/>
<path d="M845.6,424.0 C730.9,424.0 658.5,368.0 543.8,368.0" stroke="#2ecc71" stroke-width="2" fill="none" marker-end="url(#arr)" opacity="0.88"/>
<path d="M845.6,424.0 C656.1,424.0 536.4,622.5 346.9,622.5" stroke="#2ecc71" stroke-width="2" fill="none" marker-end="url(#arr)" opacity="0.88"/>
<path d="M1010.8,424.0 C1215.7,424.0 1345.1,69.3 1550.0,69.3" stroke="#2ecc71" stroke-width="2" fill="none" marker-end="url(#arr)" opacity="0.88"/>
<path d="M588.1,210.0 C588.1,280.7 616.2,325.3 616.2,396.0" stroke="#e74c3c" stroke-width="2" fill="none" marker-end="url(#arr)" opacity="0.88"/>
<path d="M588.1,210.0 C953.7,210.0 1184.5,69.3 1550.0,69.3" stroke="#e74c3c" stroke-width="2" fill="none" marker-end="url(#arr)" opacity="0.88"/>
<path d="M588.1,210.0 C588.1,246.0 612.1,268.8 612.1,304.8" stroke="#e74c3c" stroke-width="2" fill="none" marker-end="url(#arr)" opacity="0.88"/>
<path d="M485.4,230.0 C485.4,337.9 264.4,406.1 264.4,514.0" stroke="#e74c3c" stroke-width="2" fill="none" marker-end="url(#arr)" opacity="0.88"/>
<path d="M588.1,210.0 C588.1,263.4 616.2,297.0 616.2,350.4" stroke="#e74c3c" stroke-width="2" fill="none" marker-end="url(#arr)" opacity="0.88"/>
<path d="M485.4,230.0 C485.4,273.3 485.4,300.7 485.4,344.0" stroke="#e74c3c" stroke-width="2" fill="none" marker-end="url(#arr)" opacity="0.88"/>
<path d="M485.4,230.0 C485.4,372.1 264.4,461.9 264.4,604.0" stroke="#e74c3c" stroke-width="2" fill="none" marker-end="url(#arr)" opacity="0.88"/>
<path d="M485.4,230.0 C485.4,294.6 485.4,335.4 485.4,400.0" stroke="#e74c3c" stroke-width="2" fill="none" marker-end="url(#arr)" opacity="0.88"/>
<path d="M485.4,230.0 C485.4,457.6 264.4,601.4 264.4,829.0" stroke="#e74c3c" stroke-width="2" fill="none" marker-end="url(#arr)" opacity="0.88"/>
<path d="M485.4,230.0 C485.4,440.5 264.4,573.5 264.4,784.0" stroke="#e74c3c" stroke-width="2" fill="none" marker-end="url(#arr)" opacity="0.88"/>
<path d="M865.8,480.0 C833.7,480.0 813.4,396.0 781.3,396.0" stroke="#2ecc71" stroke-width="2" fill="none" marker-end="url(#arr)" opacity="0.88"/>
<path d="M865.8,480.0 C865.8,430.8 781.3,399.6 781.3,350.4" stroke="#2ecc71" stroke-width="2" fill="none" marker-end="url(#arr)" opacity="0.88"/>
<path d="M865.8,480.0 C865.8,413.4 785.3,371.4 785.3,304.8" stroke="#2ecc71" stroke-width="2" fill="none" marker-end="url(#arr)" opacity="0.88"/>
<path d="M865.8,480.0 C668.6,480.0 544.1,532.5 346.9,532.5" stroke="#2ecc71" stroke-width="2" fill="none" marker-end="url(#arr)" opacity="0.88"/>
<path d="M865.8,480.0 C743.4,480.0 666.2,368.0 543.8,368.0" stroke="#2ecc71" stroke-width="2" fill="none" marker-end="url(#arr)" opacity="0.88"/>
<path d="M865.8,480.0 C668.6,480.0 544.1,622.5 346.9,622.5" stroke="#2ecc71" stroke-width="2" fill="none" marker-end="url(#arr)" opacity="0.88"/>
<path d="M865.8,480.0 C668.6,480.0 544.1,577.5 346.9,577.5" stroke="#2ecc71" stroke-width="2" fill="none" marker-end="url(#arr)" opacity="0.88"/>
<path d="M865.8,480.0 C743.4,480.0 666.2,424.0 543.8,424.0" stroke="#2ecc71" stroke-width="2" fill="none" marker-end="url(#arr)" opacity="0.88"/>
<path d="M865.8,480.0 C668.6,480.0 544.1,847.5 346.9,847.5" stroke="#2ecc71" stroke-width="2" fill="none" marker-end="url(#arr)" opacity="0.88"/>
<path d="M865.8,480.0 C668.6,480.0 544.1,712.5 346.9,712.5" stroke="#2ecc71" stroke-width="2" fill="none" marker-end="url(#arr)" opacity="0.88"/>
<path d="M865.8,480.0 C668.6,480.0 544.1,802.5 346.9,802.5" stroke="#2ecc71" stroke-width="2" fill="none" marker-end="url(#arr)" opacity="0.88"/>
<path d="M865.8,480.0 C668.6,480.0 544.1,667.5 346.9,667.5" stroke="#2ecc71" stroke-width="2" fill="none" marker-end="url(#arr)" opacity="0.88"/>
<path d="M588.1,258.0 C588.1,310.4 616.2,343.6 616.2,396.0" stroke="#e74c3c" stroke-width="2" fill="none" marker-end="url(#arr)" opacity="0.88"/>
<path d="M588.1,258.0 C953.7,258.0 1184.5,69.3 1550.0,69.3" stroke="#e74c3c" stroke-width="2" fill="none" marker-end="url(#arr)" opacity="0.88"/>
<path d="M588.1,258.0 C588.1,275.8 612.1,287.0 612.1,304.8" stroke="#e74c3c" stroke-width="2" fill="none" marker-end="url(#arr)" opacity="0.88"/>
<path d="M485.4,278.0 C485.4,367.7 264.4,424.3 264.4,514.0" stroke="#e74c3c" stroke-width="2" fill="none" marker-end="url(#arr)" opacity="0.88"/>
<path d="M588.1,258.0 C588.1,293.1 616.2,315.3 616.2,350.4" stroke="#e74c3c" stroke-width="2" fill="none" marker-end="url(#arr)" opacity="0.88"/>
<path d="M485.4,278.0 C485.4,303.1 485.4,318.9 485.4,344.0" stroke="#e74c3c" stroke-width="2" fill="none" marker-end="url(#arr)" opacity="0.88"/>
<path d="M485.4,278.0 C485.4,401.9 264.4,480.1 264.4,604.0" stroke="#e74c3c" stroke-width="2" fill="none" marker-end="url(#arr)" opacity="0.88"/>
<path d="M485.4,278.0 C485.4,324.4 485.4,353.6 485.4,400.0" stroke="#e74c3c" stroke-width="2" fill="none" marker-end="url(#arr)" opacity="0.88"/>
<path d="M485.4,278.0 C485.4,487.4 264.4,619.6 264.4,829.0" stroke="#e74c3c" stroke-width="2" fill="none" marker-end="url(#arr)" opacity="0.88"/>
<path d="M485.4,278.0 C485.4,470.3 264.4,591.7 264.4,784.0" stroke="#e74c3c" stroke-width="2" fill="none" marker-end="url(#arr)" opacity="0.88"/>
<rect x="612.1" y="286.0" width="173.2" height="37.6" rx="6.0" fill="#3498db" stroke="#fff" stroke-width="1"/>
<text x="698.7" y="301.8" text-anchor="middle" font-weight="bold" font-size="15.0" fill="#222">cpuid</text>
<text x="698.7" y="315.3" text-anchor="middle" fill="#555" font-size="13.0">include/sched/proc.h</text>
<rect x="616.2" y="331.6" width="165.1" height="37.6" rx="6.0" fill="#3498db" stroke="#fff" stroke-width="1"/>
<text x="698.7" y="347.4" text-anchor="middle" font-weight="bold" font-size="15.0" fill="#222">mycpu</text>
<text x="698.7" y="360.9" text-anchor="middle" fill="#555" font-size="13.0">kernel/sched/proc.c</text>
<rect x="181.8" y="514.0" width="165.1" height="37.0" rx="6.0" fill="#f4d03f" stroke="#fff" stroke-width="1"/>
<text x="264.4" y="529.5" text-anchor="middle" font-weight="bold" font-size="15.0" fill="#222">r_tp</text>
<text x="264.4" y="542.9" text-anchor="middle" fill="#555" font-size="13.0">include/hal/riscv.h</text>
<rect x="427.0" y="344.0" width="116.8" height="48.0" rx="6.0" fill="#e74c3c" stroke="#fff" stroke-width="1"/>
<text x="485.4" y="361.0" text-anchor="middle" font-weight="bold" font-size="15.0" fill="#222">pop_off</text>
<text x="485.4" y="376.0" text-anchor="middle" fill="#555" font-size="13.0">kernel/intr.c</text>
<rect x="616.2" y="377.2" width="165.1" height="37.6" rx="6.0" fill="#3498db" stroke="#fff" stroke-width="1"/>
<text x="698.7" y="393.0" text-anchor="middle" font-weight="bold" font-size="15.0" fill="#222">myproc</text>
<text x="698.7" y="406.5" text-anchor="middle" fill="#555" font-size="13.0">kernel/sched/proc.c</text>
<rect x="1292.4" y="316.0" width="189.3" height="48.0" rx="6.0" fill="#e67e22" stroke="#fff" stroke-width="1"/>
<text x="1387.1" y="333.0" text-anchor="middle" font-weight="bold" font-size="15.0" fill="#222">release</text>
<text x="1387.1" y="348.0" text-anchor="middle" fill="#555" font-size="13.0">kernel/sync/spinlock.c</text>
<rect x="1292.4" y="372.0" width="189.3" height="48.0" rx="6.0" fill="#e67e22" stroke="#fff" stroke-width="1"/>
<text x="1387.1" y="389.0" text-anchor="middle" font-weight="bold" font-size="15.0" fill="#222">acquire</text>
<text x="1387.1" y="404.0" text-anchor="middle" fill="#555" font-size="13.0">kernel/sync/spinlock.c</text>
<rect x="1550.0" y="50.0" width="149.0" height="38.7" rx="6.0" fill="#95a5a6" stroke="#fff" stroke-width="1"/>
<text x="1624.6" y="66.2" text-anchor="middle" font-weight="bold" font-size="15.0" fill="#222">printf</text>
<text x="1624.6" y="80.2" text-anchor="middle" fill="#555" font-size="13.0">xv6-user/printf.c</text>
<rect x="427.0" y="400.0" width="116.8" height="48.0" rx="6.0" fill="#e74c3c" stroke="#fff" stroke-width="1"/>
<text x="485.4" y="417.0" text-anchor="middle" font-weight="bold" font-size="15.0" fill="#222">push_off</text>
<text x="485.4" y="432.0" text-anchor="middle" fill="#555" font-size="13.0">kernel/intr.c</text>
<rect x="181.8" y="559.0" width="165.1" height="37.0" rx="6.0" fill="#f4d03f" stroke="#fff" stroke-width="1"/>
<text x="264.4" y="574.5" text-anchor="middle" font-weight="bold" font-size="15.0" fill="#222">set_sstatus_bit</text>
<text x="264.4" y="587.9" text-anchor="middle" fill="#555" font-size="13.0">include/hal/riscv.h</text>
<rect x="181.8" y="604.0" width="165.1" height="37.0" rx="6.0" fill="#f4d03f" stroke="#fff" stroke-width="1"/>
<text x="264.4" y="619.5" text-anchor="middle" font-weight="bold" font-size="15.0" fill="#222">intr_on</text>
<text x="264.4" y="632.9" text-anchor="middle" fill="#555" font-size="13.0">include/hal/riscv.h</text>
<rect x="1558.1" y="96.7" width="132.9" height="38.7" rx="6.0" fill="#95a5a6" stroke="#fff" stroke-width="1"/>
<text x="1624.6" y="112.9" text-anchor="middle" font-weight="bold" font-size="15.0" fill="#222">memset</text>
<text x="1624.6" y="126.8" text-anchor="middle" fill="#555" font-size="13.0">xv6-user/ulib.c</text>
<rect x="1505.7" y="372.0" width="237.7" height="48.0" rx="6.0" fill="#95a5a6" stroke="#fff" stroke-width="1"/>
<text x="1624.6" y="389.0" text-anchor="middle" font-weight="bold" font-size="15.0" fill="#222">container_of</text>
<text x="1624.6" y="404.0" text-anchor="middle" fill="#555" font-size="13.0">宏（#define） · include/types.h</text>
<rect x="845.6" y="288.0" width="165.1" height="48.0" rx="6.0" fill="#2ecc71" stroke="#fff" stroke-width="1"/>
<text x="928.2" y="305.0" text-anchor="middle" font-weight="bold" font-size="15.0" fill="#222">kfree</text>
<text x="928.2" y="320.0" text-anchor="middle" fill="#555" font-size="13.0">kernel/mm/kmalloc.c</text>
<rect x="616.2" y="422.8" width="165.1" height="37.6" rx="6.0" fill="#3498db" stroke="#fff" stroke-width="1"/>
<text x="698.7" y="438.6" text-anchor="middle" font-weight="bold" font-size="15.0" fill="#222">exit</text>
<text x="698.7" y="452.1" text-anchor="middle" fill="#555" font-size="13.0">kernel/sched/proc.c</text>
<rect x="181.8" y="649.0" width="165.1" height="37.0" rx="6.0" fill="#f4d03f" stroke="#fff" stroke-width="1"/>
<text x="264.4" y="664.5" text-anchor="middle" font-weight="bold" font-size="15.0" fill="#222">clr_sstatus_bit</text>
<text x="264.4" y="677.9" text-anchor="middle" fill="#555" font-size="13.0">include/hal/riscv.h</text>
<rect x="1292.4" y="428.0" width="189.3" height="48.0" rx="6.0" fill="#e67e22" stroke="#fff" stroke-width="1"/>
<text x="1387.1" y="445.0" text-anchor="middle" font-weight="bold" font-size="15.0" fill="#222">initlock</text>
<text x="1387.1" y="460.0" text-anchor="middle" fill="#555" font-size="13.0">kernel/sync/spinlock.c</text>
<rect x="181.8" y="694.0" width="165.1" height="37.0" rx="6.0" fill="#f4d03f" stroke="#fff" stroke-width="1"/>
<text x="264.4" y="709.5" text-anchor="middle" font-weight="bold" font-size="15.0" fill="#222">r_sstatus</text>
<text x="264.4" y="722.9" text-anchor="middle" fill="#555" font-size="13.0">include/hal/riscv.h</text>
<rect x="1071.0" y="372.0" width="197.4" height="48.0" rx="6.0" fill="#9b59b6" stroke="#fff" stroke-width="1"/>
<text x="1169.7" y="389.0" text-anchor="middle" font-weight="bold" font-size="15.0" fill="#222">sb2fat</text>
<text x="1169.7" y="404.0" text-anchor="middle" fill="#555" font-size="13.0">kernel/fs/fat32/fat32.h</text>
<rect x="809.3" y="344.0" width="237.7" height="48.0" rx="6.0" fill="#2ecc71" stroke="#fff" stroke-width="1"/>
<text x="928.2" y="361.0" text-anchor="middle" font-weight="bold" font-size="15.0" fill="#222">freepage</text>
<text x="928.2" y="376.0" text-anchor="middle" fill="#555" font-size="13.0">宏（#define） · include/mm/pm.h</text>
<rect x="170.0" y="739.0" width="188.7" height="37.0" rx="6.0" fill="#f4d03f" stroke="#fff" stroke-width="1"/>
<text x="264.4" y="754.5" text-anchor="middle" font-weight="bold" font-size="15.0" fill="#222">sbi_console_putchar</text>
<text x="264.4" y="767.9" text-anchor="middle" fill="#555" font-size="13.0">include/sbi.h</text>
<rect x="181.8" y="784.0" width="165.1" height="37.0" rx="6.0" fill="#f4d03f" stroke="#fff" stroke-width="1"/>
<text x="264.4" y="799.5" text-anchor="middle" font-weight="bold" font-size="15.0" fill="#222">intr_off</text>
<text x="264.4" y="812.9" text-anchor="middle" fill="#555" font-size="13.0">include/hal/riscv.h</text>
<rect x="193.9" y="372.0" width="141.0" height="48.0" rx="6.0" fill="#f4d03f" stroke="#fff" stroke-width="1"/>
<text x="264.4" y="389.0" text-anchor="middle" font-weight="bold" font-size="15.0" fill="#222">consputc</text>
<text x="264.4" y="404.0" text-anchor="middle" fill="#555" font-size="13.0">kernel/console.c</text>
<rect x="181.8" y="829.0" width="165.1" height="37.0" rx="6.0" fill="#f4d03f" stroke="#fff" stroke-width="1"/>
<text x="264.4" y="844.5" text-anchor="middle" font-weight="bold" font-size="15.0" fill="#222">intr_get</text>
<text x="264.4" y="857.9" text-anchor="middle" fill="#555" font-size="13.0">include/hal/riscv.h</text>
<rect x="1558.1" y="143.3" width="132.9" height="38.7" rx="6.0" fill="#95a5a6" stroke="#fff" stroke-width="1"/>
<text x="1624.6" y="159.6" text-anchor="middle" font-weight="bold" font-size="15.0" fill="#222">memmove</text>
<text x="1624.6" y="173.5" text-anchor="middle" fill="#555" font-size="13.0">xv6-user/ulib.c</text>
<rect x="616.2" y="468.4" width="165.1" height="37.6" rx="6.0" fill="#3498db" stroke="#fff" stroke-width="1"/>
<text x="698.7" y="484.2" text-anchor="middle" font-weight="bold" font-size="15.0" fill="#222">wakeup</text>
<text x="698.7" y="497.7" text-anchor="middle" fill="#555" font-size="13.0">kernel/sched/proc.c</text>
<rect x="845.6" y="400.0" width="165.1" height="48.0" rx="6.0" fill="#2ecc71" stroke="#fff" stroke-width="1"/>
<text x="928.2" y="417.0" text-anchor="middle" font-weight="bold" font-size="15.0" fill="#222">kmalloc</text>
<text x="928.2" y="432.0" text-anchor="middle" fill="#555" font-size="13.0">kernel/mm/kmalloc.c</text>
<rect x="382.7" y="190.0" width="205.4" height="40.0" rx="6.0" fill="#e74c3c" stroke="#fff" stroke-width="1"/>
<text x="485.4" y="206.8" text-anchor="middle" font-weight="bold" font-size="15.0" fill="#222">argaddr</text>
<text x="485.4" y="221.2" text-anchor="middle" fill="#555" font-size="13.0">kernel/syscall/syscall.c</text>
<rect x="865.8" y="456.0" width="124.8" height="48.0" rx="6.0" fill="#2ecc71" stroke="#fff" stroke-width="1"/>
<text x="928.2" y="473.0" text-anchor="middle" font-weight="bold" font-size="15.0" fill="#222">safememmove</text>
<text x="928.2" y="488.0" text-anchor="middle" fill="#555" font-size="13.0">kernel/mm/vm.c</text>
<rect x="382.7" y="238.0" width="205.4" height="40.0" rx="6.0" fill="#e74c3c" stroke="#fff" stroke-width="1"/>
<text x="485.4" y="254.8" text-anchor="middle" font-weight="bold" font-size="15.0" fill="#222">argint</text>
<text x="485.4" y="269.2" text-anchor="middle" fill="#555" font-size="13.0">kernel/syscall/syscall.c</text>
</svg>