<svg xmlns="http://www.w3.org/2000/svg" width="900" height="340">
<style>text{font-family:Arial,sans-serif;font-size:12px}.h{font-weight:bold}</style>
<text class="h" x="180" y="24">arch_HAL</text>
<text class="h" x="300" y="24">boot</text>
<text class="h" x="420" y="24">core</text>
<text class="h" x="540" y="24">glue_syscall</text>
<text class="h" x="660" y="24">policy_user</text>
<text class="h" x="780" y="24">unknown</text>
<text class="h" x="8" y="68">boot_trap</text>
<rect x="170" y="50" width="116" height="24" fill="rgb(196,196,255)" stroke="#888"/>
<text x="178" y="67">2</text>
<rect x="290" y="50" width="116" height="24" fill="rgb(64,64,255)" stroke="#888"/>
<text x="298" y="67">42</text>
<rect x="410" y="50" width="116" height="24" fill="rgb(218,218,255)" stroke="#888"/>
<text x="418" y="67">1</text>
<rect x="530" y="50" width="116" height="24" fill="rgb(196,196,255)" stroke="#888"/>
<text x="538" y="67">2</text>
<rect x="650" y="50" width="116" height="24" fill="rgb(240,240,255)" stroke="#888"/>
<text x="658" y="67">0</text>
<rect x="770" y="50" width="116" height="24" fill="rgb(240,240,255)" stroke="#888"/>
<text x="778" y="67">0</text>
<text class="h" x="8" y="96">mem</text>
<rect x="170" y="78" width="116" height="24" fill="rgb(240,240,255)" stroke="#888"/>
<text x="178" y="95">0</text>
<rect x="290" y="78" width="116" height="24" fill="rgb(240,240,255)" stroke="#888"/>
<text x="298" y="95">0</text>
<rect x="410" y="78" width="116" height="24" fill="rgb(64,64,255)" stroke="#888"/>
<text x="418" y="95">31</text>
<rect x="530" y="78" width="116" height="24" fill="rgb(240,240,255)" stroke="#888"/>
<text x="538" y="95">0</text>
<rect x="650" y="78" width="116" height="24" fill="rgb(240,240,255)" stroke="#888"/>
<text x="658" y="95">0</text>
<rect x="770" y="78" width="116" height="24" fill="rgb(240,240,255)" stroke="#888"/>
<text x="778" y="95">0</text>
<text class="h" x="8" y="124">proc_smp</text>
<rect x="170" y="106" width="116" height="24" fill="rgb(240,240,255)" stroke="#888"/>
<text x="178" y="123">0</text>
<rect x="290" y="106" width="116" height="24" fill="rgb(240,240,255)" stroke="#888"/>
<text x="298" y="123">0</text>
<rect x="410" y="106" width="116" height="24" fill="rgb(64,64,255)" stroke="#888"/>
<text x="418" y="123">20</text>
<rect x="530" y="106" width="116" height="24" fill="rgb(240,240,255)" stroke="#888"/>
<text x="538" y="123">0</text>
<rect x="650" y="106" width="116" height="24" fill="rgb(240,240,255)" stroke="#888"/>
<text x="658" y="123">0</text>
<rect x="770" y="106" width="116" height="24" fill="rgb(240,240,255)" stroke="#888"/>
<text x="778" y="123">0</text>
<text class="h" x="8" y="152">sync_ipc</text>
<rect x="170" y="134" width="116" height="24" fill="rgb(240,240,255)" stroke="#888"/>
<text x="178" y="151">0</text>
<rect x="290" y="134" width="116" height="24" fill="rgb(240,240,255)" stroke="#888"/>
<text x="298" y="151">0</text>
<rect x="410" y="134" width="116" height="24" fill="rgb(64,64,255)" stroke="#888"/>
<text x="418" y="151">40</text>
<rect x="530" y="134" width="116" height="24" fill="rgb(240,240,255)" stroke="#888"/>
<text x="538" y="151">0</text>
<rect x="650" y="134" width="116" height="24" fill="rgb(240,240,255)" stroke="#888"/>
<text x="658" y="151">0</text>
<rect x="770" y="134" width="116" height="24" fill="rgb(240,240,255)" stroke="#888"/>
<text x="778" y="151">0</text>
<text class="h" x="8" y="180">fs_drv</text>
<rect x="170" y="162" width="116" height="24" fill="rgb(174,174,255)" stroke="#888"/>
<text x="178" y="179">3</text>
<rect x="290" y="162" width="116" height="24" fill="rgb(240,240,255)" stroke="#888"/>
<text x="298" y="179">0</text>
<rect x="410" y="162" width="116" height="24" fill="rgb(64,64,255)" stroke="#888"/>
<text x="418" y="179">49</text>
<rect x="530" y="162" width="116" height="24" fill="rgb(218,218,255)" stroke="#888"/>
<text x="538" y="179">1</text>
<rect x="650" y="162" width="116" height="24" fill="rgb(240,240,255)" stroke="#888"/>
<text x="658" y="179">0</text>
<rect x="770" y="162" width="116" height="24" fill="rgb(240,240,255)" stroke="#888"/>
<text x="778" y="179">0</text>
<text class="h" x="8" y="208">net</text>
<rect x="170" y="190" width="116" height="24" fill="rgb(240,240,255)" stroke="#888"/>
<text x="178" y="207">0</text>
<rect x="290" y="190" width="116" height="24" fill="rgb(240,240,255)" stroke="#888"/>
<text x="298" y="207">0</text>
<rect x="410" y="190" width="116" height="24" fill="rgb(218,218,255)" stroke="#888"/>
<text x="418" y="207">1</text>
<rect x="530" y="190" width="116" height="24" fill="rgb(240,240,255)" stroke="#888"/>
<text x="538" y="207">0</text>
<rect x="650" y="190" width="116" height="24" fill="rgb(240,240,255)" stroke="#888"/>
<text x="658" y="207">0</text>
<rect x="770" y="190" width="116" height="24" fill="rgb(240,240,255)" stroke="#888"/>
<text x="778" y="207">0</text>
<text class="h" x="8" y="236">sec</text>
<rect x="170" y="218" width="116" height="24" fill="rgb(240,240,255)" stroke="#888"/>
<text x="178" y="235">0</text>
<rect x="290" y="218" width="116" height="24" fill="rgb(240,240,255)" stroke="#888"/>
<text x="298" y="235">0</text>
<rect x="410" y="218" width="116" height="24" fill="rgb(240,240,255)" stroke="#888"/>
<text x="418" y="235">0</text>
<rect x="530" y="218" width="116" height="24" fill="rgb(240,240,255)" stroke="#888"/>
<text x="538" y="235">0</text>
<rect x="650" y="218" width="116" height="24" fill="rgb(240,240,255)" stroke="#888"/>
<text x="658" y="235">0</text>
<rect x="770" y="218" width="116" height="24" fill="rgb(240,240,255)" stroke="#888"/>
<text x="778" y="235">0</text>
<text class="h" x="8" y="264">debug</text>
<rect x="170" y="246" width="116" height="24" fill="rgb(240,240,255)" stroke="#888"/>
<text x="178" y="263">0</text>
<rect x="290" y="246" width="116" height="24" fill="rgb(240,240,255)" stroke="#888"/>
<text x="298" y="263">0</text>
<rect x="410" y="246" width="116" height="24" fill="rgb(64,64,255)" stroke="#888"/>
<text x="418" y="263">9</text>
<rect x="530" y="246" width="116" height="24" fill="rgb(240,240,255)" stroke="#888"/>
<text x="538" y="263">0</text>
<rect x="650" y="246" width="116" height="24" fill="rgb(240,240,255)" stroke="#888"/>
<text x="658" y="263">0</text>
<rect x="770" y="246" width="116" height="24" fill="rgb(240,240,255)" stroke="#888"/>
<text x="778" y="263">0</text>
<text class="h" x="8" y="292">build_eval</text>
<rect x="170" y="274" width="116" height="24" fill="rgb(64,64,255)" stroke="#888"/>
<text x="178" y="291">40</text>
<rect x="290" y="274" width="116" height="24" fill="rgb(240,240,255)" stroke="#888"/>
<text x="298" y="291">0</text>
<rect x="410" y="274" width="116" height="24" fill="rgb(64,64,255)" stroke="#888"/>
<text x="418" y="291">9</text>
<rect x="530" y="274" width="116" height="24" fill="rgb(240,240,255)" stroke="#888"/>
<text x="538" y="291">0</text>
<rect x="650" y="274" width="116" height="24" fill="rgb(240,240,255)" stroke="#888"/>
<text x="658" y="291">0</text>
<rect x="770" y="274" width="116" height="24" fill="rgb(240,240,255)" stroke="#888"/>
<text x="778" y="291">0</text>
<text class="h" x="8" y="320">unknown</text>
<rect x="170" y="302" width="116" height="24" fill="rgb(240,240,255)" stroke="#888"/>
<text x="178" y="319">0</text>
<rect x="290" y="302" width="116" height="24" fill="rgb(240,240,255)" stroke="#888"/>
<text x="298" y="319">0</text>
<rect x="410" y="302" width="116" height="24" fill="rgb(240,240,255)" stroke="#888"/>
<text x="418" y="319">0</text>
<rect x="530" y="302" width="116" height="24" fill="rgb(240,240,255)" stroke="#888"/>
<text x="538" y="319">0</text>
<rect x="650" y="302" width="116" height="24" fill="rgb(240,240,255)" stroke="#888"/>
<text x="658" y="319">0</text>
<rect x="770" y="302" width="116" height="24" fill="rgb(240,240,255)" stroke="#888"/>
<text x="778" y="319">0</text>
</svg>