<svg width="1333.1599999999999" height="1006.0" xmlns="http://www.w3.org/2000/svg" font-family='system-ui, -apple-system, "Segoe UI", Roboto, "Helvetica Neue", Arial, "PingFang SC", "Microsoft YaHei", sans-serif' font-size='13'>
<defs><marker id="arr" markerWidth="10" markerHeight="10" refX="9" refY="3.5" orient="auto" markerUnits="userSpaceOnUse"><path d="M0,0 L0,7 L10,3.5 z" fill="#444"/></marker></defs>
<rect width="1333.1599999999999" height="1006.0" fill="#fafafa"/>
<line x1="142.0" y1="46.0" x2="1313.1599999999999" y2="46.0" stroke="#ddd" stroke-width="1"/>
<line x1="142.0" y1="86.0" x2="1313.1599999999999" y2="86.0" stroke="#ddd" stroke-width="1"/>
<line x1="142.0" y1="226.0" x2="1313.1599999999999" y2="226.0" stroke="#ddd" stroke-width="1"/>
<line x1="142.0" y1="454.0" x2="1313.1599999999999" y2="454.0" stroke="#ddd" stroke-width="1"/>
<line x1="142.0" y1="946.0" x2="1313.1599999999999" y2="946.0" stroke="#ddd" stroke-width="1"/>
<line x1="142.0" y1="986.0" x2="1313.1599999999999" y2="986.0" stroke="#ddd" stroke-width="1"/>
<line x1="158.0" y1="46.0" x2="158.0" y2="986.0" stroke="#ddd" stroke-width="1"/>
<line x1="411.6" y1="46.0" x2="411.6" y2="986.0" stroke="#ddd" stroke-width="1"/>
<line x1="528.2" y1="46.0" x2="528.2" y2="986.0" stroke="#ddd" stroke-width="1"/>
<line x1="636.8" y1="46.0" x2="636.8" y2="986.0" stroke="#ddd" stroke-width="1"/>
<line x1="777.5" y1="46.0" x2="777.5" y2="986.0" stroke="#ddd" stroke-width="1"/>
<line x1="859.5" y1="46.0" x2="859.5" y2="986.0" stroke="#ddd" stroke-width="1"/>
<line x1="1016.4" y1="46.0" x2="1016.4" y2="986.0" stroke="#ddd" stroke-width="1"/>
<line x1="1149.2" y1="46.0" x2="1149.2" y2="986.0" stroke="#ddd" stroke-width="1"/>
<line x1="1231.2" y1="46.0" x2="1231.2" y2="986.0" stroke="#ddd" stroke-width="1"/>
<line x1="1313.2" y1="46.0" x2="1313.2" y2="986.0" stroke="#ddd" stroke-width="1"/>
<text x="137.0" y="71.0" text-anchor="end" fill="#111827" font-size="12" font-weight="600">userspace</text>
<text x="137.0" y="161.0" text-anchor="end" fill="#111827" font-size="12" font-weight="600">syscall_boundary</text>
<text x="137.0" y="345.0" text-anchor="end" fill="#111827" font-size="12" font-weight="600">kernel</text>
<text x="137.0" y="705.0" text-anchor="end" fill="#111827" font-size="12" font-weight="600">hardware</text>
<text x="137.0" y="971.0" text-anchor="end" fill="#111827" font-size="12" font-weight="600">unknown</text>
<text text-anchor="middle" font-size="13" font-weight="600" fill="#111827"><tspan x="284.8" y="19.0">arch</tspan><tspan x="284.8" dy="12.0">platform</tspan></text>
<text text-anchor="middle" font-size="13" font-weight="600" fill="#111827"><tspan x="469.9" y="19.0">trap</tspan><tspan x="469.9" dy="12.0">syscall</tspan></text>
<text text-anchor="middle" font-size="13" font-weight="600" fill="#111827"><tspan x="582.5" y="19.0">process</tspan><tspan x="582.5" dy="12.0">sched</tspan></text>
<text text-anchor="middle" font-size="13" font-weight="600" fill="#111827"><tspan x="707.1" y="19.0">memory</tspan><tspan x="707.1" dy="12.0">vm</tspan></text>
<text text-anchor="middle" font-size="12" font-weight="600" fill="#111827"><tspan x="818.5" y="19.0">fs</tspan><tspan x="818.5" dy="12.0">storage</tspan></text>
<text text-anchor="middle" font-size="13" font-weight="600" fill="#111827"><tspan x="938.0" y="19.0">sync</tspan><tspan x="938.0" dy="12.0">ipc</tspan></text>
<text text-anchor="middle" font-size="13" font-weight="600" fill="#111827"><tspan x="1082.8" y="19.0">runtime</tspan><tspan x="1082.8" dy="12.0">common</tspan></text>
<text text-anchor="middle" font-size="12" font-weight="600" fill="#111827"><tspan x="1190.2" y="19.0">user</tspan><tspan x="1190.2" dy="12.0">programs</tspan></text>
<text x="1272.2" y="30.0" text-anchor="middle" font-size="12" font-weight="600" fill="#111827">unknown</text>
<path d="M540.2,312.0 C459.2,312.0 408.1,476.4 327.1,476.4" stroke="#3498db" stroke-width="2" fill="none" marker-end="url(#arr)" opacity="0.88"/>
<path d="M540.2,312.0 C540.2,391.5 367.4,441.6 367.4,521.1" stroke="#3498db" stroke-width="2" fill="none" marker-end="url(#arr)" opacity="0.88"/>
<path d="M284.8,494.7 C284.8,497.8 284.8,499.7 284.8,502.7" stroke="#f4d03f" stroke-width="2" fill="none" marker-end="url(#arr)" opacity="0.88"/>
<path d="M540.2,368.0 C531.1,368.0 525.3,368.0 516.2,368.0" stroke="#3498db" stroke-width="2" fill="none" marker-end="url(#arr)" opacity="0.88"/>
<path d="M582.5,344.0 C582.5,341.0 582.5,339.0 582.5,336.0" stroke="#3498db" stroke-width="2" fill="none" marker-end="url(#arr)" opacity="0.88"/>
<path d="M540.2,368.0 C540.2,346.7 516.2,333.3 516.2,312.0" stroke="#3498db" stroke-width="2" fill="none" marker-end="url(#arr)" opacity="0.88"/>
<path d="M540.2,368.0 C459.2,368.0 408.1,476.4 327.1,476.4" stroke="#3498db" stroke-width="2" fill="none" marker-end="url(#arr)" opacity="0.88"/>
<path d="M540.2,368.0 C474.5,368.0 433.1,521.1 367.4,521.1" stroke="#3498db" stroke-width="2" fill="none" marker-end="url(#arr)" opacity="0.88"/>
<path d="M540.2,368.0 C540.2,460.2 367.4,518.4 367.4,610.5" stroke="#3498db" stroke-width="2" fill="none" marker-end="url(#arr)" opacity="0.88"/>
<path d="M624.8,368.0 C778.2,368.0 875.0,396.0 1028.4,396.0" stroke="#3498db" stroke-width="2" fill="none" marker-end="url(#arr)" opacity="0.88"/>
<path d="M582.5,392.0 C582.5,519.1 284.8,599.3 284.8,726.4" stroke="#3498db" stroke-width="2" fill="none" marker-end="url(#arr)" opacity="0.88"/>
<path d="M582.5,392.0 C582.5,536.1 284.8,627.0 284.8,771.1" stroke="#3498db" stroke-width="2" fill="none" marker-end="url(#arr)" opacity="0.88"/>
<path d="M582.5,392.0 C582.5,570.0 284.8,682.5 284.8,860.5" stroke="#3498db" stroke-width="2" fill="none" marker-end="url(#arr)" opacity="0.88"/>
<path d="M938.0,267.6 C938.0,288.0 938.0,300.8 938.0,321.2" stroke="#e67e22" stroke-width="2" fill="none" marker-end="url(#arr)" opacity="0.88"/>
<path d="M875.6,248.8 C739.0,248.8 652.8,312.0 516.2,312.0" stroke="#e67e22" stroke-width="2" fill="none" marker-end="url(#arr)" opacity="0.88"/>
<path d="M875.6,248.8 C780.3,248.8 720.1,312.0 624.8,312.0" stroke="#e67e22" stroke-width="2" fill="none" marker-end="url(#arr)" opacity="0.88"/>
<path d="M875.6,248.8 C667.1,248.8 535.5,476.4 327.1,476.4" stroke="#e67e22" stroke-width="2" fill="none" marker-end="url(#arr)" opacity="0.88"/>
<path d="M875.6,248.8 C682.5,248.8 560.5,521.1 367.4,521.1" stroke="#e67e22" stroke-width="2" fill="none" marker-end="url(#arr)" opacity="0.88"/>
<path d="M875.6,248.8 C682.5,248.8 560.5,610.5 367.4,610.5" stroke="#e67e22" stroke-width="2" fill="none" marker-end="url(#arr)" opacity="0.88"/>
<path d="M938.0,267.6 C993.0,267.6 1027.8,372.0 1082.8,372.0" stroke="#e67e22" stroke-width="2" fill="none" marker-end="url(#arr)" opacity="0.88"/>
<path d="M875.6,248.8 C682.5,248.8 560.5,744.7 367.4,744.7" stroke="#e67e22" stroke-width="2" fill="none" marker-end="url(#arr)" opacity="0.88"/>
<path d="M875.6,248.8 C875.6,454.2 367.4,584.0 367.4,789.5" stroke="#e67e22" stroke-width="2" fill="none" marker-end="url(#arr)" opacity="0.88"/>
<path d="M875.6,294.4 C739.0,294.4 652.8,368.0 516.2,368.0" stroke="#e67e22" stroke-width="2" fill="none" marker-end="url(#arr)" opacity="0.88"/>
<path d="M938.0,313.2 C938.0,316.2 938.0,318.2 938.0,321.2" stroke="#e67e22" stroke-width="2" fill="none" marker-end="url(#arr)" opacity="0.88"/>
<path d="M875.6,294.4 C780.3,294.4 720.1,312.0 624.8,312.0" stroke="#e67e22" stroke-width="2" fill="none" marker-end="url(#arr)" opacity="0.88"/>
<path d="M875.6,294.4 C667.1,294.4 535.5,476.4 327.1,476.4" stroke="#e67e22" stroke-width="2" fill="none" marker-end="url(#arr)" opacity="0.88"/>
<path d="M875.6,294.4 C682.5,294.4 560.5,521.1 367.4,521.1" stroke="#e67e22" stroke-width="2" fill="none" marker-end="url(#arr)" opacity="0.88"/>
<path d="M875.6,294.4 C682.5,294.4 560.5,610.5 367.4,610.5" stroke="#e67e22" stroke-width="2" fill="none" marker-end="url(#arr)" opacity="0.88"/>
<path d="M1000.4,294.4 C1000.4,333.0 1028.4,357.4 1028.4,396.0" stroke="#e67e22" stroke-width="2" fill="none" marker-end="url(#arr)" opacity="0.88"/>
<path d="M875.6,294.4 C682.5,294.4 560.5,789.5 367.4,789.5" stroke="#e67e22" stroke-width="2" fill="none" marker-end="url(#arr)" opacity="0.88"/>
<path d="M875.6,294.4 C875.6,516.5 367.4,656.8 367.4,878.9" stroke="#e67e22" stroke-width="2" fill="none" marker-end="url(#arr)" opacity="0.88"/>
<path d="M516.2,312.0 C525.3,312.0 531.1,312.0 540.2,312.0" stroke="#e74c3c" stroke-width="2" fill="none" marker-end="url(#arr)" opacity="0.88"/>
<path d="M469.9,336.0 C469.9,433.3 284.8,494.8 284.8,592.2" stroke="#e74c3c" stroke-width="2" fill="none" marker-end="url(#arr)" opacity="0.88"/>
<path d="M469.9,336.0 C469.9,484.3 284.8,578.0 284.8,726.4" stroke="#e74c3c" stroke-width="2" fill="none" marker-end="url(#arr)" opacity="0.88"/>
<path d="M469.9,336.0 C469.9,501.3 284.8,605.8 284.8,771.1" stroke="#e74c3c" stroke-width="2" fill="none" marker-end="url(#arr)" opacity="0.88"/>
<path d="M423.6,312.0 C423.6,374.5 327.1,413.9 327.1,476.4" stroke="#e74c3c" stroke-width="2" fill="none" marker-end="url(#arr)" opacity="0.88"/>
<path d="M469.9,336.0 C399.6,336.0 355.2,502.7 284.8,502.7" stroke="#e74c3c" stroke-width="2" fill="none" marker-end="url(#arr)" opacity="0.88"/>
<path d="M516.2,312.0 C710.9,312.0 833.8,396.0 1028.4,396.0" stroke="#e74c3c" stroke-width="2" fill="none" marker-end="url(#arr)" opacity="0.88"/>
<path d="M875.6,340.0 C780.3,340.0 720.1,312.0 624.8,312.0" stroke="#e67e22" stroke-width="2" fill="none" marker-end="url(#arr)" opacity="0.88"/>
<path d="M875.6,340.0 C667.1,340.0 535.5,476.4 327.1,476.4" stroke="#e67e22" stroke-width="2" fill="none" marker-end="url(#arr)" opacity="0.88"/>
<path d="M875.6,340.0 C682.5,340.0 560.5,521.1 367.4,521.1" stroke="#e67e22" stroke-width="2" fill="none" marker-end="url(#arr)" opacity="0.88"/>
<path d="M469.9,392.0 C469.9,468.1 284.8,516.1 284.8,592.2" stroke="#e74c3c" stroke-width="2" fill="none" marker-end="url(#arr)" opacity="0.88"/>
<path d="M469.9,392.0 C469.9,570.0 284.8,682.5 284.8,860.5" stroke="#e74c3c" stroke-width="2" fill="none" marker-end="url(#arr)" opacity="0.88"/>
<path d="M516.2,368.0 C516.2,346.7 540.2,333.3 540.2,312.0" stroke="#e74c3c" stroke-width="2" fill="none" marker-end="url(#arr)" opacity="0.88"/>
<path d="M469.9,392.0 C469.9,536.1 284.8,627.0 284.8,771.1" stroke="#e74c3c" stroke-width="2" fill="none" marker-end="url(#arr)" opacity="0.88"/>
<path d="M423.6,368.0 C423.6,409.2 327.1,435.2 327.1,476.4" stroke="#e74c3c" stroke-width="2" fill="none" marker-end="url(#arr)" opacity="0.88"/>
<path d="M423.6,368.0 C423.6,426.2 367.4,462.9 367.4,521.1" stroke="#e74c3c" stroke-width="2" fill="none" marker-end="url(#arr)" opacity="0.88"/>
<path d="M707.1,280.0 C707.1,283.0 707.1,285.0 707.1,288.0" stroke="#2ecc71" stroke-width="2" fill="none" marker-end="url(#arr)" opacity="0.88"/>
<path d="M745.4,256.0 C852.9,256.0 920.9,284.0 1028.4,284.0" stroke="#2ecc71" stroke-width="2" fill="none" marker-end="url(#arr)" opacity="0.88"/>
<path d="M745.4,256.0 C852.9,256.0 920.9,396.0 1028.4,396.0" stroke="#2ecc71" stroke-width="2" fill="none" marker-end="url(#arr)" opacity="0.88"/>
<path d="M707.1,280.0 C707.1,449.6 284.8,556.7 284.8,726.4" stroke="#2ecc71" stroke-width="2" fill="none" marker-end="url(#arr)" opacity="0.88"/>
<path d="M707.1,280.0 C707.1,500.6 284.8,639.9 284.8,860.5" stroke="#2ecc71" stroke-width="2" fill="none" marker-end="url(#arr)" opacity="0.88"/>
<path d="M284.8,592.2 C284.8,589.1 284.8,587.2 284.8,584.2" stroke="#f4d03f" stroke-width="2" fill="none" marker-end="url(#arr)" opacity="0.88"/>
<path d="M469.9,128.7 C469.9,210.5 582.5,262.2 582.5,344.0" stroke="#e74c3c" stroke-width="2" fill="none" marker-end="url(#arr)" opacity="0.88"/>
<path d="M469.9,128.7 C469.9,189.2 582.5,227.5 582.5,288.0" stroke="#e74c3c" stroke-width="2" fill="none" marker-end="url(#arr)" opacity="0.88"/>
<path d="M469.9,128.7 C469.9,253.8 284.8,332.9 284.8,458.0" stroke="#e74c3c" stroke-width="2" fill="none" marker-end="url(#arr)" opacity="0.88"/>
<path d="M469.9,128.7 C469.9,270.8 284.8,360.6 284.8,502.7" stroke="#e74c3c" stroke-width="2" fill="none" marker-end="url(#arr)" opacity="0.88"/>
<path d="M469.9,128.7 C469.9,189.2 469.9,227.5 469.9,288.0" stroke="#e74c3c" stroke-width="2" fill="none" marker-end="url(#arr)" opacity="0.88"/>
<path d="M469.9,128.7 C469.9,304.8 284.8,416.0 284.8,592.2" stroke="#e74c3c" stroke-width="2" fill="none" marker-end="url(#arr)" opacity="0.88"/>
<path d="M469.9,128.7 C469.9,355.8 284.8,499.2 284.8,726.4" stroke="#e74c3c" stroke-width="2" fill="none" marker-end="url(#arr)" opacity="0.88"/>
<path d="M469.9,128.7 C469.9,372.8 284.8,527.0 284.8,771.1" stroke="#e74c3c" stroke-width="2" fill="none" marker-end="url(#arr)" opacity="0.88"/>
<path d="M469.9,128.7 C469.9,210.5 469.9,262.2 469.9,344.0" stroke="#e74c3c" stroke-width="2" fill="none" marker-end="url(#arr)" opacity="0.88"/>
<path d="M469.9,128.7 C469.9,406.8 284.8,582.4 284.8,860.5" stroke="#e74c3c" stroke-width="2" fill="none" marker-end="url(#arr)" opacity="0.88"/>
<path d="M516.2,109.3 C710.9,109.3 833.8,396.0 1028.4,396.0" stroke="#e74c3c" stroke-width="2" fill="none" marker-end="url(#arr)" opacity="0.88"/>
<path d="M755.0,312.0 C800.8,312.0 829.8,294.4 875.6,294.4" stroke="#2ecc71" stroke-width="2" fill="none" marker-end="url(#arr)" opacity="0.88"/>
<path d="M755.0,312.0 C800.8,312.0 829.8,248.8 875.6,248.8" stroke="#2ecc71" stroke-width="2" fill="none" marker-end="url(#arr)" opacity="0.88"/>
<path d="M755.0,312.0 C858.9,312.0 924.5,284.0 1028.4,284.0" stroke="#2ecc71" stroke-width="2" fill="none" marker-end="url(#arr)" opacity="0.88"/>
<path d="M755.0,312.0 C800.8,312.0 829.8,340.0 875.6,340.0" stroke="#2ecc71" stroke-width="2" fill="none" marker-end="url(#arr)" opacity="0.88"/>
<path d="M659.3,312.0 C646.2,312.0 637.9,312.0 624.8,312.0" stroke="#2ecc71" stroke-width="2" fill="none" marker-end="url(#arr)" opacity="0.88"/>
<path d="M659.3,312.0 C533.1,312.0 453.3,476.4 327.1,476.4" stroke="#2ecc71" stroke-width="2" fill="none" marker-end="url(#arr)" opacity="0.88"/>
<path d="M659.3,312.0 C604.9,312.0 570.6,368.0 516.2,368.0" stroke="#2ecc71" stroke-width="2" fill="none" marker-end="url(#arr)" opacity="0.88"/>
<path d="M659.3,312.0 C659.3,425.4 367.4,497.1 367.4,610.5" stroke="#2ecc71" stroke-width="2" fill="none" marker-end="url(#arr)" opacity="0.88"/>
<path d="M707.1,336.0 C707.1,535.3 284.8,661.2 284.8,860.5" stroke="#2ecc71" stroke-width="2" fill="none" marker-end="url(#arr)" opacity="0.88"/>
<path d="M707.1,336.0 C707.1,501.3 284.8,605.8 284.8,771.1" stroke="#2ecc71" stroke-width="2" fill="none" marker-end="url(#arr)" opacity="0.88"/>
<path d="M659.3,312.0 C604.9,312.0 570.6,312.0 516.2,312.0" stroke="#2ecc71" stroke-width="2" fill="none" marker-end="url(#arr)" opacity="0.88"/>
<path d="M707.1,336.0 C546.7,336.0 445.3,726.4 284.8,726.4" stroke="#2ecc71" stroke-width="2" fill="none" marker-end="url(#arr)" opacity="0.88"/>
<path d="M755.0,312.0 C858.9,312.0 924.5,396.0 1028.4,396.0" stroke="#2ecc71" stroke-width="2" fill="none" marker-end="url(#arr)" opacity="0.88"/>
<path d="M1028.4,396.0 C1028.4,357.4 1000.4,333.0 1000.4,294.4" stroke="#95a5a6" stroke-width="2" fill="none" marker-end="url(#arr)" opacity="0.88"/>
<path d="M1082.8,372.0 C1027.8,372.0 993.0,267.6 938.0,267.6" stroke="#95a5a6" stroke-width="2" fill="none" marker-end="url(#arr)" opacity="0.88"/>
<path d="M1028.4,396.0 C1028.4,374.7 1000.4,361.3 1000.4,340.0" stroke="#95a5a6" stroke-width="2" fill="none" marker-end="url(#arr)" opacity="0.88"/>
<path d="M1028.4,396.0 C875.0,396.0 778.2,312.0 624.8,312.0" stroke="#95a5a6" stroke-width="2" fill="none" marker-end="url(#arr)" opacity="0.88"/>
<path d="M1028.4,396.0 C761.9,396.0 593.6,476.4 327.1,476.4" stroke="#95a5a6" stroke-width="2" fill="none" marker-end="url(#arr)" opacity="0.88"/>
<path d="M1028.4,396.0 C833.8,396.0 710.9,368.0 516.2,368.0" stroke="#95a5a6" stroke-width="2" fill="none" marker-end="url(#arr)" opacity="0.88"/>
<path d="M1028.4,396.0 C777.2,396.0 618.6,610.5 367.4,610.5" stroke="#95a5a6" stroke-width="2" fill="none" marker-end="url(#arr)" opacity="0.88"/>
<path d="M1028.4,396.0 C777.2,396.0 618.6,878.9 367.4,878.9" stroke="#95a5a6" stroke-width="2" fill="none" marker-end="url(#arr)" opacity="0.88"/>
<path d="M1028.4,396.0 C777.2,396.0 618.6,789.5 367.4,789.5" stroke="#95a5a6" stroke-width="2" fill="none" marker-end="url(#arr)" opacity="0.88"/>
<path d="M1028.4,396.0 C833.8,396.0 710.9,312.0 516.2,312.0" stroke="#95a5a6" stroke-width="2" fill="none" marker-end="url(#arr)" opacity="0.88"/>
<path d="M1028.4,396.0 C777.2,396.0 618.6,744.7 367.4,744.7" stroke="#95a5a6" stroke-width="2" fill="none" marker-end="url(#arr)" opacity="0.88"/>
<path d="M1028.4,396.0 C774.2,396.0 613.6,700.0 359.3,700.0" stroke="#95a5a6" stroke-width="2" fill="none" marker-end="url(#arr)" opacity="0.88"/>
<path d="M765.5,368.0 C807.4,368.0 833.8,294.4 875.6,294.4" stroke="#2ecc71" stroke-width="2" fill="none" marker-end="url(#arr)" opacity="0.88"/>
<path d="M765.5,368.0 C865.4,368.0 928.5,396.0 1028.4,396.0" stroke="#2ecc71" stroke-width="2" fill="none" marker-end="url(#arr)" opacity="0.88"/>
<path d="M707.1,392.0 C707.1,395.0 707.1,397.0 707.1,400.0" stroke="#2ecc71" stroke-width="2" fill="none" marker-end="url(#arr)" opacity="0.88"/>
<path d="M765.5,368.0 C765.5,322.7 875.6,294.1 875.6,248.8" stroke="#2ecc71" stroke-width="2" fill="none" marker-end="url(#arr)" opacity="0.88"/>
<path d="M765.5,368.0 C807.4,368.0 833.8,340.0 875.6,340.0" stroke="#2ecc71" stroke-width="2" fill="none" marker-end="url(#arr)" opacity="0.88"/>
<path d="M648.8,368.0 C648.8,346.7 624.8,333.3 624.8,312.0" stroke="#2ecc71" stroke-width="2" fill="none" marker-end="url(#arr)" opacity="0.88"/>
<path d="M648.8,368.0 C526.5,368.0 449.3,476.4 327.1,476.4" stroke="#2ecc71" stroke-width="2" fill="none" marker-end="url(#arr)" opacity="0.88"/>
<path d="M648.8,368.0 C598.4,368.0 566.6,368.0 516.2,368.0" stroke="#2ecc71" stroke-width="2" fill="none" marker-end="url(#arr)" opacity="0.88"/>
<path d="M648.8,368.0 C541.8,368.0 474.3,610.5 367.4,610.5" stroke="#2ecc71" stroke-width="2" fill="none" marker-end="url(#arr)" opacity="0.88"/>
<path d="M707.1,392.0 C707.1,570.0 284.8,682.5 284.8,860.5" stroke="#2ecc71" stroke-width="2" fill="none" marker-end="url(#arr)" opacity="0.88"/>
<path d="M648.8,368.0 C648.8,528.2 367.4,629.3 367.4,789.5" stroke="#2ecc71" stroke-width="2" fill="none" marker-end="url(#arr)" opacity="0.88"/>
<path d="M765.5,368.0 C865.4,368.0 928.5,284.0 1028.4,284.0" stroke="#2ecc71" stroke-width="2" fill="none" marker-end="url(#arr)" opacity="0.88"/>
<path d="M648.8,368.0 C598.4,368.0 566.6,312.0 516.2,312.0" stroke="#2ecc71" stroke-width="2" fill="none" marker-end="url(#arr)" opacity="0.88"/>
<path d="M648.8,368.0 C648.8,511.2 367.4,601.6 367.4,744.7" stroke="#2ecc71" stroke-width="2" fill="none" marker-end="url(#arr)" opacity="0.88"/>
<path d="M765.5,368.0 C807.4,368.0 833.8,385.6 875.6,385.6" stroke="#2ecc71" stroke-width="2" fill="none" marker-end="url(#arr)" opacity="0.88"/>
<path d="M707.1,344.0 C707.1,341.0 707.1,339.0 707.1,336.0" stroke="#2ecc71" stroke-width="2" fill="none" marker-end="url(#arr)" opacity="0.88"/>
<path d="M284.8,763.1 C284.8,766.1 284.8,768.1 284.8,771.1" stroke="#f4d03f" stroke-width="2" fill="none" marker-end="url(#arr)" opacity="0.88"/>
<path d="M284.8,726.4 C284.8,672.3 284.8,638.2 284.8,584.2" stroke="#f4d03f" stroke-width="2" fill="none" marker-end="url(#arr)" opacity="0.88"/>
<path d="M469.9,136.7 C469.9,133.6 469.9,131.7 469.9,128.7" stroke="#e74c3c" stroke-width="2" fill="none" marker-end="url(#arr)" opacity="0.88"/>
<path d="M516.2,156.0 C710.9,156.0 833.8,396.0 1028.4,396.0" stroke="#e74c3c" stroke-width="2" fill="none" marker-end="url(#arr)" opacity="0.88"/>
<path d="M469.9,175.3 C469.9,384.7 284.8,517.0 284.8,726.4" stroke="#e74c3c" stroke-width="2" fill="none" marker-end="url(#arr)" opacity="0.88"/>
<path d="M469.9,175.3 C469.9,239.4 582.5,279.9 582.5,344.0" stroke="#e74c3c" stroke-width="2" fill="none" marker-end="url(#arr)" opacity="0.88"/>
<path d="M469.9,175.3 C469.9,218.1 582.5,245.2 582.5,288.0" stroke="#e74c3c" stroke-width="2" fill="none" marker-end="url(#arr)" opacity="0.88"/>
<path d="M469.9,175.3 C469.9,282.7 284.8,350.6 284.8,458.0" stroke="#e74c3c" stroke-width="2" fill="none" marker-end="url(#arr)" opacity="0.88"/>
<path d="M469.9,175.3 C469.9,218.1 469.9,245.2 469.9,288.0" stroke="#e74c3c" stroke-width="2" fill="none" marker-end="url(#arr)" opacity="0.88"/>
<path d="M469.9,175.3 C469.9,333.7 284.8,433.8 284.8,592.2" stroke="#e74c3c" stroke-width="2" fill="none" marker-end="url(#arr)" opacity="0.88"/>
<path d="M469.9,175.3 C469.9,239.4 469.9,279.9 469.9,344.0" stroke="#e74c3c" stroke-width="2" fill="none" marker-end="url(#arr)" opacity="0.88"/>
<path d="M469.9,175.3 C469.9,435.7 284.8,600.2 284.8,860.5" stroke="#e74c3c" stroke-width="2" fill="none" marker-end="url(#arr)" opacity="0.88"/>
<path d="M469.9,183.3 C469.9,162.6 469.9,149.4 469.9,128.7" stroke="#e74c3c" stroke-width="2" fill="none" marker-end="url(#arr)" opacity="0.88"/>
<path d="M516.2,202.7 C710.9,202.7 833.8,396.0 1028.4,396.0" stroke="#e74c3c" stroke-width="2" fill="none" marker-end="url(#arr)" opacity="0.88"/>
<path d="M469.9,222.0 C469.9,413.7 284.8,534.7 284.8,726.4" stroke="#e74c3c" stroke-width="2" fill="none" marker-end="url(#arr)" opacity="0.88"/>
<path d="M469.9,222.0 C469.9,268.4 582.5,297.6 582.5,344.0" stroke="#e74c3c" stroke-width="2" fill="none" marker-end="url(#arr)" opacity="0.88"/>
<path d="M516.2,202.7 C516.2,244.2 540.2,270.5 540.2,312.0" stroke="#e74c3c" stroke-width="2" fill="none" marker-end="url(#arr)" opacity="0.88"/>
<path d="M469.9,222.0 C469.9,311.7 284.8,368.3 284.8,458.0" stroke="#e74c3c" stroke-width="2" fill="none" marker-end="url(#arr)" opacity="0.88"/>
<path d="M469.9,222.0 C469.9,247.1 469.9,262.9 469.9,288.0" stroke="#e74c3c" stroke-width="2" fill="none" marker-end="url(#arr)" opacity="0.88"/>
<path d="M469.9,222.0 C469.9,362.7 284.8,451.5 284.8,592.2" stroke="#e74c3c" stroke-width="2" fill="none" marker-end="url(#arr)" opacity="0.88"/>
<path d="M469.9,222.0 C469.9,268.4 469.9,297.6 469.9,344.0" stroke="#e74c3c" stroke-width="2" fill="none" marker-end="url(#arr)" opacity="0.88"/>
<path d="M469.9,222.0 C469.9,464.6 284.8,617.9 284.8,860.5" stroke="#e74c3c" stroke-width="2" fill="none" marker-end="url(#arr)" opacity="0.88"/>
<path d="M284.8,860.5 C284.8,840.5 284.8,827.9 284.8,807.8" stroke="#f4d03f" stroke-width="2" fill="none" marker-end="url(#arr)" opacity="0.88"/>
<path d="M284.8,860.5 C284.8,755.5 284.8,689.2 284.8,584.2" stroke="#f4d03f" stroke-width="2" fill="none" marker-end="url(#arr)" opacity="0.88"/>
<path d="M284.8,905.3 C284.8,817.3 284.8,761.7 284.8,673.6" stroke="#f4d03f" stroke-width="2" fill="none" marker-end="url(#arr)" opacity="0.88"/>
<path d="M750.4,424.0 C856.0,424.0 922.8,284.0 1028.4,284.0" stroke="#2ecc71" stroke-width="2" fill="none" marker-end="url(#arr)" opacity="0.88"/>
<path d="M750.4,424.0 C750.4,374.8 875.6,343.6 875.6,294.4" stroke="#2ecc71" stroke-width="2" fill="none" marker-end="url(#arr)" opacity="0.88"/>
<path d="M750.4,424.0 C750.4,357.4 875.6,315.4 875.6,248.8" stroke="#2ecc71" stroke-width="2" fill="none" marker-end="url(#arr)" opacity="0.88"/>
<path d="M750.4,424.0 C856.0,424.0 922.8,396.0 1028.4,396.0" stroke="#2ecc71" stroke-width="2" fill="none" marker-end="url(#arr)" opacity="0.88"/>
<path d="M663.9,424.0 C663.9,545.9 367.4,622.9 367.4,744.7" stroke="#2ecc71" stroke-width="2" fill="none" marker-end="url(#arr)" opacity="0.88"/>
<path d="M663.9,424.0 C663.9,562.9 367.4,650.6 367.4,789.5" stroke="#2ecc71" stroke-width="2" fill="none" marker-end="url(#arr)" opacity="0.88"/>
<path d="M707.1,448.0 C546.7,448.0 445.3,860.5 284.8,860.5" stroke="#2ecc71" stroke-width="2" fill="none" marker-end="url(#arr)" opacity="0.88"/>
<path d="M750.4,424.0 C797.9,424.0 828.0,340.0 875.6,340.0" stroke="#2ecc71" stroke-width="2" fill="none" marker-end="url(#arr)" opacity="0.88"/>
<path d="M663.9,424.0 C663.9,381.4 624.8,354.6 624.8,312.0" stroke="#2ecc71" stroke-width="2" fill="none" marker-end="url(#arr)" opacity="0.88"/>
<path d="M663.9,424.0 C535.9,424.0 455.1,476.4 327.1,476.4" stroke="#2ecc71" stroke-width="2" fill="none" marker-end="url(#arr)" opacity="0.88"/>
<path d="M663.9,424.0 C607.8,424.0 572.4,368.0 516.2,368.0" stroke="#2ecc71" stroke-width="2" fill="none" marker-end="url(#arr)" opacity="0.88"/>
<path d="M663.9,424.0 C551.3,424.0 480.1,610.5 367.4,610.5" stroke="#2ecc71" stroke-width="2" fill="none" marker-end="url(#arr)" opacity="0.88"/>
<path d="M663.9,424.0 C607.8,424.0 572.4,312.0 516.2,312.0" stroke="#2ecc71" stroke-width="2" fill="none" marker-end="url(#arr)" opacity="0.88"/>
<path d="M938.0,412.4 C938.0,374.7 938.0,350.9 938.0,313.2" stroke="#e67e22" stroke-width="2" fill="none" marker-end="url(#arr)" opacity="0.88"/>
<path d="M938.0,412.4 C938.0,357.4 938.0,322.6 938.0,267.6" stroke="#e67e22" stroke-width="2" fill="none" marker-end="url(#arr)" opacity="0.88"/>
<path d="M938.0,412.4 C938.0,392.0 938.0,379.2 938.0,358.8" stroke="#e67e22" stroke-width="2" fill="none" marker-end="url(#arr)" opacity="0.88"/>
<path d="M871.5,431.2 C777.8,431.2 718.5,312.0 624.8,312.0" stroke="#e67e22" stroke-width="2" fill="none" marker-end="url(#arr)" opacity="0.88"/>
<path d="M871.5,431.2 C664.6,431.2 534.0,476.4 327.1,476.4" stroke="#e67e22" stroke-width="2" fill="none" marker-end="url(#arr)" opacity="0.88"/>
<path d="M1004.4,431.2 C1004.4,417.8 1028.4,409.4 1028.4,396.0" stroke="#e67e22" stroke-width="2" fill="none" marker-end="url(#arr)" opacity="0.88"/>
<path d="M871.5,431.2 C736.5,431.2 651.2,368.0 516.2,368.0" stroke="#e67e22" stroke-width="2" fill="none" marker-end="url(#arr)" opacity="0.88"/>
<path d="M871.5,431.2 C680.0,431.2 559.0,610.5 367.4,610.5" stroke="#e67e22" stroke-width="2" fill="none" marker-end="url(#arr)" opacity="0.88"/>
<path d="M871.5,431.2 C680.0,431.2 559.0,878.9 367.4,878.9" stroke="#e67e22" stroke-width="2" fill="none" marker-end="url(#arr)" opacity="0.88"/>
<path d="M871.5,431.2 C680.0,431.2 559.0,789.5 367.4,789.5" stroke="#e67e22" stroke-width="2" fill="none" marker-end="url(#arr)" opacity="0.88"/>
<path d="M871.5,431.2 C736.5,431.2 651.2,312.0 516.2,312.0" stroke="#e67e22" stroke-width="2" fill="none" marker-end="url(#arr)" opacity="0.88"/>
<path d="M871.5,431.2 C680.0,431.2 559.0,744.7 367.4,744.7" stroke="#e67e22" stroke-width="2" fill="none" marker-end="url(#arr)" opacity="0.88"/>
<path d="M871.5,431.2 C777.8,431.2 718.5,368.0 624.8,368.0" stroke="#e67e22" stroke-width="2" fill="none" marker-end="url(#arr)" opacity="0.88"/>
<rect x="540.2" y="288.0" width="84.5" height="48.0" rx="6.0" fill="#3498db" stroke="#fff" stroke-width="1"/>
<text x="582.5" y="305.0" text-anchor="middle" font-weight="bold" font-size="15.0" fill="#222">mycpu</text>
<text x="582.5" y="320.0" text-anchor="middle" fill="#555" font-size="13.0">src/cpu.c</text>
<rect x="242.5" y="458.0" width="84.5" height="36.7" rx="6.0" fill="#f4d03f" stroke="#fff" stroke-width="1"/>
<text x="284.8" y="473.4" text-anchor="middle" font-weight="bold" font-size="15.0" fill="#222">cpuid</text>
<text x="284.8" y="486.6" text-anchor="middle" fill="#555" font-size="13.0">src/cpu.c</text>
<rect x="202.2" y="502.7" width="165.1" height="36.7" rx="6.0" fill="#f4d03f" stroke="#fff" stroke-width="1"/>
<text x="284.8" y="518.2" text-anchor="middle" font-weight="bold" font-size="15.0" fill="#222">r_tp</text>
<text x="284.8" y="531.4" text-anchor="middle" fill="#555" font-size="13.0">src/include/riscv.h</text>
<rect x="540.2" y="344.0" width="84.5" height="48.0" rx="6.0" fill="#3498db" stroke="#fff" stroke-width="1"/>
<text x="582.5" y="361.0" text-anchor="middle" font-weight="bold" font-size="15.0" fill="#222">myproc</text>
<text x="582.5" y="376.0" text-anchor="middle" fill="#555" font-size="13.0">src/cpu.c</text>
<rect x="875.6" y="230.0" width="124.8" height="37.6" rx="6.0" fill="#e67e22" stroke="#fff" stroke-width="1"/>
<text x="938.0" y="245.8" text-anchor="middle" font-weight="bold" font-size="15.0" fill="#222">release</text>
<text x="938.0" y="259.3" text-anchor="middle" fill="#555" font-size="13.0">src/spinlock.c</text>
<rect x="875.6" y="275.6" width="124.8" height="37.6" rx="6.0" fill="#e67e22" stroke="#fff" stroke-width="1"/>
<text x="938.0" y="291.4" text-anchor="middle" font-weight="bold" font-size="15.0" fill="#222">acquire</text>
<text x="938.0" y="304.9" text-anchor="middle" fill="#555" font-size="13.0">src/spinlock.c</text>
<rect x="423.6" y="288.0" width="92.6" height="48.0" rx="6.0" fill="#e74c3c" stroke="#fff" stroke-width="1"/>
<text x="469.9" y="305.0" text-anchor="middle" font-weight="bold" font-size="15.0" fill="#222">pop_off</text>
<text x="469.9" y="320.0" text-anchor="middle" fill="#555" font-size="13.0">src/intr.c</text>
<rect x="875.6" y="321.2" width="124.8" height="37.6" rx="6.0" fill="#e67e22" stroke="#fff" stroke-width="1"/>
<text x="938.0" y="337.0" text-anchor="middle" font-weight="bold" font-size="15.0" fill="#222">holding</text>
<text x="938.0" y="350.5" text-anchor="middle" fill="#555" font-size="13.0">src/spinlock.c</text>
<rect x="423.6" y="344.0" width="92.6" height="48.0" rx="6.0" fill="#e74c3c" stroke="#fff" stroke-width="1"/>
<text x="469.9" y="361.0" text-anchor="middle" font-weight="bold" font-size="15.0" fill="#222">push_off</text>
<text x="469.9" y="376.0" text-anchor="middle" fill="#555" font-size="13.0">src/intr.c</text>
<rect x="202.2" y="547.5" width="165.1" height="36.7" rx="6.0" fill="#f4d03f" stroke="#fff" stroke-width="1"/>
<text x="284.8" y="562.9" text-anchor="middle" font-weight="bold" font-size="15.0" fill="#222">r_sstatus</text>
<text x="284.8" y="576.1" text-anchor="middle" fill="#555" font-size="13.0">src/include/riscv.h</text>
<rect x="1028.4" y="260.0" width="108.7" height="48.0" rx="6.0" fill="#95a5a6" stroke="#fff" stroke-width="1"/>
<text x="1082.8" y="277.0" text-anchor="middle" font-weight="bold" font-size="15.0" fill="#222">memset</text>
<text x="1082.8" y="292.0" text-anchor="middle" fill="#555" font-size="13.0">src/string.c</text>
<rect x="668.9" y="232.0" width="76.5" height="48.0" rx="6.0" fill="#2ecc71" stroke="#fff" stroke-width="1"/>
<text x="707.1" y="249.0" text-anchor="middle" font-weight="bold" font-size="15.0" fill="#222">walk</text>
<text x="707.1" y="264.0" text-anchor="middle" fill="#555" font-size="13.0">src/vm.c</text>
<rect x="202.2" y="592.2" width="165.1" height="36.7" rx="6.0" fill="#f4d03f" stroke="#fff" stroke-width="1"/>
<text x="284.8" y="607.6" text-anchor="middle" font-weight="bold" font-size="15.0" fill="#222">intr_get</text>
<text x="284.8" y="620.8" text-anchor="middle" fill="#555" font-size="13.0">src/include/riscv.h</text>
<rect x="423.6" y="90.0" width="92.6" height="38.7" rx="6.0" fill="#e74c3c" stroke="#fff" stroke-width="1"/>
<text x="469.9" y="106.2" text-anchor="middle" font-weight="bold" font-size="15.0" fill="#222">argraw</text>
<text x="469.9" y="120.2" text-anchor="middle" fill="#555" font-size="13.0">src/uarg.c</text>
<rect x="1028.4" y="316.0" width="108.7" height="48.0" rx="6.0" fill="#95a5a6" stroke="#fff" stroke-width="1"/>
<text x="1082.8" y="333.0" text-anchor="middle" font-weight="bold" font-size="15.0" fill="#222">memmove</text>
<text x="1082.8" y="348.0" text-anchor="middle" fill="#555" font-size="13.0">src/string.c</text>
<rect x="241.6" y="636.9" width="86.4" height="36.7" rx="6.0" fill="#f4d03f" stroke="#fff" stroke-width="1"/>
<text x="284.8" y="652.3" text-anchor="middle" font-weight="bold" font-size="15.0" fill="#222">spi_txrx</text>
<text x="284.8" y="665.6" text-anchor="middle" fill="#555" font-size="13.0">src/spi.c</text>
<rect x="659.3" y="288.0" width="95.7" height="48.0" rx="6.0" fill="#2ecc71" stroke="#fff" stroke-width="1"/>
<text x="707.1" y="305.0" text-anchor="middle" font-weight="bold" font-size="15.0" fill="#222">allocpage</text>
<text x="707.1" y="320.0" text-anchor="middle" fill="#555" font-size="13.0">src/pm.c</text>
<rect x="875.6" y="366.8" width="124.8" height="37.6" rx="6.0" fill="#e67e22" stroke="#fff" stroke-width="1"/>
<text x="938.0" y="382.6" text-anchor="middle" font-weight="bold" font-size="15.0" fill="#222">initlock</text>
<text x="938.0" y="396.1" text-anchor="middle" fill="#555" font-size="13.0">src/spinlock.c</text>
<rect x="1028.4" y="372.0" width="108.7" height="48.0" rx="6.0" fill="#95a5a6" stroke="#fff" stroke-width="1"/>
<text x="1082.8" y="389.0" text-anchor="middle" font-weight="bold" font-size="15.0" fill="#222">printf</text>
<text x="1082.8" y="404.0" text-anchor="middle" fill="#555" font-size="13.0">src/printf.c</text>
<rect x="210.3" y="681.6" width="149.0" height="36.7" rx="6.0" fill="#f4d03f" stroke="#fff" stroke-width="1"/>
<text x="284.8" y="697.1" text-anchor="middle" font-weight="bold" font-size="15.0" fill="#222">sbi_call</text>
<text x="284.8" y="710.3" text-anchor="middle" fill="#555" font-size="13.0">src/include/sbi.h</text>
<rect x="648.8" y="344.0" width="116.8" height="48.0" rx="6.0" fill="#2ecc71" stroke="#fff" stroke-width="1"/>
<text x="707.1" y="361.0" text-anchor="middle" font-weight="bold" font-size="15.0" fill="#222">kfree</text>
<text x="707.1" y="376.0" text-anchor="middle" fill="#555" font-size="13.0">src/kmalloc.c</text>
<rect x="202.2" y="726.4" width="165.1" height="36.7" rx="6.0" fill="#f4d03f" stroke="#fff" stroke-width="1"/>
<text x="284.8" y="741.8" text-anchor="middle" font-weight="bold" font-size="15.0" fill="#222">intr_on</text>
<text x="284.8" y="755.0" text-anchor="middle" fill="#555" font-size="13.0">src/include/riscv.h</text>
<rect x="423.6" y="136.7" width="92.6" height="38.7" rx="6.0" fill="#e74c3c" stroke="#fff" stroke-width="1"/>
<text x="469.9" y="152.9" text-anchor="middle" font-weight="bold" font-size="15.0" fill="#222">argint</text>
<text x="469.9" y="166.8" text-anchor="middle" fill="#555" font-size="13.0">src/uarg.c</text>
<rect x="202.2" y="771.1" width="165.1" height="36.7" rx="6.0" fill="#f4d03f" stroke="#fff" stroke-width="1"/>
<text x="284.8" y="786.5" text-anchor="middle" font-weight="bold" font-size="15.0" fill="#222">w_sstatus</text>
<text x="284.8" y="799.7" text-anchor="middle" fill="#555" font-size="13.0">src/include/riscv.h</text>
<rect x="423.6" y="183.3" width="92.6" height="38.7" rx="6.0" fill="#e74c3c" stroke="#fff" stroke-width="1"/>
<text x="469.9" y="199.6" text-anchor="middle" font-weight="bold" font-size="15.0" fill="#222">argaddr</text>
<text x="469.9" y="213.5" text-anchor="middle" fill="#555" font-size="13.0">src/uarg.c</text>
<rect x="170.0" y="815.8" width="229.6" height="36.7" rx="6.0" fill="#f4d03f" stroke="#fff" stroke-width="1"/>
<text x="284.8" y="831.2" text-anchor="middle" font-weight="bold" font-size="15.0" fill="#222">ccache_barrier_0</text>
<text x="284.8" y="844.5" text-anchor="middle" fill="#555" font-size="13.0">src/sifive/devices/ccache.h</text>
<rect x="202.2" y="860.5" width="165.1" height="36.7" rx="6.0" fill="#f4d03f" stroke="#fff" stroke-width="1"/>
<text x="284.8" y="876.0" text-anchor="middle" font-weight="bold" font-size="15.0" fill="#222">intr_off</text>
<text x="284.8" y="889.2" text-anchor="middle" fill="#555" font-size="13.0">src/include/riscv.h</text>
<rect x="241.6" y="905.3" width="86.4" height="36.7" rx="6.0" fill="#f4d03f" stroke="#fff" stroke-width="1"/>
<text x="284.8" y="920.7" text-anchor="middle" font-weight="bold" font-size="15.0" fill="#222">sd_dummy</text>
<text x="284.8" y="933.9" text-anchor="middle" fill="#555" font-size="13.0">src/sd.c</text>
<rect x="663.9" y="400.0" width="86.4" height="48.0" rx="6.0" fill="#2ecc71" stroke="#fff" stroke-width="1"/>
<text x="707.1" y="417.0" text-anchor="middle" font-weight="bold" font-size="15.0" fill="#222">freepage</text>
<text x="707.1" y="432.0" text-anchor="middle" fill="#555" font-size="13.0">src/pm.c</text>
<rect x="871.5" y="412.4" width="132.9" height="37.6" rx="6.0" fill="#e67e22" stroke="#fff" stroke-width="1"/>
<text x="938.0" y="428.2" text-anchor="middle" font-weight="bold" font-size="15.0" fill="#222">acquiresleep</text>
<text x="938.0" y="441.7" text-anchor="middle" fill="#555" font-size="13.0">src/sleeplock.c</text>
</svg>