<svg width="1361.56" height="962.0" xmlns="http://www.w3.org/2000/svg" font-family='system-ui, -apple-system, "Segoe UI", Roboto, "Helvetica Neue", Arial, "PingFang SC", "Microsoft YaHei", sans-serif' font-size='13'>
<defs><marker id="arr" markerWidth="10" markerHeight="10" refX="9" refY="3.5" orient="auto" markerUnits="userSpaceOnUse"><path d="M0,0 L0,7 L10,3.5 z" fill="#444"/></marker></defs>
<rect width="1361.56" height="962.0" fill="#fafafa"/>
<line x1="142.0" y1="46.0" x2="1341.56" y2="46.0" stroke="#ddd" stroke-width="1"/>
<line x1="142.0" y1="86.0" x2="1341.56" y2="86.0" stroke="#ddd" stroke-width="1"/>
<line x1="142.0" y1="226.0" x2="1341.56" y2="226.0" stroke="#ddd" stroke-width="1"/>
<line x1="142.0" y1="454.0" x2="1341.56" y2="454.0" stroke="#ddd" stroke-width="1"/>
<line x1="142.0" y1="902.0" x2="1341.56" y2="902.0" stroke="#ddd" stroke-width="1"/>
<line x1="142.0" y1="942.0" x2="1341.56" y2="942.0" stroke="#ddd" stroke-width="1"/>
<line x1="158.0" y1="46.0" x2="158.0" y2="942.0" stroke="#ddd" stroke-width="1"/>
<line x1="411.6" y1="46.0" x2="411.6" y2="942.0" stroke="#ddd" stroke-width="1"/>
<line x1="528.2" y1="46.0" x2="528.2" y2="942.0" stroke="#ddd" stroke-width="1"/>
<line x1="636.8" y1="46.0" x2="636.8" y2="942.0" stroke="#ddd" stroke-width="1"/>
<line x1="777.5" y1="46.0" x2="777.5" y2="942.0" stroke="#ddd" stroke-width="1"/>
<line x1="887.9" y1="46.0" x2="887.9" y2="942.0" stroke="#ddd" stroke-width="1"/>
<line x1="1044.8" y1="46.0" x2="1044.8" y2="942.0" stroke="#ddd" stroke-width="1"/>
<line x1="1177.6" y1="46.0" x2="1177.6" y2="942.0" stroke="#ddd" stroke-width="1"/>
<line x1="1259.6" y1="46.0" x2="1259.6" y2="942.0" stroke="#ddd" stroke-width="1"/>
<line x1="1341.6" y1="46.0" x2="1341.6" y2="942.0" stroke="#ddd" stroke-width="1"/>
<text x="137.0" y="71.0" text-anchor="end" fill="#111827" font-size="12" font-weight="600">userspace</text>
<text x="137.0" y="161.0" text-anchor="end" fill="#111827" font-size="12" font-weight="600">syscall_boundary</text>
<text x="137.0" y="345.0" text-anchor="end" fill="#111827" font-size="12" font-weight="600">kernel</text>
<text x="137.0" y="683.0" text-anchor="end" fill="#111827" font-size="12" font-weight="600">hardware</text>
<text x="137.0" y="927.0" text-anchor="end" fill="#111827" font-size="12" font-weight="600">unknown</text>
<text text-anchor="middle" font-size="13" font-weight="600" fill="#111827"><tspan x="284.8" y="19.0">arch</tspan><tspan x="284.8" dy="12.0">platform</tspan></text>
<text text-anchor="middle" font-size="13" font-weight="600" fill="#111827"><tspan x="469.9" y="19.0">trap</tspan><tspan x="469.9" dy="12.0">syscall</tspan></text>
<text text-anchor="middle" font-size="13" font-weight="600" fill="#111827"><tspan x="582.5" y="19.0">process</tspan><tspan x="582.5" dy="12.0">sched</tspan></text>
<text text-anchor="middle" font-size="13" font-weight="600" fill="#111827"><tspan x="707.1" y="19.0">memory</tspan><tspan x="707.1" dy="12.0">vm</tspan></text>
<text text-anchor="middle" font-size="13" font-weight="600" fill="#111827"><tspan x="832.7" y="19.0">fs</tspan><tspan x="832.7" dy="12.0">storage</tspan></text>
<text text-anchor="middle" font-size="13" font-weight="600" fill="#111827"><tspan x="966.4" y="19.0">sync</tspan><tspan x="966.4" dy="12.0">ipc</tspan></text>
<text text-anchor="middle" font-size="13" font-weight="600" fill="#111827"><tspan x="1111.2" y="19.0">runtime</tspan><tspan x="1111.2" dy="12.0">common</tspan></text>
<text text-anchor="middle" font-size="12" font-weight="600" fill="#111827"><tspan x="1218.6" y="19.0">user</tspan><tspan x="1218.6" dy="12.0">programs</tspan></text>
<text x="1300.6" y="30.0" text-anchor="middle" font-size="12" font-weight="600" fill="#111827">unknown</text>
<path d="M284.8,308.0 C284.8,365.0 284.8,401.0 284.8,458.0" stroke="#f4d03f" stroke-width="2" fill="none" marker-end="url(#arr)" opacity="0.88"/>
<path d="M284.8,308.0 C284.8,382.0 284.8,428.8 284.8,502.8" stroke="#f4d03f" stroke-width="2" fill="none" marker-end="url(#arr)" opacity="0.88"/>
<path d="M284.8,494.8 C284.8,497.8 284.8,499.8 284.8,502.8" stroke="#f4d03f" stroke-width="2" fill="none" marker-end="url(#arr)" opacity="0.88"/>
<path d="M540.2,340.0 C460.8,340.0 410.6,396.0 331.1,396.0" stroke="#3498db" stroke-width="2" fill="none" marker-end="url(#arr)" opacity="0.88"/>
<path d="M540.2,340.0 C459.2,340.0 408.1,284.0 327.1,284.0" stroke="#3498db" stroke-width="2" fill="none" marker-end="url(#arr)" opacity="0.88"/>
<path d="M540.2,340.0 C460.8,340.0 410.6,340.0 331.1,340.0" stroke="#3498db" stroke-width="2" fill="none" marker-end="url(#arr)" opacity="0.88"/>
<path d="M540.2,340.0 C459.2,340.0 408.1,476.4 327.1,476.4" stroke="#3498db" stroke-width="2" fill="none" marker-end="url(#arr)" opacity="0.88"/>
<path d="M540.2,340.0 C540.2,408.9 367.4,452.3 367.4,521.2" stroke="#3498db" stroke-width="2" fill="none" marker-end="url(#arr)" opacity="0.88"/>
<path d="M540.2,340.0 C540.2,442.9 367.4,507.9 367.4,610.8" stroke="#3498db" stroke-width="2" fill="none" marker-end="url(#arr)" opacity="0.88"/>
<path d="M624.8,340.0 C789.0,340.0 892.6,396.0 1056.8,396.0" stroke="#3498db" stroke-width="2" fill="none" marker-end="url(#arr)" opacity="0.88"/>
<path d="M582.5,364.0 C582.5,501.9 284.8,588.9 284.8,726.8" stroke="#3498db" stroke-width="2" fill="none" marker-end="url(#arr)" opacity="0.88"/>
<path d="M582.5,364.0 C582.5,518.9 284.8,616.7 284.8,771.6" stroke="#3498db" stroke-width="2" fill="none" marker-end="url(#arr)" opacity="0.88"/>
<path d="M582.5,364.0 C582.5,552.9 284.8,672.3 284.8,861.2" stroke="#3498db" stroke-width="2" fill="none" marker-end="url(#arr)" opacity="0.88"/>
<path d="M966.4,267.6 C966.4,288.0 966.4,300.8 966.4,321.2" stroke="#e67e22" stroke-width="2" fill="none" marker-end="url(#arr)" opacity="0.88"/>
<path d="M904.0,248.8 C686.3,248.8 548.8,340.0 331.1,340.0" stroke="#e67e22" stroke-width="2" fill="none" marker-end="url(#arr)" opacity="0.88"/>
<path d="M904.0,248.8 C684.8,248.8 546.3,284.0 327.1,284.0" stroke="#e67e22" stroke-width="2" fill="none" marker-end="url(#arr)" opacity="0.88"/>
<path d="M904.0,248.8 C684.8,248.8 546.3,476.4 327.1,476.4" stroke="#e67e22" stroke-width="2" fill="none" marker-end="url(#arr)" opacity="0.88"/>
<path d="M904.0,248.8 C700.1,248.8 571.3,521.2 367.4,521.2" stroke="#e67e22" stroke-width="2" fill="none" marker-end="url(#arr)" opacity="0.88"/>
<path d="M966.4,267.6 C1021.4,267.6 1056.2,372.0 1111.2,372.0" stroke="#e67e22" stroke-width="2" fill="none" marker-end="url(#arr)" opacity="0.88"/>
<path d="M966.4,267.6 C966.4,270.6 966.4,272.6 966.4,275.6" stroke="#e67e22" stroke-width="2" fill="none" marker-end="url(#arr)" opacity="0.88"/>
<path d="M904.0,248.8 C700.1,248.8 571.3,610.8 367.4,610.8" stroke="#e67e22" stroke-width="2" fill="none" marker-end="url(#arr)" opacity="0.88"/>
<path d="M904.0,248.8 C700.1,248.8 571.3,745.2 367.4,745.2" stroke="#e67e22" stroke-width="2" fill="none" marker-end="url(#arr)" opacity="0.88"/>
<path d="M904.0,248.8 C904.0,454.5 367.4,584.3 367.4,790.0" stroke="#e67e22" stroke-width="2" fill="none" marker-end="url(#arr)" opacity="0.88"/>
<path d="M904.0,294.4 C686.3,294.4 548.8,396.0 331.1,396.0" stroke="#e67e22" stroke-width="2" fill="none" marker-end="url(#arr)" opacity="0.88"/>
<path d="M966.4,313.2 C966.4,316.2 966.4,318.2 966.4,321.2" stroke="#e67e22" stroke-width="2" fill="none" marker-end="url(#arr)" opacity="0.88"/>
<path d="M904.0,294.4 C684.8,294.4 546.3,284.0 327.1,284.0" stroke="#e67e22" stroke-width="2" fill="none" marker-end="url(#arr)" opacity="0.88"/>
<path d="M966.4,275.6 C966.4,272.6 966.4,270.6 966.4,267.6" stroke="#e67e22" stroke-width="2" fill="none" marker-end="url(#arr)" opacity="0.88"/>
<path d="M904.0,294.4 C684.8,294.4 546.3,476.4 327.1,476.4" stroke="#e67e22" stroke-width="2" fill="none" marker-end="url(#arr)" opacity="0.88"/>
<path d="M904.0,294.4 C700.1,294.4 571.3,521.2 367.4,521.2" stroke="#e67e22" stroke-width="2" fill="none" marker-end="url(#arr)" opacity="0.88"/>
<path d="M1028.8,294.4 C1028.8,333.0 1056.8,357.4 1056.8,396.0" stroke="#e67e22" stroke-width="2" fill="none" marker-end="url(#arr)" opacity="0.88"/>
<path d="M904.0,294.4 C700.1,294.4 571.3,610.8 367.4,610.8" stroke="#e67e22" stroke-width="2" fill="none" marker-end="url(#arr)" opacity="0.88"/>
<path d="M904.0,294.4 C700.1,294.4 571.3,790.0 367.4,790.0" stroke="#e67e22" stroke-width="2" fill="none" marker-end="url(#arr)" opacity="0.88"/>
<path d="M904.0,294.4 C904.0,516.8 367.4,657.2 367.4,879.6" stroke="#e67e22" stroke-width="2" fill="none" marker-end="url(#arr)" opacity="0.88"/>
<path d="M284.8,316.0 C284.8,313.0 284.8,311.0 284.8,308.0" stroke="#f4d03f" stroke-width="2" fill="none" marker-end="url(#arr)" opacity="0.88"/>
<path d="M284.8,364.0 C284.8,450.8 284.8,505.6 284.8,592.4" stroke="#f4d03f" stroke-width="2" fill="none" marker-end="url(#arr)" opacity="0.88"/>
<path d="M284.8,364.0 C284.8,501.9 284.8,588.9 284.8,726.8" stroke="#f4d03f" stroke-width="2" fill="none" marker-end="url(#arr)" opacity="0.88"/>
<path d="M284.8,364.0 C284.8,518.9 284.8,616.7 284.8,771.6" stroke="#f4d03f" stroke-width="2" fill="none" marker-end="url(#arr)" opacity="0.88"/>
<path d="M284.8,364.0 C284.8,399.7 284.8,422.3 284.8,458.0" stroke="#f4d03f" stroke-width="2" fill="none" marker-end="url(#arr)" opacity="0.88"/>
<path d="M284.8,364.0 C284.8,416.7 284.8,450.1 284.8,502.8" stroke="#f4d03f" stroke-width="2" fill="none" marker-end="url(#arr)" opacity="0.88"/>
<path d="M331.1,340.0 C606.9,340.0 781.1,396.0 1056.8,396.0" stroke="#f4d03f" stroke-width="2" fill="none" marker-end="url(#arr)" opacity="0.88"/>
<path d="M331.1,340.0 C548.8,340.0 686.3,294.4 904.0,294.4" stroke="#f4d03f" stroke-width="2" fill="none" marker-end="url(#arr)" opacity="0.88"/>
<path d="M331.1,340.0 C548.8,340.0 686.3,248.8 904.0,248.8" stroke="#f4d03f" stroke-width="2" fill="none" marker-end="url(#arr)" opacity="0.88"/>
<path d="M904.0,340.0 C684.8,340.0 546.3,284.0 327.1,284.0" stroke="#e67e22" stroke-width="2" fill="none" marker-end="url(#arr)" opacity="0.88"/>
<path d="M904.0,340.0 C684.8,340.0 546.3,476.4 327.1,476.4" stroke="#e67e22" stroke-width="2" fill="none" marker-end="url(#arr)" opacity="0.88"/>
<path d="M904.0,340.0 C700.1,340.0 571.3,521.2 367.4,521.2" stroke="#e67e22" stroke-width="2" fill="none" marker-end="url(#arr)" opacity="0.88"/>
<path d="M284.8,420.0 C284.8,485.5 284.8,526.9 284.8,592.4" stroke="#f4d03f" stroke-width="2" fill="none" marker-end="url(#arr)" opacity="0.88"/>
<path d="M284.8,420.0 C284.8,587.7 284.8,693.5 284.8,861.2" stroke="#f4d03f" stroke-width="2" fill="none" marker-end="url(#arr)" opacity="0.88"/>
<path d="M284.8,372.0 C284.8,347.7 284.8,332.3 284.8,308.0" stroke="#f4d03f" stroke-width="2" fill="none" marker-end="url(#arr)" opacity="0.88"/>
<path d="M284.8,420.0 C284.8,553.6 284.8,638.0 284.8,771.6" stroke="#f4d03f" stroke-width="2" fill="none" marker-end="url(#arr)" opacity="0.88"/>
<path d="M284.8,420.0 C284.8,434.4 284.8,443.6 284.8,458.0" stroke="#f4d03f" stroke-width="2" fill="none" marker-end="url(#arr)" opacity="0.88"/>
<path d="M284.8,420.0 C284.8,451.5 284.8,471.3 284.8,502.8" stroke="#f4d03f" stroke-width="2" fill="none" marker-end="url(#arr)" opacity="0.88"/>
<path d="M707.1,280.0 C707.1,283.0 707.1,285.0 707.1,288.0" stroke="#2ecc71" stroke-width="2" fill="none" marker-end="url(#arr)" opacity="0.88"/>
<path d="M745.4,256.0 C863.7,256.0 938.5,284.0 1056.8,284.0" stroke="#2ecc71" stroke-width="2" fill="none" marker-end="url(#arr)" opacity="0.88"/>
<path d="M745.4,256.0 C863.7,256.0 938.5,396.0 1056.8,396.0" stroke="#2ecc71" stroke-width="2" fill="none" marker-end="url(#arr)" opacity="0.88"/>
<path d="M745.4,256.0 C805.7,256.0 843.7,294.4 904.0,294.4" stroke="#2ecc71" stroke-width="2" fill="none" marker-end="url(#arr)" opacity="0.88"/>
<path d="M745.4,256.0 C805.7,256.0 843.7,248.8 904.0,248.8" stroke="#2ecc71" stroke-width="2" fill="none" marker-end="url(#arr)" opacity="0.88"/>
<path d="M707.1,280.0 C707.1,449.8 284.8,557.0 284.8,726.8" stroke="#2ecc71" stroke-width="2" fill="none" marker-end="url(#arr)" opacity="0.88"/>
<path d="M707.1,280.0 C707.1,500.9 284.8,640.3 284.8,861.2" stroke="#2ecc71" stroke-width="2" fill="none" marker-end="url(#arr)" opacity="0.88"/>
<path d="M284.8,592.4 C284.8,589.4 284.8,587.4 284.8,584.4" stroke="#f4d03f" stroke-width="2" fill="none" marker-end="url(#arr)" opacity="0.88"/>
<path d="M469.9,128.7 C469.9,199.9 582.5,244.8 582.5,316.0" stroke="#e74c3c" stroke-width="2" fill="none" marker-end="url(#arr)" opacity="0.88"/>
<path d="M423.6,109.3 C423.6,175.7 327.1,217.6 327.1,284.0" stroke="#e74c3c" stroke-width="2" fill="none" marker-end="url(#arr)" opacity="0.88"/>
<path d="M469.9,128.7 C469.9,253.8 284.8,332.9 284.8,458.0" stroke="#e74c3c" stroke-width="2" fill="none" marker-end="url(#arr)" opacity="0.88"/>
<path d="M469.9,128.7 C469.9,270.8 284.8,360.6 284.8,502.8" stroke="#e74c3c" stroke-width="2" fill="none" marker-end="url(#arr)" opacity="0.88"/>
<path d="M469.9,128.7 C469.9,199.9 284.8,244.8 284.8,316.0" stroke="#e74c3c" stroke-width="2" fill="none" marker-end="url(#arr)" opacity="0.88"/>
<path d="M469.9,128.7 C469.9,304.9 284.8,416.2 284.8,592.4" stroke="#e74c3c" stroke-width="2" fill="none" marker-end="url(#arr)" opacity="0.88"/>
<path d="M469.9,128.7 C469.9,356.0 284.8,499.5 284.8,726.8" stroke="#e74c3c" stroke-width="2" fill="none" marker-end="url(#arr)" opacity="0.88"/>
<path d="M469.9,128.7 C469.9,373.0 284.8,527.3 284.8,771.6" stroke="#e74c3c" stroke-width="2" fill="none" marker-end="url(#arr)" opacity="0.88"/>
<path d="M516.2,109.3 C721.7,109.3 851.4,396.0 1056.8,396.0" stroke="#e74c3c" stroke-width="2" fill="none" marker-end="url(#arr)" opacity="0.88"/>
<path d="M469.9,128.7 C469.9,221.1 284.8,279.5 284.8,372.0" stroke="#e74c3c" stroke-width="2" fill="none" marker-end="url(#arr)" opacity="0.88"/>
<path d="M469.9,128.7 C469.9,407.0 284.8,582.8 284.8,861.2" stroke="#e74c3c" stroke-width="2" fill="none" marker-end="url(#arr)" opacity="0.88"/>
<path d="M755.0,312.0 C811.6,312.0 847.4,294.4 904.0,294.4" stroke="#2ecc71" stroke-width="2" fill="none" marker-end="url(#arr)" opacity="0.88"/>
<path d="M755.0,312.0 C811.6,312.0 847.4,248.8 904.0,248.8" stroke="#2ecc71" stroke-width="2" fill="none" marker-end="url(#arr)" opacity="0.88"/>
<path d="M755.0,312.0 C869.7,312.0 942.1,284.0 1056.8,284.0" stroke="#2ecc71" stroke-width="2" fill="none" marker-end="url(#arr)" opacity="0.88"/>
<path d="M755.0,312.0 C811.6,312.0 847.4,340.0 904.0,340.0" stroke="#2ecc71" stroke-width="2" fill="none" marker-end="url(#arr)" opacity="0.88"/>
<path d="M659.3,312.0 C533.1,312.0 453.3,284.0 327.1,284.0" stroke="#2ecc71" stroke-width="2" fill="none" marker-end="url(#arr)" opacity="0.88"/>
<path d="M659.3,312.0 C533.1,312.0 453.3,476.4 327.1,476.4" stroke="#2ecc71" stroke-width="2" fill="none" marker-end="url(#arr)" opacity="0.88"/>
<path d="M755.0,312.0 C869.7,312.0 942.1,396.0 1056.8,396.0" stroke="#2ecc71" stroke-width="2" fill="none" marker-end="url(#arr)" opacity="0.88"/>
<path d="M659.3,312.0 C534.6,312.0 455.8,396.0 331.1,396.0" stroke="#2ecc71" stroke-width="2" fill="none" marker-end="url(#arr)" opacity="0.88"/>
<path d="M659.3,312.0 C659.3,425.5 367.4,497.3 367.4,610.8" stroke="#2ecc71" stroke-width="2" fill="none" marker-end="url(#arr)" opacity="0.88"/>
<path d="M707.1,336.0 C707.1,535.6 284.8,661.6 284.8,861.2" stroke="#2ecc71" stroke-width="2" fill="none" marker-end="url(#arr)" opacity="0.88"/>
<path d="M707.1,336.0 C707.1,501.5 284.8,606.1 284.8,771.6" stroke="#2ecc71" stroke-width="2" fill="none" marker-end="url(#arr)" opacity="0.88"/>
<path d="M659.3,312.0 C534.6,312.0 455.8,340.0 331.1,340.0" stroke="#2ecc71" stroke-width="2" fill="none" marker-end="url(#arr)" opacity="0.88"/>
<path d="M707.1,336.0 C546.7,336.0 445.3,726.8 284.8,726.8" stroke="#2ecc71" stroke-width="2" fill="none" marker-end="url(#arr)" opacity="0.88"/>
<path d="M1056.8,396.0 C1056.8,357.4 1028.8,333.0 1028.8,294.4" stroke="#95a5a6" stroke-width="2" fill="none" marker-end="url(#arr)" opacity="0.88"/>
<path d="M1111.2,372.0 C1056.2,372.0 1021.4,267.6 966.4,267.6" stroke="#95a5a6" stroke-width="2" fill="none" marker-end="url(#arr)" opacity="0.88"/>
<path d="M1056.8,396.0 C781.1,396.0 606.9,340.0 331.1,340.0" stroke="#95a5a6" stroke-width="2" fill="none" marker-end="url(#arr)" opacity="0.88"/>
<path d="M1056.8,396.0 C1056.8,374.7 1028.8,361.3 1028.8,340.0" stroke="#95a5a6" stroke-width="2" fill="none" marker-end="url(#arr)" opacity="0.88"/>
<path d="M1056.8,396.0 C781.1,396.0 606.9,396.0 331.1,396.0" stroke="#95a5a6" stroke-width="2" fill="none" marker-end="url(#arr)" opacity="0.88"/>
<path d="M1056.8,396.0 C794.8,396.0 629.4,610.8 367.4,610.8" stroke="#95a5a6" stroke-width="2" fill="none" marker-end="url(#arr)" opacity="0.88"/>
<path d="M1056.8,396.0 C779.5,396.0 604.4,284.0 327.1,284.0" stroke="#95a5a6" stroke-width="2" fill="none" marker-end="url(#arr)" opacity="0.88"/>
<path d="M1056.8,396.0 C779.5,396.0 604.4,476.4 327.1,476.4" stroke="#95a5a6" stroke-width="2" fill="none" marker-end="url(#arr)" opacity="0.88"/>
<path d="M1056.8,396.0 C794.8,396.0 629.4,879.6 367.4,879.6" stroke="#95a5a6" stroke-width="2" fill="none" marker-end="url(#arr)" opacity="0.88"/>
<path d="M1056.8,396.0 C794.8,396.0 629.4,790.0 367.4,790.0" stroke="#95a5a6" stroke-width="2" fill="none" marker-end="url(#arr)" opacity="0.88"/>
<path d="M1056.8,396.0 C794.8,396.0 629.4,745.2 367.4,745.2" stroke="#95a5a6" stroke-width="2" fill="none" marker-end="url(#arr)" opacity="0.88"/>
<path d="M1056.8,396.0 C791.8,396.0 624.4,700.4 359.3,700.4" stroke="#95a5a6" stroke-width="2" fill="none" marker-end="url(#arr)" opacity="0.88"/>
<path d="M765.5,368.0 C818.1,368.0 851.4,294.4 904.0,294.4" stroke="#2ecc71" stroke-width="2" fill="none" marker-end="url(#arr)" opacity="0.88"/>
<path d="M765.5,368.0 C876.2,368.0 946.1,396.0 1056.8,396.0" stroke="#2ecc71" stroke-width="2" fill="none" marker-end="url(#arr)" opacity="0.88"/>
<path d="M707.1,392.0 C707.1,395.0 707.1,397.0 707.1,400.0" stroke="#2ecc71" stroke-width="2" fill="none" marker-end="url(#arr)" opacity="0.88"/>
<path d="M765.5,368.0 C818.1,368.0 851.4,248.8 904.0,248.8" stroke="#2ecc71" stroke-width="2" fill="none" marker-end="url(#arr)" opacity="0.88"/>
<path d="M765.5,368.0 C818.1,368.0 851.4,340.0 904.0,340.0" stroke="#2ecc71" stroke-width="2" fill="none" marker-end="url(#arr)" opacity="0.88"/>
<path d="M648.8,368.0 C526.5,368.0 449.3,284.0 327.1,284.0" stroke="#2ecc71" stroke-width="2" fill="none" marker-end="url(#arr)" opacity="0.88"/>
<path d="M648.8,368.0 C526.5,368.0 449.3,476.4 327.1,476.4" stroke="#2ecc71" stroke-width="2" fill="none" marker-end="url(#arr)" opacity="0.88"/>
<path d="M648.8,368.0 C528.1,368.0 451.8,396.0 331.1,396.0" stroke="#2ecc71" stroke-width="2" fill="none" marker-end="url(#arr)" opacity="0.88"/>
<path d="M648.8,368.0 C541.8,368.0 474.3,610.8 367.4,610.8" stroke="#2ecc71" stroke-width="2" fill="none" marker-end="url(#arr)" opacity="0.88"/>
<path d="M707.1,392.0 C707.1,570.3 284.8,682.9 284.8,861.2" stroke="#2ecc71" stroke-width="2" fill="none" marker-end="url(#arr)" opacity="0.88"/>
<path d="M648.8,368.0 C648.8,528.4 367.4,629.6 367.4,790.0" stroke="#2ecc71" stroke-width="2" fill="none" marker-end="url(#arr)" opacity="0.88"/>
<path d="M765.5,368.0 C876.2,368.0 946.1,284.0 1056.8,284.0" stroke="#2ecc71" stroke-width="2" fill="none" marker-end="url(#arr)" opacity="0.88"/>
<path d="M648.8,368.0 C528.1,368.0 451.8,340.0 331.1,340.0" stroke="#2ecc71" stroke-width="2" fill="none" marker-end="url(#arr)" opacity="0.88"/>
<path d="M648.8,368.0 C648.8,511.3 367.4,601.9 367.4,745.2" stroke="#2ecc71" stroke-width="2" fill="none" marker-end="url(#arr)" opacity="0.88"/>
<path d="M765.5,368.0 C818.1,368.0 851.4,385.6 904.0,385.6" stroke="#2ecc71" stroke-width="2" fill="none" marker-end="url(#arr)" opacity="0.88"/>
<path d="M707.1,344.0 C707.1,341.0 707.1,339.0 707.1,336.0" stroke="#2ecc71" stroke-width="2" fill="none" marker-end="url(#arr)" opacity="0.88"/>
<path d="M284.8,763.6 C284.8,766.6 284.8,768.6 284.8,771.6" stroke="#f4d03f" stroke-width="2" fill="none" marker-end="url(#arr)" opacity="0.88"/>
<path d="M284.8,726.8 C284.8,672.7 284.8,638.5 284.8,584.4" stroke="#f4d03f" stroke-width="2" fill="none" marker-end="url(#arr)" opacity="0.88"/>
<path d="M469.9,136.7 C469.9,133.6 469.9,131.7 469.9,128.7" stroke="#e74c3c" stroke-width="2" fill="none" marker-end="url(#arr)" opacity="0.88"/>
<path d="M516.2,156.0 C721.7,156.0 851.4,396.0 1056.8,396.0" stroke="#e74c3c" stroke-width="2" fill="none" marker-end="url(#arr)" opacity="0.88"/>
<path d="M469.9,175.3 C469.9,384.9 284.8,517.2 284.8,726.8" stroke="#e74c3c" stroke-width="2" fill="none" marker-end="url(#arr)" opacity="0.88"/>
<path d="M469.9,175.3 C469.9,228.8 582.5,262.5 582.5,316.0" stroke="#e74c3c" stroke-width="2" fill="none" marker-end="url(#arr)" opacity="0.88"/>
<path d="M423.6,156.0 C423.6,204.6 327.1,235.4 327.1,284.0" stroke="#e74c3c" stroke-width="2" fill="none" marker-end="url(#arr)" opacity="0.88"/>
<path d="M469.9,175.3 C469.9,282.7 284.8,350.6 284.8,458.0" stroke="#e74c3c" stroke-width="2" fill="none" marker-end="url(#arr)" opacity="0.88"/>
<path d="M423.6,156.0 C423.6,225.9 331.1,270.1 331.1,340.0" stroke="#e74c3c" stroke-width="2" fill="none" marker-end="url(#arr)" opacity="0.88"/>
<path d="M469.9,175.3 C469.9,333.8 284.8,433.9 284.8,592.4" stroke="#e74c3c" stroke-width="2" fill="none" marker-end="url(#arr)" opacity="0.88"/>
<path d="M469.9,175.3 C469.9,250.1 284.8,297.3 284.8,372.0" stroke="#e74c3c" stroke-width="2" fill="none" marker-end="url(#arr)" opacity="0.88"/>
<path d="M469.9,175.3 C469.9,436.0 284.8,600.6 284.8,861.2" stroke="#e74c3c" stroke-width="2" fill="none" marker-end="url(#arr)" opacity="0.88"/>
<path d="M469.9,183.3 C469.9,162.6 469.9,149.4 469.9,128.7" stroke="#e74c3c" stroke-width="2" fill="none" marker-end="url(#arr)" opacity="0.88"/>
<path d="M516.2,202.7 C721.7,202.7 851.4,396.0 1056.8,396.0" stroke="#e74c3c" stroke-width="2" fill="none" marker-end="url(#arr)" opacity="0.88"/>
<path d="M469.9,222.0 C469.9,413.8 284.8,535.0 284.8,726.8" stroke="#e74c3c" stroke-width="2" fill="none" marker-end="url(#arr)" opacity="0.88"/>
<path d="M469.9,222.0 C512.7,222.0 539.7,316.0 582.5,316.0" stroke="#e74c3c" stroke-width="2" fill="none" marker-end="url(#arr)" opacity="0.88"/>
<path d="M423.6,202.7 C386.9,202.7 363.8,284.0 327.1,284.0" stroke="#e74c3c" stroke-width="2" fill="none" marker-end="url(#arr)" opacity="0.88"/>
<path d="M469.9,222.0 C469.9,311.7 284.8,368.3 284.8,458.0" stroke="#e74c3c" stroke-width="2" fill="none" marker-end="url(#arr)" opacity="0.88"/>
<path d="M423.6,202.7 C423.6,254.9 331.1,287.8 331.1,340.0" stroke="#e74c3c" stroke-width="2" fill="none" marker-end="url(#arr)" opacity="0.88"/>
<path d="M469.9,222.0 C469.9,362.8 284.8,451.6 284.8,592.4" stroke="#e74c3c" stroke-width="2" fill="none" marker-end="url(#arr)" opacity="0.88"/>
<path d="M469.9,222.0 C399.6,222.0 355.2,372.0 284.8,372.0" stroke="#e74c3c" stroke-width="2" fill="none" marker-end="url(#arr)" opacity="0.88"/>
<path d="M469.9,222.0 C469.9,464.9 284.8,618.3 284.8,861.2" stroke="#e74c3c" stroke-width="2" fill="none" marker-end="url(#arr)" opacity="0.88"/>
<path d="M284.8,861.2 C284.8,841.1 284.8,828.5 284.8,808.4" stroke="#f4d03f" stroke-width="2" fill="none" marker-end="url(#arr)" opacity="0.88"/>
<path d="M284.8,861.2 C284.8,756.0 284.8,689.6 284.8,584.4" stroke="#f4d03f" stroke-width="2" fill="none" marker-end="url(#arr)" opacity="0.88"/>
<path d="M789.5,678.0 C614.2,678.0 503.4,655.6 328.0,655.6" stroke="#9b59b6" stroke-width="2" fill="none" marker-end="url(#arr)" opacity="0.88"/>
<path d="M750.4,424.0 C866.8,424.0 940.4,284.0 1056.8,284.0" stroke="#2ecc71" stroke-width="2" fill="none" marker-end="url(#arr)" opacity="0.88"/>
<path d="M750.4,424.0 C808.7,424.0 845.6,294.4 904.0,294.4" stroke="#2ecc71" stroke-width="2" fill="none" marker-end="url(#arr)" opacity="0.88"/>
<path d="M750.4,424.0 C750.4,357.4 904.0,315.4 904.0,248.8" stroke="#2ecc71" stroke-width="2" fill="none" marker-end="url(#arr)" opacity="0.88"/>
<path d="M750.4,424.0 C866.8,424.0 940.4,396.0 1056.8,396.0" stroke="#2ecc71" stroke-width="2" fill="none" marker-end="url(#arr)" opacity="0.88"/>
<path d="M663.9,424.0 C663.9,546.1 367.4,623.1 367.4,745.2" stroke="#2ecc71" stroke-width="2" fill="none" marker-end="url(#arr)" opacity="0.88"/>
<path d="M663.9,424.0 C663.9,563.1 367.4,650.9 367.4,790.0" stroke="#2ecc71" stroke-width="2" fill="none" marker-end="url(#arr)" opacity="0.88"/>
<path d="M707.1,448.0 C546.7,448.0 445.3,861.2 284.8,861.2" stroke="#2ecc71" stroke-width="2" fill="none" marker-end="url(#arr)" opacity="0.88"/>
<path d="M750.4,424.0 C808.7,424.0 845.6,340.0 904.0,340.0" stroke="#2ecc71" stroke-width="2" fill="none" marker-end="url(#arr)" opacity="0.88"/>
<path d="M663.9,424.0 C535.9,424.0 455.1,284.0 327.1,284.0" stroke="#2ecc71" stroke-width="2" fill="none" marker-end="url(#arr)" opacity="0.88"/>
<path d="M663.9,424.0 C535.9,424.0 455.1,476.4 327.1,476.4" stroke="#2ecc71" stroke-width="2" fill="none" marker-end="url(#arr)" opacity="0.88"/>
<path d="M663.9,424.0 C537.5,424.0 457.6,396.0 331.1,396.0" stroke="#2ecc71" stroke-width="2" fill="none" marker-end="url(#arr)" opacity="0.88"/>
<path d="M663.9,424.0 C551.3,424.0 480.1,610.8 367.4,610.8" stroke="#2ecc71" stroke-width="2" fill="none" marker-end="url(#arr)" opacity="0.88"/>
<path d="M663.9,424.0 C537.5,424.0 457.6,340.0 331.1,340.0" stroke="#2ecc71" stroke-width="2" fill="none" marker-end="url(#arr)" opacity="0.88"/>
<path d="M966.4,412.4 C966.4,374.7 966.4,350.9 966.4,313.2" stroke="#e67e22" stroke-width="2" fill="none" marker-end="url(#arr)" opacity="0.88"/>
<path d="M966.4,412.4 C966.4,357.4 966.4,322.6 966.4,267.6" stroke="#e67e22" stroke-width="2" fill="none" marker-end="url(#arr)" opacity="0.88"/>
<path d="M966.4,412.4 C966.4,392.0 966.4,379.2 966.4,358.8" stroke="#e67e22" stroke-width="2" fill="none" marker-end="url(#arr)" opacity="0.88"/>
<path d="M899.9,431.2 C682.3,431.2 544.8,284.0 327.1,284.0" stroke="#e67e22" stroke-width="2" fill="none" marker-end="url(#arr)" opacity="0.88"/>
<path d="M899.9,431.2 C682.3,431.2 544.8,476.4 327.1,476.4" stroke="#e67e22" stroke-width="2" fill="none" marker-end="url(#arr)" opacity="0.88"/>
<path d="M1032.8,431.2 C1032.8,417.8 1056.8,409.4 1056.8,396.0" stroke="#e67e22" stroke-width="2" fill="none" marker-end="url(#arr)" opacity="0.88"/>
<path d="M899.9,431.2 C683.8,431.2 547.3,396.0 331.1,396.0" stroke="#e67e22" stroke-width="2" fill="none" marker-end="url(#arr)" opacity="0.88"/>
<path d="M899.9,431.2 C697.6,431.2 569.8,610.8 367.4,610.8" stroke="#e67e22" stroke-width="2" fill="none" marker-end="url(#arr)" opacity="0.88"/>
<path d="M899.9,431.2 C697.6,431.2 569.8,879.6 367.4,879.6" stroke="#e67e22" stroke-width="2" fill="none" marker-end="url(#arr)" opacity="0.88"/>
<path d="M899.9,431.2 C697.6,431.2 569.8,790.0 367.4,790.0" stroke="#e67e22" stroke-width="2" fill="none" marker-end="url(#arr)" opacity="0.88"/>
<path d="M899.9,431.2 C683.8,431.2 547.3,340.0 331.1,340.0" stroke="#e67e22" stroke-width="2" fill="none" marker-end="url(#arr)" opacity="0.88"/>
<path d="M899.9,431.2 C697.6,431.2 569.8,745.2 367.4,745.2" stroke="#e67e22" stroke-width="2" fill="none" marker-end="url(#arr)" opacity="0.88"/>
<path d="M899.9,431.2 C795.4,431.2 729.3,340.0 624.8,340.0" stroke="#e67e22" stroke-width="2" fill="none" marker-end="url(#arr)" opacity="0.88"/>
<rect x="242.5" y="260.0" width="84.5" height="48.0" rx="6.0" fill="#f4d03f" stroke="#fff" stroke-width="1"/>
<text x="284.8" y="277.0" text-anchor="middle" font-weight="bold" font-size="15.0" fill="#222">mycpu</text>
<text x="284.8" y="292.0" text-anchor="middle" fill="#555" font-size="13.0">src/cpu.c</text>
<rect x="242.5" y="458.0" width="84.5" height="36.8" rx="6.0" fill="#f4d03f" stroke="#fff" stroke-width="1"/>
<text x="284.8" y="473.5" text-anchor="middle" font-weight="bold" font-size="15.0" fill="#222">cpuid</text>
<text x="284.8" y="486.7" text-anchor="middle" fill="#555" font-size="13.0">src/cpu.c</text>
<rect x="202.2" y="502.8" width="165.1" height="36.8" rx="6.0" fill="#f4d03f" stroke="#fff" stroke-width="1"/>
<text x="284.8" y="518.3" text-anchor="middle" font-weight="bold" font-size="15.0" fill="#222">r_tp</text>
<text x="284.8" y="531.5" text-anchor="middle" fill="#555" font-size="13.0">src/include/riscv.h</text>
<rect x="540.2" y="316.0" width="84.5" height="48.0" rx="6.0" fill="#3498db" stroke="#fff" stroke-width="1"/>
<text x="582.5" y="333.0" text-anchor="middle" font-weight="bold" font-size="15.0" fill="#222">myproc</text>
<text x="582.5" y="348.0" text-anchor="middle" fill="#555" font-size="13.0">src/cpu.c</text>
<rect x="904.0" y="230.0" width="124.8" height="37.6" rx="6.0" fill="#e67e22" stroke="#fff" stroke-width="1"/>
<text x="966.4" y="245.8" text-anchor="middle" font-weight="bold" font-size="15.0" fill="#222">release</text>
<text x="966.4" y="259.3" text-anchor="middle" fill="#555" font-size="13.0">src/spinlock.c</text>
<rect x="904.0" y="275.6" width="124.8" height="37.6" rx="6.0" fill="#e67e22" stroke="#fff" stroke-width="1"/>
<text x="966.4" y="291.4" text-anchor="middle" font-weight="bold" font-size="15.0" fill="#222">acquire</text>
<text x="966.4" y="304.9" text-anchor="middle" fill="#555" font-size="13.0">src/spinlock.c</text>
<rect x="238.5" y="316.0" width="92.6" height="48.0" rx="6.0" fill="#f4d03f" stroke="#fff" stroke-width="1"/>
<text x="284.8" y="333.0" text-anchor="middle" font-weight="bold" font-size="15.0" fill="#222">pop_off</text>
<text x="284.8" y="348.0" text-anchor="middle" fill="#555" font-size="13.0">src/intr.c</text>
<rect x="904.0" y="321.2" width="124.8" height="37.6" rx="6.0" fill="#e67e22" stroke="#fff" stroke-width="1"/>
<text x="966.4" y="337.0" text-anchor="middle" font-weight="bold" font-size="15.0" fill="#222">holding</text>
<text x="966.4" y="350.5" text-anchor="middle" fill="#555" font-size="13.0">src/spinlock.c</text>
<rect x="238.5" y="372.0" width="92.6" height="48.0" rx="6.0" fill="#f4d03f" stroke="#fff" stroke-width="1"/>
<text x="284.8" y="389.0" text-anchor="middle" font-weight="bold" font-size="15.0" fill="#222">push_off</text>
<text x="284.8" y="404.0" text-anchor="middle" fill="#555" font-size="13.0">src/intr.c</text>
<rect x="202.2" y="547.6" width="165.1" height="36.8" rx="6.0" fill="#f4d03f" stroke="#fff" stroke-width="1"/>
<text x="284.8" y="563.1" text-anchor="middle" font-weight="bold" font-size="15.0" fill="#222">r_sstatus</text>
<text x="284.8" y="576.3" text-anchor="middle" fill="#555" font-size="13.0">src/include/riscv.h</text>
<rect x="1056.8" y="260.0" width="108.7" height="48.0" rx="6.0" fill="#95a5a6" stroke="#fff" stroke-width="1"/>
<text x="1111.2" y="277.0" text-anchor="middle" font-weight="bold" font-size="15.0" fill="#222">memset</text>
<text x="1111.2" y="292.0" text-anchor="middle" fill="#555" font-size="13.0">src/string.c</text>
<rect x="668.9" y="232.0" width="76.5" height="48.0" rx="6.0" fill="#2ecc71" stroke="#fff" stroke-width="1"/>
<text x="707.1" y="249.0" text-anchor="middle" font-weight="bold" font-size="15.0" fill="#222">walk</text>
<text x="707.1" y="264.0" text-anchor="middle" fill="#555" font-size="13.0">src/vm.c</text>
<rect x="202.2" y="592.4" width="165.1" height="36.8" rx="6.0" fill="#f4d03f" stroke="#fff" stroke-width="1"/>
<text x="284.8" y="607.9" text-anchor="middle" font-weight="bold" font-size="15.0" fill="#222">intr_get</text>
<text x="284.8" y="621.1" text-anchor="middle" fill="#555" font-size="13.0">src/include/riscv.h</text>
<rect x="423.6" y="90.0" width="92.6" height="38.7" rx="6.0" fill="#e74c3c" stroke="#fff" stroke-width="1"/>
<text x="469.9" y="106.2" text-anchor="middle" font-weight="bold" font-size="15.0" fill="#222">argraw</text>
<text x="469.9" y="120.2" text-anchor="middle" fill="#555" font-size="13.0">src/uarg.c</text>
<rect x="1056.8" y="316.0" width="108.7" height="48.0" rx="6.0" fill="#95a5a6" stroke="#fff" stroke-width="1"/>
<text x="1111.2" y="333.0" text-anchor="middle" font-weight="bold" font-size="15.0" fill="#222">memmove</text>
<text x="1111.2" y="348.0" text-anchor="middle" fill="#555" font-size="13.0">src/string.c</text>
<rect x="241.6" y="637.2" width="86.4" height="36.8" rx="6.0" fill="#f4d03f" stroke="#fff" stroke-width="1"/>
<text x="284.8" y="652.7" text-anchor="middle" font-weight="bold" font-size="15.0" fill="#222">spi_txrx</text>
<text x="284.8" y="665.9" text-anchor="middle" fill="#555" font-size="13.0">src/spi.c</text>
<rect x="659.3" y="288.0" width="95.7" height="48.0" rx="6.0" fill="#2ecc71" stroke="#fff" stroke-width="1"/>
<text x="707.1" y="305.0" text-anchor="middle" font-weight="bold" font-size="15.0" fill="#222">allocpage</text>
<text x="707.1" y="320.0" text-anchor="middle" fill="#555" font-size="13.0">src/pm.c</text>
<rect x="904.0" y="366.8" width="124.8" height="37.6" rx="6.0" fill="#e67e22" stroke="#fff" stroke-width="1"/>
<text x="966.4" y="382.6" text-anchor="middle" font-weight="bold" font-size="15.0" fill="#222">initlock</text>
<text x="966.4" y="396.1" text-anchor="middle" fill="#555" font-size="13.0">src/spinlock.c</text>
<rect x="1056.8" y="372.0" width="108.7" height="48.0" rx="6.0" fill="#95a5a6" stroke="#fff" stroke-width="1"/>
<text x="1111.2" y="389.0" text-anchor="middle" font-weight="bold" font-size="15.0" fill="#222">printf</text>
<text x="1111.2" y="404.0" text-anchor="middle" fill="#555" font-size="13.0">src/printf.c</text>
<rect x="210.3" y="682.0" width="149.0" height="36.8" rx="6.0" fill="#f4d03f" stroke="#fff" stroke-width="1"/>
<text x="284.8" y="697.5" text-anchor="middle" font-weight="bold" font-size="15.0" fill="#222">sbi_call</text>
<text x="284.8" y="710.7" text-anchor="middle" fill="#555" font-size="13.0">src/include/sbi.h</text>
<rect x="648.8" y="344.0" width="116.8" height="48.0" rx="6.0" fill="#2ecc71" stroke="#fff" stroke-width="1"/>
<text x="707.1" y="361.0" text-anchor="middle" font-weight="bold" font-size="15.0" fill="#222">kfree</text>
<text x="707.1" y="376.0" text-anchor="middle" fill="#555" font-size="13.0">src/kmalloc.c</text>
<rect x="202.2" y="726.8" width="165.1" height="36.8" rx="6.0" fill="#f4d03f" stroke="#fff" stroke-width="1"/>
<text x="284.8" y="742.3" text-anchor="middle" font-weight="bold" font-size="15.0" fill="#222">intr_on</text>
<text x="284.8" y="755.5" text-anchor="middle" fill="#555" font-size="13.0">src/include/riscv.h</text>
<rect x="423.6" y="136.7" width="92.6" height="38.7" rx="6.0" fill="#e74c3c" stroke="#fff" stroke-width="1"/>
<text x="469.9" y="152.9" text-anchor="middle" font-weight="bold" font-size="15.0" fill="#222">argint</text>
<text x="469.9" y="166.8" text-anchor="middle" fill="#555" font-size="13.0">src/uarg.c</text>
<rect x="202.2" y="771.6" width="165.1" height="36.8" rx="6.0" fill="#f4d03f" stroke="#fff" stroke-width="1"/>
<text x="284.8" y="787.1" text-anchor="middle" font-weight="bold" font-size="15.0" fill="#222">w_sstatus</text>
<text x="284.8" y="800.3" text-anchor="middle" fill="#555" font-size="13.0">src/include/riscv.h</text>
<rect x="423.6" y="183.3" width="92.6" height="38.7" rx="6.0" fill="#e74c3c" stroke="#fff" stroke-width="1"/>
<text x="469.9" y="199.6" text-anchor="middle" font-weight="bold" font-size="15.0" fill="#222">argaddr</text>
<text x="469.9" y="213.5" text-anchor="middle" fill="#555" font-size="13.0">src/uarg.c</text>
<rect x="170.0" y="816.4" width="229.6" height="36.8" rx="6.0" fill="#f4d03f" stroke="#fff" stroke-width="1"/>
<text x="284.8" y="831.9" text-anchor="middle" font-weight="bold" font-size="15.0" fill="#222">ccache_barrier_0</text>
<text x="284.8" y="845.1" text-anchor="middle" fill="#555" font-size="13.0">src/sifive/devices/ccache.h</text>
<rect x="202.2" y="861.2" width="165.1" height="36.8" rx="6.0" fill="#f4d03f" stroke="#fff" stroke-width="1"/>
<text x="284.8" y="876.7" text-anchor="middle" font-weight="bold" font-size="15.0" fill="#222">intr_off</text>
<text x="284.8" y="889.9" text-anchor="middle" fill="#555" font-size="13.0">src/include/riscv.h</text>
<rect x="789.5" y="654.0" width="86.4" height="48.0" rx="6.0" fill="#9b59b6" stroke="#fff" stroke-width="1"/>
<text x="832.7" y="671.0" text-anchor="middle" font-weight="bold" font-size="15.0" fill="#222">sd_dummy</text>
<text x="832.7" y="686.0" text-anchor="middle" fill="#555" font-size="13.0">src/sd.c</text>
<rect x="663.9" y="400.0" width="86.4" height="48.0" rx="6.0" fill="#2ecc71" stroke="#fff" stroke-width="1"/>
<text x="707.1" y="417.0" text-anchor="middle" font-weight="bold" font-size="15.0" fill="#222">freepage</text>
<text x="707.1" y="432.0" text-anchor="middle" fill="#555" font-size="13.0">src/pm.c</text>
<rect x="899.9" y="412.4" width="132.9" height="37.6" rx="6.0" fill="#e67e22" stroke="#fff" stroke-width="1"/>
<text x="966.4" y="428.2" text-anchor="middle" font-weight="bold" font-size="15.0" fill="#222">acquiresleep</text>
<text x="966.4" y="441.7" text-anchor="middle" fill="#555" font-size="13.0">src/sleeplock.c</text>
</svg>